<svg width="50" height="50" viewBox="0 0 50 50" fill="none" xmlns="http://www.w3.org/2000/svg">
<g clip-path="url(#clip0_55_30)">
<path d="M25.8195 16.3472C25.6273 16.0449 25.3258 15.8285 24.9778 15.7433C24.6299 15.6581 24.2625 15.7106 23.9523 15.8899C23.6422 16.0691 23.4133 16.3613 23.3135 16.7053C23.2137 17.0494 23.2507 17.4187 23.4167 17.7361L26.8889 23.7639L18.4584 22.375L25.8056 37.0833C25.9762 37.4014 26.2639 37.6406 26.6078 37.7502C26.9517 37.8598 27.3247 37.8313 27.6479 37.6706C27.9711 37.5099 28.2191 37.2297 28.3393 36.8893C28.4594 36.549 28.4424 36.1752 28.2917 35.8472L23.3889 26.0139L32.25 27.4861L25.8195 16.3472Z" fill="#E5E5E5" fill-opacity="0.4"/>
<path d="M34.8889 5.55555H31.9444V4.97222C31.9444 4.39021 31.7132 3.83205 31.3017 3.42051C30.8902 3.00897 30.332 2.77777 29.75 2.77777H20.25C19.668 2.77777 19.1098 3.00897 18.6983 3.42051C18.2868 3.83205 18.0556 4.39021 18.0556 4.97222V5.55555H15.1111C14.4186 5.55555 13.7545 5.83065 13.2648 6.32033C12.7751 6.81 12.5 7.47415 12.5 8.16666V44.6111C12.5 44.954 12.5675 45.2935 12.6988 45.6103C12.83 45.9271 13.0223 46.215 13.2648 46.4574C13.5072 46.6999 13.7951 46.8922 14.1119 47.0235C14.4287 47.1547 14.7682 47.2222 15.1111 47.2222H34.8889C35.5814 47.2222 36.2455 46.9471 36.7352 46.4574C37.2249 45.9678 37.5 45.3036 37.5 44.6111V8.16666C37.5 7.47415 37.2249 6.81 36.7352 6.32033C36.2455 5.83065 35.5814 5.55555 34.8889 5.55555ZM34.7222 44.4444H15.2778V8.33333H20.8333V5.55555H29.1667V8.33333H34.7222V44.4444Z" fill="#E5E5E5" fill-opacity="0.5"/>
</g>
<defs>
<clipPath id="clip0_55_30">
<rect width="50" height="50" fill="white"/>
</clipPath>
</defs>
</svg>
