<svg width="13" height="13" viewBox="0 0 13 13" fill="none" xmlns="http://www.w3.org/2000/svg">
<path d="M11.2752 8.52415L9.5078 8.32235C9.29998 8.29794 9.08932 8.32095 8.89167 8.38965C8.69402 8.45835 8.5145 8.57095 8.36661 8.71899L7.08626 9.99935C5.11103 8.9945 3.50548 7.38895 2.50064 5.4137L3.78795 4.12638C4.08717 3.82717 4.23329 3.40966 4.18458 2.98519L3.98279 1.23165C3.94349 0.892142 3.78062 0.578964 3.52525 0.351818C3.26987 0.124672 2.93984 -0.000556728 2.59806 1.86067e-06H1.39425C0.607942 1.86067e-06 -0.046153 0.6541 0.00255617 1.44041C0.371354 7.38296 5.12398 12.1286 11.0595 12.4974C11.8458 12.5462 12.4999 11.8921 12.4999 11.1057V9.90193C12.5069 9.19912 11.978 8.60765 11.2752 8.52415Z" fill="#E5E5E5"/>
</svg>
