<svg width="20" height="20" viewBox="0 0 20 20" fill="none" xmlns="http://www.w3.org/2000/svg">
<path d="M16.2752 13.5241L14.5078 13.3224C14.3 13.2979 14.0893 13.321 13.8917 13.3896C13.694 13.4583 13.5145 13.5709 13.3666 13.719L12.0863 14.9993C10.111 13.9945 8.50548 12.3889 7.50064 10.4137L8.78795 9.12638C9.08717 8.82717 9.23329 8.40966 9.18458 7.98519L8.98279 6.23165C8.94349 5.89214 8.78062 5.57896 8.52525 5.35182C8.26987 5.12467 7.93984 4.99944 7.59806 5H6.39425C5.60794 5 4.95385 5.6541 5.00256 6.44041C5.37135 12.383 10.124 17.1286 16.0595 17.4974C16.8458 17.5462 17.4999 16.8921 17.4999 16.1057V14.9019C17.5069 14.1991 16.978 13.6077 16.2752 13.5241Z" fill="#E5E5E5"/>
</svg>
