<svg width="24" height="24" viewBox="0 0 24 24" fill="none" xmlns="http://www.w3.org/2000/svg">
<path d="M20.982 7.242C20.7086 6.22936 20.1746 5.30609 19.4331 4.56423C18.6916 3.82238 17.7685 3.28787 16.756 3.014M17.604 8.154C17.4902 7.73199 17.2676 7.34721 16.9586 7.03804C16.6496 6.72887 16.265 6.50612 15.843 6.392M21 22C17.2 22 13.662 20.885 10.693 18.964C8.42916 17.4988 6.50121 15.5709 5.03603 13.307C3.04817 10.2374 1.99354 6.65704 2.00003 3H8.77803L9.97003 8.372L7.94603 10.396C9.2876 12.7569 11.2421 14.7114 13.603 16.053L15.627 14.028L21 15.223V22Z" stroke="#272727" stroke-width="2" stroke-linecap="square"/>
</svg>
