<svg width="56" height="56" viewBox="0 0 56 56" fill="none" xmlns="http://www.w3.org/2000/svg">
<g clip-path="url(#clip0_3_174)">
<path d="M0.813255 4.22321C0.912568 4.22213 1.01188 4.22105 1.1142 4.21993C1.22295 4.22042 1.33169 4.22091 1.44373 4.22142C1.61587 4.2203 1.61587 4.2203 1.79149 4.21915C2.17244 4.21714 2.55333 4.21757 2.93428 4.21819C3.19963 4.21769 3.46497 4.21711 3.73032 4.21645C4.28789 4.21547 4.84545 4.21574 5.40302 4.21683C6.11388 4.21808 6.82469 4.21589 7.53555 4.21268C8.0845 4.21066 8.63343 4.21071 9.18239 4.21133C9.44418 4.21135 9.70597 4.21069 9.96776 4.20933C13.0445 4.19558 14.8836 5.05798 17.3645 6.82685C17.6635 7.03832 17.9668 7.24257 18.2724 7.44433C18.8163 7.80339 19.355 8.16961 19.8925 8.53808C20.662 9.06549 21.4322 9.5919 22.2031 10.1172C23.3822 10.9208 24.56 11.7265 25.7374 12.5326C27.1466 13.4974 28.5574 14.4601 29.9687 15.4219C30.3766 15.6998 30.7845 15.9778 31.1923 16.2558C31.2909 16.323 31.3895 16.3902 31.491 16.4595C32.2639 16.9864 33.0361 17.5144 33.8078 18.0431C33.8881 18.098 33.9683 18.153 34.051 18.2096C34.1211 18.2576 34.1911 18.3056 34.2633 18.355C34.4352 18.4722 34.6081 18.5877 34.7812 18.7031C34.6333 17.8472 34.2243 17.1868 33.7832 16.4473C33.7085 16.3199 33.6339 16.1925 33.5595 16.065C33.2495 15.5349 32.9359 15.007 32.6189 14.4811C32.5571 14.3769 32.5571 14.3769 32.494 14.2707C32.3908 14.0971 32.2858 13.9246 32.1806 13.7522C32.0219 13.3973 32.0169 13.1834 32.0468 12.7969C32.17 12.5009 32.17 12.5009 32.3433 12.2C32.4386 12.0322 32.4386 12.0322 32.5359 11.8611C32.6046 11.7435 32.6733 11.626 32.7441 11.5049C32.8135 11.3838 32.8829 11.2627 32.9545 11.138C33.161 10.7787 33.3694 10.4205 33.5781 10.0625C33.6881 9.87128 33.7981 9.68002 33.9079 9.4887C34.0029 9.32442 34.098 9.16021 34.1933 8.99608C34.2358 8.92265 34.2783 8.84922 34.3221 8.77357C34.9496 7.70834 34.9496 7.70834 35.4238 7.5537C35.8061 7.54606 36.0706 7.61859 36.4218 7.76562C36.5312 7.87499 36.5312 7.87499 36.5444 8.09991C36.5441 8.19876 36.5439 8.29761 36.5436 8.39946C36.5436 8.51113 36.5436 8.6228 36.5436 8.73786C36.543 8.85931 36.5425 8.98076 36.5419 9.10589C36.5417 9.29137 36.5417 9.29137 36.5414 9.48061C36.5408 9.87737 36.5394 10.2741 36.538 10.6709C36.5375 10.9391 36.537 11.2074 36.5366 11.4756C36.5354 12.1348 36.5333 12.7939 36.5312 13.4531C37.6862 13.4531 38.8412 13.4531 40.0312 13.4531C40.0274 13.0621 40.0236 12.6712 40.0197 12.2684C40.0171 11.8905 40.0151 11.5125 40.0132 11.1346C40.0115 10.8716 40.0093 10.6086 40.0065 10.3456C40.0025 9.96797 40.0006 9.59036 39.9992 9.2127C39.9975 9.09477 39.9958 8.97684 39.994 8.85534C39.994 8.74587 39.994 8.63641 39.994 8.52363C39.9929 8.379 39.9929 8.379 39.9918 8.23144C40.0396 7.93183 40.1194 7.83655 40.3593 7.65624C40.6153 7.60497 40.6153 7.60497 40.8994 7.60155C40.9929 7.59817 41.0863 7.59479 41.1826 7.5913C41.6453 7.70239 41.8338 8.11167 42.0752 8.50021C42.1354 8.60604 42.1956 8.71187 42.2576 8.82091C42.3253 8.93915 42.3929 9.05739 42.4626 9.17921C42.5333 9.30376 42.6039 9.42831 42.6767 9.55663C43.2505 10.5723 43.2505 10.5723 43.8576 11.5681C43.9038 11.6412 43.9501 11.7143 43.9977 11.7897C44.1163 11.9751 44.237 12.1592 44.3579 12.3431C44.555 12.7735 44.6204 13.1043 44.5156 13.5625C44.3193 14.0023 44.0724 14.4049 43.8183 14.8135C43.6212 15.1396 43.4241 15.4658 43.2281 15.7927C43.0626 16.0655 42.8881 16.3294 42.7072 16.5921C41.9148 17.7794 41.7295 18.7134 41.7421 20.1222C41.7399 20.3228 41.7373 20.5234 41.7342 20.7239C41.7274 21.2633 41.7274 21.8023 41.7293 22.3417C41.7302 22.795 41.7278 23.2482 41.7254 23.7014C41.7199 24.7729 41.7201 25.8442 41.724 26.9156C41.7278 28.0135 41.722 29.111 41.7115 30.2089C41.7027 31.1578 41.7 32.1066 41.702 33.0556C41.7032 33.6196 41.7021 34.1833 41.6953 34.7472C41.6674 37.2556 41.6884 39.2104 43.2293 41.2974C43.4833 41.6471 43.7041 42.0131 43.9258 42.3837C44.0161 42.5345 44.1087 42.684 44.2037 42.8319C44.5009 43.3128 44.6156 43.6281 44.5156 44.1875C44.3015 44.6515 44.042 45.0839 43.7773 45.5205C43.7026 45.6462 43.628 45.772 43.5536 45.8979C43.4024 46.153 43.2502 46.4074 43.0972 46.6614C42.8898 47.0065 42.6852 47.353 42.4815 47.7003C42.3643 47.8989 42.2471 48.0974 42.1298 48.2959C42.0755 48.3882 42.0212 48.4805 41.9652 48.5756C41.9151 48.6594 41.8649 48.7432 41.8133 48.8295C41.7482 48.939 41.7482 48.939 41.6817 49.0506C41.5625 49.2187 41.5625 49.2187 41.3437 49.3281C40.5571 49.3789 40.5571 49.3789 40.2389 49.1961C40.0312 49 40.0312 49 39.9786 48.7488C39.9796 48.6504 39.9805 48.552 39.9815 48.4507C39.9816 48.2832 39.9816 48.2832 39.9816 48.1123C39.9839 47.992 39.9862 47.8717 39.9885 47.7477C39.9891 47.6244 39.9897 47.501 39.9904 47.374C39.9928 46.9794 39.9983 46.5849 40.0039 46.1904C40.0061 45.9232 40.0081 45.6559 40.0098 45.3887C40.0143 44.733 40.0229 44.0776 40.0312 43.4219C38.8762 43.4219 37.7212 43.4219 36.5312 43.4219C36.5363 43.8207 36.5414 44.2196 36.5466 44.6305C36.55 45.0161 36.5527 45.4016 36.5552 45.7871C36.5574 46.0554 36.5604 46.3237 36.5642 46.592C36.5695 46.9773 36.572 47.3624 36.5739 47.7477C36.5762 47.8681 36.5784 47.9884 36.5808 48.1123C36.5808 48.224 36.5808 48.3357 36.5809 48.4507C36.5818 48.5491 36.5828 48.6474 36.5838 48.7488C36.5312 49 36.5312 49 36.3333 49.1962C35.9863 49.3872 35.7176 49.3629 35.3281 49.3281C34.9252 49.1821 34.7884 48.9941 34.5868 48.6223C34.5313 48.5217 34.4758 48.4211 34.4186 48.3175C34.36 48.2089 34.3015 48.1002 34.2412 47.9883C34.1158 47.7607 33.9902 47.5333 33.8643 47.306C33.7997 47.1888 33.7351 47.0717 33.6686 46.9511C33.3451 46.3727 33.0075 45.8029 32.6689 45.2334C32.6067 45.1285 32.5444 45.0237 32.4803 44.9156C32.336 44.6728 32.1916 44.4301 32.0468 44.1875C30.8532 45.7362 30.7206 47.7758 30.8437 49.6562C30.8856 49.9579 30.9401 50.2457 31.0125 50.5411C31.0838 50.8391 31.0995 51.1025 31.0625 51.4062C30.8872 51.6403 30.7898 51.7247 30.499 51.7755C30.3609 51.7756 30.3609 51.7756 30.22 51.7757C30.1136 51.7765 30.0073 51.7774 29.8977 51.7783C29.7806 51.7775 29.6634 51.7768 29.5427 51.776C29.4185 51.7765 29.2943 51.7771 29.1663 51.7776C28.7479 51.7789 28.3295 51.7779 27.9111 51.7768C27.612 51.7771 27.3129 51.7778 27.0138 51.7786C26.2845 51.78 25.5552 51.7797 24.8258 51.7788C24.2333 51.778 23.6407 51.7779 23.0481 51.7783C22.9638 51.7783 22.8796 51.7784 22.7928 51.7784C22.6216 51.7785 22.4505 51.7786 22.2794 51.7787C20.6735 51.7797 19.0677 51.7786 17.4619 51.7768C16.0832 51.7754 14.7045 51.7756 13.3258 51.7771C11.7258 51.7789 10.1259 51.7796 8.52589 51.7786C8.35538 51.7785 8.18486 51.7784 8.01435 51.7783C7.93044 51.7782 7.84654 51.7782 7.7601 51.7781C7.16802 51.7778 6.57594 51.7783 5.98386 51.7791C5.26259 51.78 4.54134 51.7798 3.82007 51.778C3.45186 51.7771 3.08369 51.777 2.71548 51.7779C2.31686 51.7788 1.91829 51.7777 1.51967 51.776C1.40254 51.7768 1.28541 51.7775 1.16474 51.7783C1.05837 51.7774 0.951999 51.7765 0.842408 51.7757C0.704311 51.7756 0.704311 51.7756 0.563424 51.7755C0.328084 51.7344 0.328084 51.7344 0.134457 51.6159C-0.0725663 51.2932 -0.0411901 51.0163 -0.041333 50.6357C-0.0418099 50.5564 -0.0422868 50.4771 -0.0427782 50.3953C-0.0439831 50.1275 -0.0428334 49.8597 -0.0417078 49.5918C-0.0420856 49.3987 -0.0426066 49.2055 -0.043259 49.0124C-0.0446343 48.48 -0.0439492 47.9477 -0.0429354 47.4153C-0.0421956 46.8418 -0.0433376 46.2683 -0.0442413 45.6948C-0.0457034 44.5707 -0.0453838 43.4466 -0.044434 42.3224C-0.0436942 41.4092 -0.043592 40.4959 -0.0439496 39.5826C-0.0439999 39.4528 -0.0440502 39.3231 -0.044102 39.1893C-0.0442069 38.9257 -0.0443133 38.6621 -0.0444211 38.3985C-0.0453577 35.9242 -0.0442796 33.4499 -0.0425179 30.9756C-0.0410518 28.8507 -0.0413064 26.7258 -0.0428194 24.6009C-0.0445737 22.1357 -0.0452676 19.6706 -0.0442591 17.2054C-0.0441545 16.9427 -0.0440514 16.68 -0.0439496 16.4174C-0.043899 16.2881 -0.0438484 16.1589 -0.0437963 16.0257C-0.0435125 15.1131 -0.0439922 14.2005 -0.0447632 13.2879C-0.0456817 12.1763 -0.0454382 11.0648 -0.0436867 9.95326C-0.042822 9.38569 -0.0424908 8.81814 -0.0435716 8.25058C-0.0445449 7.73163 -0.0440194 7.21272 -0.0422665 6.69378C-0.0418981 6.50543 -0.0420906 6.31708 -0.042882 6.12874C-0.0438712 5.87389 -0.0428653 5.61913 -0.041333 5.36429C-0.0412797 5.22238 -0.0412264 5.08048 -0.0411715 4.93428C-4.13544e-05 4.59374 -4.13582e-05 4.59374 0.152621 4.38412C0.384225 4.2277 0.534568 4.22407 0.813255 4.22321ZM1.31246 5.57812C1.31246 18.4636 1.31246 31.3491 1.31246 44.625C10.8412 44.625 20.37 44.625 30.1875 44.625C30.4762 44.0836 30.765 43.5422 31.0625 42.9844C31.8561 41.8609 32.6982 40.9179 33.8379 40.1338C34.3169 39.7751 34.5796 39.3929 34.7812 38.8281C34.8635 38.234 34.864 37.6436 34.8641 37.0452C34.8661 36.8656 34.8683 36.6861 34.8708 36.5065C34.8765 36.0211 34.8787 35.5357 34.8799 35.0503C34.8808 34.7466 34.8824 34.4429 34.8842 34.1392C34.8906 33.0786 34.8939 32.0179 34.8946 30.9573C34.8953 29.9703 34.903 28.9835 34.9139 27.9965C34.9229 27.1474 34.9269 26.2983 34.9269 25.4492C34.9271 24.9427 34.9293 24.4365 34.9367 23.9301C34.9435 23.4538 34.944 22.9779 34.9397 22.5016C34.9392 22.3274 34.9409 22.1531 34.945 21.979C34.973 20.9799 34.973 20.9799 34.493 20.1346C34.1735 19.8749 33.8277 19.67 33.4687 19.4687C33.3298 19.375 33.1916 19.2801 33.0547 19.1833C32.9364 19.1061 32.8181 19.0288 32.6963 18.9492C32.5565 18.8572 32.4168 18.765 32.2771 18.6728C32.2046 18.6249 32.132 18.5769 32.0573 18.5276C31.641 18.2504 31.2288 17.9674 30.8164 17.6846C30.685 17.5945 30.685 17.5945 30.5509 17.5026C30.3724 17.3802 30.1938 17.2577 30.0153 17.1352C29.5876 16.8417 29.1595 16.5488 28.7314 16.2558C28.6041 16.1688 28.6041 16.1688 28.4743 16.0799C27.8063 15.6229 27.1376 15.1668 26.4687 14.7109C25.2896 13.9073 24.1118 13.1016 22.9344 12.2955C21.8233 11.5348 20.7115 10.7751 19.5986 10.017C19.0411 9.63713 18.4843 9.25626 17.9283 8.87411C17.5889 8.6412 17.2486 8.40957 16.9082 8.17796C16.7059 8.03966 16.504 7.9007 16.3024 7.76129C15.9597 7.5244 15.6156 7.28944 15.2714 7.05468C15.1662 6.9813 15.061 6.90792 14.9526 6.83232C10.9983 4.15392 5.83076 5.57812 1.31246 5.57812ZM41.3437 10.1719C41.3076 11.6517 41.2715 13.1316 41.2343 14.6562C40.4283 14.6613 39.6224 14.6656 38.8164 14.6683C38.542 14.6694 38.2677 14.6709 37.9933 14.6727C37.5996 14.6754 37.206 14.6766 36.8123 14.6776C36.6891 14.6787 36.5658 14.6799 36.4388 14.681C36.3249 14.681 36.2111 14.6811 36.0938 14.6811C35.9932 14.6816 35.8927 14.682 35.7891 14.6825C35.5468 14.6562 35.5468 14.6562 35.3281 14.4375C35.3012 14.1242 35.2872 13.8207 35.2828 13.5069C35.2807 13.415 35.2786 13.3231 35.2764 13.2283C35.2698 12.9341 35.2648 12.6399 35.2597 12.3457C35.2556 12.1465 35.2513 11.9472 35.2469 11.748C35.2364 11.2591 35.2272 10.7702 35.2187 10.2812C34.7724 10.691 34.5087 11.2182 34.207 11.7373C34.1139 11.8912 34.1139 11.8912 34.019 12.0481C33.9609 12.1481 33.9028 12.2482 33.843 12.3512C33.7895 12.4419 33.736 12.5327 33.6809 12.6261C33.51 13.0915 33.6255 13.4283 33.8283 13.8672C33.887 13.9699 33.9457 14.0727 34.0062 14.1786C34.0715 14.2939 34.1367 14.4092 34.204 14.5281C34.307 14.7066 34.307 14.7066 34.4121 14.8887C34.4782 15.0051 34.5443 15.1216 34.6124 15.2416C34.7389 15.4637 34.8657 15.6856 34.993 15.9073C35.0259 15.9667 35.0588 16.0261 35.0927 16.0874C35.2213 16.3087 35.2213 16.3087 35.4043 16.548C36.1107 17.5777 36.0982 18.5023 36.0956 19.7147C36.0978 19.9251 36.1005 20.1355 36.1033 20.3458C36.1101 20.9143 36.1119 21.4826 36.1124 22.0511C36.1129 22.4076 36.1146 22.7641 36.1166 23.1206C36.1237 24.3682 36.1268 25.6158 36.1262 26.8635C36.1257 28.0199 36.1338 29.1761 36.1459 30.3324C36.156 31.3302 36.16 32.3279 36.1595 33.3257C36.1594 33.9195 36.1614 34.513 36.1696 35.1067C36.2295 39.7639 36.2295 39.7639 34.6448 41.7566C34.169 42.3606 33.7121 43.0174 33.4687 43.75C33.5505 44.2841 33.8127 44.6307 34.125 45.0625C34.2142 45.2101 34.3017 45.3587 34.3877 45.5081C34.6204 45.9121 34.8555 46.312 35.1093 46.7031C35.1454 46.7031 35.1815 46.7031 35.2187 46.7031C35.2203 46.575 35.2219 46.447 35.2235 46.315C35.2299 45.8409 35.2383 45.3668 35.2474 44.8927C35.2511 44.6873 35.2541 44.4819 35.2566 44.2765C35.2603 43.9816 35.266 43.6868 35.2721 43.392C35.2732 43.2537 35.2732 43.2537 35.2742 43.1126C35.2808 42.8539 35.2808 42.8539 35.3281 42.4375C35.6781 42.2041 35.7682 42.1912 36.1702 42.1904C36.2742 42.1897 36.3782 42.1891 36.4854 42.1883C36.5975 42.1888 36.7096 42.1892 36.8252 42.1897C36.9981 42.1894 36.9981 42.1894 37.1745 42.1891C37.4183 42.1889 37.6622 42.1893 37.906 42.1902C38.2797 42.1914 38.6534 42.1902 39.0272 42.1888C39.2639 42.189 39.5006 42.1893 39.7373 42.1897C39.9054 42.189 39.9054 42.189 40.077 42.1883C40.181 42.189 40.2851 42.1897 40.3922 42.1904C40.5296 42.1907 40.5296 42.1907 40.6696 42.191C40.9062 42.2187 40.9062 42.2187 41.2343 42.4375C41.2713 42.7627 41.2878 43.0661 41.2903 43.392C41.2923 43.4863 41.2942 43.5807 41.2963 43.6779C41.3022 43.9799 41.3059 44.2819 41.3095 44.584C41.3132 44.7885 41.3169 44.993 41.3209 45.1975C41.3302 45.6994 41.3375 46.2012 41.3437 46.7031C42.5964 45.2337 42.5964 45.2337 43.0625 43.4603C42.8995 43.1359 42.7152 42.8532 42.4959 42.5643C42.2105 42.1627 41.9776 41.7306 41.7344 41.3026C41.5347 40.9517 41.3315 40.6032 41.1262 40.2555C41.0681 40.157 41.01 40.0585 40.9501 39.957C40.8311 39.7599 40.7058 39.5666 40.5781 39.375C40.5539 39.0891 40.5424 38.8145 40.5407 38.5284C40.5394 38.4412 40.5381 38.3541 40.5367 38.2643C40.5325 37.9711 40.5298 37.678 40.5272 37.3848C40.5246 37.175 40.5219 36.9651 40.5191 36.7552C40.5106 36.0641 40.5045 35.3729 40.499 34.6817C40.4976 34.5048 40.4976 34.5048 40.4962 34.3244C40.4876 33.2102 40.4802 32.096 40.4751 30.9817C40.4685 29.5616 40.4565 28.1417 40.4371 26.7217C40.4238 25.7209 40.417 24.7201 40.4148 23.7193C40.4133 23.123 40.4091 22.5271 40.3979 21.9309C40.3502 19.2724 40.349 17.204 42.0227 15.0249C42.3037 14.6532 42.5369 14.2577 42.7724 13.8564C42.8414 13.7463 42.9103 13.6362 42.9813 13.5228C43.1256 13.2421 43.1256 13.2421 43.0121 12.9806C42.8681 12.6729 42.7108 12.379 42.5426 12.0838C42.4791 11.9721 42.4157 11.8603 42.3503 11.7452C42.2843 11.6298 42.2183 11.5144 42.1504 11.3955C42.0835 11.278 42.0167 11.1605 41.9478 11.0394C41.7832 10.75 41.6183 10.4609 41.4531 10.1719C41.417 10.1719 41.3809 10.1719 41.3437 10.1719ZM1.31246 45.9375C1.31246 47.4173 1.31246 48.8972 1.31246 50.4219C10.6246 50.4219 19.9368 50.4219 29.5312 50.4219C29.5312 49.303 29.5312 48.1841 29.5312 47.0312C29.5673 46.6703 29.6034 46.3094 29.6406 45.9375C20.2923 45.9375 10.944 45.9375 1.31246 45.9375Z" fill="#E5E5E5" fill-opacity="0.5"/>
<path d="M50.3775 7.60198C50.4806 7.60182 50.5838 7.60166 50.6901 7.6015C50.9081 7.60168 51.1262 7.60295 51.3443 7.60521C51.6785 7.60838 52.0125 7.60747 52.3467 7.60604C52.5584 7.60672 52.7702 7.60764 52.982 7.60882C53.0821 7.6085 53.1823 7.60817 53.2855 7.60784C53.4251 7.60992 53.4251 7.60992 53.5675 7.61205C53.6903 7.61293 53.6903 7.61293 53.8155 7.61384C54.0957 7.66889 54.1916 7.75549 54.3594 7.98437C54.3975 8.31946 54.4158 8.63176 54.4184 8.96746C54.4197 9.06533 54.4211 9.16319 54.4225 9.26403C54.4246 9.4719 54.4258 9.67978 54.4262 9.88767C54.4277 10.2009 54.4351 10.5135 54.4427 10.8266C54.4441 11.0295 54.4451 11.2324 54.4457 11.4352C54.4501 11.5726 54.4501 11.5726 54.4546 11.7127C54.4477 12.3391 54.2878 12.7374 53.9769 13.2813C53.5509 14.0847 53.4855 14.7893 53.4968 15.6989C53.496 15.851 53.4948 16.0032 53.4933 16.1554C53.4902 16.5632 53.4917 16.9709 53.4941 17.3787C53.4958 17.8069 53.4932 18.235 53.491 18.6632C53.4876 19.4715 53.4881 20.2799 53.4899 21.0883C53.4919 22.0096 53.4895 22.9309 53.4867 23.8522C53.4811 25.7452 53.481 27.6382 53.4844 29.5312C53.5525 29.5376 53.6206 29.5439 53.6908 29.5504C53.7798 29.5594 53.8689 29.5683 53.9606 29.5775C54.049 29.5861 54.1374 29.5947 54.2285 29.6035C54.6861 29.6742 54.9433 29.9569 55.2344 30.2969C55.4269 30.6293 55.4609 30.913 55.4942 31.2881C55.5166 31.7187 55.5166 31.7187 55.7821 31.919C56.0809 32.2442 56.055 32.446 56.0556 32.8832C56.0566 32.9926 56.0566 32.9926 56.0577 33.1042C56.0594 33.3485 56.058 33.5926 56.0567 33.8369C56.0572 34.0121 56.058 34.1873 56.059 34.3625C56.061 34.8384 56.0602 35.3143 56.0588 35.7903C56.0577 36.2888 56.0587 36.7872 56.0594 37.2857C56.0602 38.1235 56.0592 38.9612 56.0571 39.7989C56.0547 40.766 56.0555 41.7331 56.0579 42.7002C56.0599 43.5312 56.0601 44.3621 56.059 45.1931C56.0583 45.6891 56.0582 46.1851 56.0597 46.6811C56.0609 47.148 56.06 47.6149 56.0575 48.0818C56.057 48.2527 56.0571 48.4235 56.0581 48.5944C56.0672 50.3665 56.0672 50.3665 55.5625 51.0781C55.0734 51.5391 54.6005 51.7457 53.9334 51.7555C53.8245 51.7572 53.7157 51.759 53.6036 51.7608C53.1053 51.7657 52.6071 51.7701 52.1089 51.7727C51.8465 51.7745 51.5842 51.7775 51.3219 51.7816C50.9428 51.7876 50.5639 51.79 50.1848 51.7916C50.0683 51.7941 49.9519 51.7966 49.8319 51.7991C49.0854 51.797 48.5915 51.6753 48.0157 51.1875C47.5253 50.6594 47.4551 50.288 47.4556 49.5796C47.4555 49.5047 47.4555 49.4299 47.4554 49.3527C47.4552 49.1013 47.4558 48.8499 47.4564 48.5985C47.4564 48.4185 47.4564 48.2385 47.4563 48.0585C47.4563 47.5693 47.4569 47.0801 47.4577 46.5909C47.4584 46.0798 47.4584 45.5687 47.4586 45.0577C47.4589 44.0897 47.4598 43.1217 47.4609 42.1537C47.4621 41.0517 47.4627 39.9498 47.4633 38.8479C47.4644 36.5809 47.4664 34.3139 47.4688 32.0469C47.6854 31.9386 47.6854 31.9386 47.9063 31.8281C47.8973 31.7018 47.8882 31.5755 47.8789 31.4453C47.8808 30.9101 48.0338 30.5123 48.3438 30.0781C48.8436 29.6351 49.238 29.5987 49.875 29.5312C49.8787 27.5326 49.8779 25.5341 49.8719 23.5355C49.8693 22.6074 49.868 21.6793 49.8702 20.7512C49.872 19.9416 49.8712 19.1321 49.8671 18.3225C49.8651 17.8944 49.8644 17.4663 49.8669 17.0382C49.8692 16.634 49.8679 16.2299 49.8639 15.8257C49.8627 15.6092 49.8652 15.3927 49.8679 15.1761C49.8538 14.2301 49.6333 13.6092 49.1731 12.803C48.9241 12.322 48.8957 11.91 48.9137 11.3776C48.914 11.2837 48.9143 11.1897 48.9147 11.093C48.916 10.898 48.9192 10.703 48.9243 10.5081C48.9318 10.2095 48.9332 9.91128 48.9338 9.6126C48.9359 9.42162 48.9383 9.23064 48.9411 9.03966C48.9418 8.95103 48.9425 8.86239 48.9432 8.77107C48.9532 8.43328 48.984 8.13695 49.1022 7.81926C49.4883 7.54071 49.9146 7.5963 50.3775 7.60198ZM50.4219 8.96874C50.4067 9.41219 50.3937 9.85497 50.3859 10.2985C50.3826 10.4488 50.3782 10.5989 50.3724 10.7491C50.3643 10.9673 50.361 11.1857 50.3578 11.404C50.3544 11.5346 50.351 11.6652 50.3474 11.7998C50.3784 12.2103 50.5443 12.4804 50.7494 12.8334C51.1471 13.6153 51.171 14.3156 51.1627 15.1774C51.1636 15.3349 51.1648 15.4924 51.1662 15.6499C51.1693 16.0734 51.1684 16.4967 51.1668 16.9201C51.1658 17.3642 51.1684 17.8082 51.1707 18.2523C51.1745 19.0913 51.1749 19.9302 51.1741 20.7692C51.1734 21.7252 51.1764 22.6811 51.1797 23.6371C51.1865 25.6018 51.1885 27.5665 51.1875 29.5312C51.5124 29.5312 51.8372 29.5312 52.1719 29.5312C52.1718 29.4509 52.1716 29.3706 52.1715 29.2878C52.1683 27.3276 52.1693 25.3674 52.175 23.4072C52.1777 22.4592 52.1789 21.5112 52.1768 20.5632C52.1749 19.7364 52.1758 18.9095 52.1798 18.0826C52.1819 17.6453 52.1826 17.2081 52.1801 16.7709C52.1778 16.358 52.1791 15.9453 52.1831 15.5325C52.1843 15.3113 52.1818 15.0901 52.1791 14.8688C52.1929 13.9183 52.4021 13.3041 52.8755 12.5006C53.1886 11.8429 53.1281 11.1775 53.0948 10.459C53.0909 10.3132 53.0874 10.1673 53.0843 10.0215C53.0754 9.67046 53.0617 9.31956 53.0469 8.96874C52.1807 8.96874 51.3144 8.96874 50.4219 8.96874ZM49.3282 31.0625C49.2921 31.2791 49.256 31.4956 49.2188 31.7187C50.843 31.7187 52.4672 31.7187 54.1407 31.7187C54.1987 31.1999 54.1987 31.1999 53.9792 30.9761C53.5865 30.7878 53.2131 30.799 52.7867 30.804C52.6541 30.8039 52.6541 30.8039 52.5188 30.8038C52.3322 30.8041 52.1457 30.8052 51.9592 30.807C51.6735 30.8096 51.388 30.8092 51.1023 30.8085C50.9209 30.8091 50.7396 30.8099 50.5582 30.8108C50.4728 30.8107 50.3873 30.8106 50.2993 30.8105C49.8819 30.816 49.6836 30.8255 49.3282 31.0625ZM48.7813 33.1406C48.769 35.3292 48.7589 37.5178 48.753 39.7064C48.7501 40.7226 48.7463 41.7388 48.74 42.7549C48.7346 43.6405 48.7311 44.5261 48.7298 45.4117C48.7291 45.8807 48.7274 46.3497 48.7235 46.8187C48.7198 47.2601 48.7186 47.7013 48.7194 48.1427C48.7193 48.3048 48.7182 48.4669 48.7161 48.6289C48.7134 48.85 48.7144 49.0712 48.7155 49.2923C48.715 49.4161 48.7145 49.5399 48.714 49.6675C48.7556 50.0065 48.7556 50.0065 49.0435 50.2429C49.3397 50.4291 49.481 50.477 49.8251 50.4785C49.9674 50.4805 49.9674 50.4805 50.1126 50.4827C50.2137 50.4818 50.3148 50.4809 50.4189 50.48C50.5764 50.4806 50.5764 50.4806 50.7371 50.4812C50.9586 50.4815 51.1801 50.4807 51.4015 50.4789C51.7405 50.4766 52.0792 50.4789 52.4182 50.4817C52.6336 50.4814 52.849 50.4808 53.0644 50.48C53.1657 50.4809 53.267 50.4817 53.3714 50.4827C53.9338 50.4789 53.9338 50.4789 54.4198 50.22C54.6966 49.808 54.7011 49.4737 54.7007 48.9898C54.7008 48.8504 54.701 48.711 54.7011 48.5673C54.7008 48.4125 54.7004 48.2577 54.7 48.1029C54.6999 47.9401 54.6999 47.7774 54.7 47.6146C54.7 47.1724 54.6994 46.7302 54.6986 46.288C54.6979 45.826 54.6979 45.364 54.6978 44.902C54.6974 44.0269 54.6965 43.1519 54.6954 42.2768C54.6942 41.2807 54.6936 40.2846 54.693 39.2884C54.6919 37.2392 54.6899 35.1899 54.6875 33.1406C52.7385 33.1406 50.7894 33.1406 48.7813 33.1406Z" fill="#E5E5E5" fill-opacity="0.5"/>
<path d="M5.97747 9.14504C6.10162 9.14401 6.22577 9.14297 6.35368 9.14191C6.55432 9.1429 6.55432 9.1429 6.75901 9.14392C6.89712 9.14361 7.03524 9.14329 7.17753 9.14297C7.46993 9.14274 7.76225 9.14319 8.05464 9.14472C8.4273 9.14658 8.79988 9.14552 9.17254 9.14355C9.53014 9.14207 9.88774 9.14311 10.2453 9.14392C10.3782 9.14326 10.5111 9.14259 10.648 9.14191C11.5721 9.14952 12.2737 9.26513 13.0451 9.80871C13.1253 9.86446 13.2055 9.9202 13.2881 9.97764C13.4138 10.067 13.4138 10.067 13.542 10.1582C13.7265 10.287 13.9111 10.4157 14.0957 10.5444C14.2357 10.6428 14.2357 10.6428 14.3785 10.7431C14.8082 11.0439 15.2415 11.3392 15.6748 11.6348C15.8475 11.753 16.0203 11.8712 16.193 11.9894C16.8764 12.4567 17.5605 12.9228 18.2446 13.389C18.9746 13.8866 19.704 14.3853 20.433 14.8844C21.0954 15.3378 21.7585 15.7901 22.4219 16.2422C23.601 17.0458 24.7787 17.8515 25.9561 18.6576C26.1259 18.7738 26.2956 18.89 26.4654 19.0062C26.6355 19.1227 26.8056 19.2392 26.9756 19.3558C27.4581 19.6865 27.9421 20.0149 28.4277 20.3412C28.5362 20.4144 28.6448 20.4877 28.7567 20.5632C28.9673 20.7052 29.1782 20.8468 29.3895 20.9878C30.3678 21.6488 30.3678 21.6488 30.7344 22.0937C30.7263 22.5044 30.6984 22.6765 30.4062 22.9687C30.075 22.9907 29.7536 22.9987 29.4222 22.9973C29.2674 22.9979 29.2674 22.9979 29.1095 22.9985C28.7615 22.9997 28.4135 22.9992 28.0656 22.9988C27.817 22.9993 27.5684 22.9998 27.3198 23.0005C26.643 23.002 25.9662 23.002 25.2894 23.0017C24.7253 23.0016 24.1613 23.0022 23.5973 23.0027C22.1911 23.004 20.7849 23.0039 19.3787 23.0032C18.1563 23.0026 16.934 23.0038 15.7116 23.0059C14.4576 23.008 13.2036 23.0089 11.9496 23.0085C11.2451 23.0083 10.5406 23.0086 9.83614 23.0101C9.17397 23.0115 8.51181 23.0113 7.84964 23.0099C7.60599 23.0096 7.36233 23.0099 7.11867 23.0108C6.7873 23.0119 6.45599 23.0111 6.12462 23.0097C6.0271 23.0105 5.92958 23.0113 5.8291 23.0121C5.56149 23.0097 5.56149 23.0097 5.1406 22.9687C4.90385 22.6136 4.89417 22.5153 4.8926 22.1051C4.89167 21.9947 4.89074 21.8843 4.88978 21.7705C4.88988 21.6495 4.88998 21.5284 4.89008 21.4037C4.88934 21.2762 4.88861 21.1487 4.88785 21.0173C4.88577 20.5945 4.88535 20.1718 4.88511 19.749C4.88459 19.53 4.88406 19.311 4.88348 19.092C4.8817 18.4035 4.88116 17.7149 4.88132 17.0263C4.88145 16.3156 4.87914 15.6049 4.87569 14.8942C4.87283 14.2842 4.87165 13.6742 4.87179 13.0642C4.87185 12.6998 4.87102 12.3354 4.86891 11.971C4.86678 11.5648 4.86739 11.1587 4.86872 10.7525C4.86749 10.6315 4.86626 10.5104 4.86499 10.3857C4.86591 10.2753 4.86683 10.1649 4.86777 10.0511C4.86765 9.95509 4.86753 9.85903 4.86741 9.76006C4.92185 9.51562 4.92185 9.51562 5.12601 9.32069C5.42591 9.14951 5.63292 9.14587 5.97747 9.14504ZM6.23435 10.5C6.23435 14.1816 6.23435 17.8631 6.23435 21.6562C13.3448 21.6562 20.4553 21.6562 27.7812 21.6562C27.2369 21.2208 26.6786 20.8229 26.1064 20.4258C25.9964 20.3493 25.8864 20.2728 25.773 20.1939C24.8587 19.5607 23.9344 18.9434 23.0073 18.3292C22.3197 17.8726 21.6463 17.4027 20.9782 16.9181C20.4189 16.5187 19.8433 16.1432 19.2705 15.7637C18.4346 15.2098 17.6073 14.6477 16.7918 14.0642C16.0065 13.5055 15.2025 12.9748 14.3975 12.4448C13.7678 12.0287 13.1547 11.5988 12.5539 11.1418C10.4671 9.73891 9.58295 10.5 6.23435 10.5Z" fill="#E5E5E5" fill-opacity="0.5"/>
<path d="M12.7217 26.9814C13.2365 27.1647 13.3767 27.4182 13.686 27.8522C14.3558 28.6939 15.5084 29.1715 16.5566 29.292C17.1159 29.3294 17.6533 29.2761 18.2075 29.1989C18.4844 29.2031 18.4844 29.2031 18.6826 29.3467C18.8939 29.647 18.8661 29.8255 18.8125 30.1875C18.7257 30.3449 18.634 30.4997 18.5391 30.6523C18.2187 31.1936 18.1567 31.6472 18.2656 32.2656C18.5562 32.9525 19.151 33.2621 19.7969 33.5781C20.4833 33.8184 21.1417 33.8264 21.8669 33.8366C22.2031 33.9062 22.2031 33.9062 22.4146 34.1626C22.5312 34.4531 22.5312 34.4531 22.5039 34.8018C22.3125 35.1094 22.3125 35.1094 22.1121 35.1918C21.8515 35.2498 21.5926 35.2916 21.3281 35.3281C20.1804 35.5041 19.3046 36.0182 18.56 36.9162C18.1131 37.5716 17.9324 38.2483 17.8828 39.0332C17.8576 39.4159 17.8261 39.5978 17.6504 39.9492C17.3906 40.1406 17.3906 40.1406 17.0352 40.1611C16.5949 40.0217 16.3608 39.8435 16.0072 39.5596C14.5216 38.4935 12.4548 38.0845 10.6585 38.3355C9.84504 38.4826 9.12925 38.6926 8.38727 39.0588C8.02256 39.1799 7.80377 39.1558 7.4375 39.0469C7.21875 38.7188 7.21875 38.7188 7.21191 38.3701C7.34867 37.8794 7.55542 37.6652 7.8985 37.3024C8.5882 36.5101 8.68107 35.6453 8.67053 34.6287C8.59599 33.6459 8.11311 32.8576 7.4375 32.1562C7.27837 32.0386 7.11661 31.9245 6.95215 31.8145C6.60057 31.5694 6.57164 31.5449 6.48047 31.0967C6.5625 30.7344 6.5625 30.7344 6.74023 30.5156C7.16841 30.3353 7.49632 30.4653 7.92755 30.6011C8.81271 30.8707 9.55407 30.9353 10.418 30.5566C11.0837 30.1828 11.5129 29.6205 11.757 28.9023C11.823 28.6098 11.8421 28.3265 11.8604 28.0273C11.8878 27.6542 11.9065 27.4791 12.0996 27.1523C12.3594 27.0156 12.3594 27.0156 12.7217 26.9814ZM13.125 29.3125C13.0573 29.4531 13.0573 29.4531 12.9883 29.5966C12.3734 30.814 11.6784 31.5405 10.3906 32.0469C10.0622 32.1403 9.74319 32.2058 9.40625 32.2656C9.43558 32.3333 9.4649 32.401 9.49512 32.4707C9.83022 33.3525 10.0046 34.1219 9.9873 35.0684C9.98766 35.1656 9.98801 35.2629 9.98837 35.3632C9.98347 35.9698 9.90472 36.4958 9.73438 37.0781C9.82024 37.0606 9.9061 37.0432 9.99457 37.0251C11.9987 36.7398 13.8979 37.0544 15.75 37.8438C15.8353 37.8794 15.9206 37.9151 16.0085 37.9518C16.1782 38.0236 16.3471 38.0974 16.5156 38.1719C16.5475 38.0807 16.5794 37.9894 16.6122 37.8954C17.0438 36.7107 17.5658 35.8585 18.4844 35C18.5941 34.891 18.7036 34.7817 18.8125 34.6719C18.7491 34.6347 18.6856 34.5974 18.6202 34.5591C17.8106 34.0567 17.2084 33.4479 16.8937 32.5314C16.7826 31.9403 16.8211 31.3328 16.8438 30.7344C16.7169 30.7104 16.59 30.6864 16.4592 30.6617C15.2182 30.4146 14.1401 30.1081 13.125 29.3125Z" fill="#E5E5E5" fill-opacity="0.5"/>
<path d="M24.1104 25.8193C24.5784 25.9425 24.6628 26.0842 24.9375 26.4688C25.4914 26.8995 26.1014 26.9147 26.7764 26.8926C27.125 26.9063 27.125 26.9063 27.3369 27.0293C27.5064 27.3284 27.4883 27.5529 27.4531 27.8906C27.3809 27.9989 27.3088 28.1072 27.2344 28.2188C27.1706 28.4922 27.1706 28.4922 27.2344 28.7656C27.6384 29.1427 28.0963 29.143 28.6229 29.1694C28.875 29.2031 28.875 29.2031 29.2031 29.4219C29.3031 29.8134 29.332 30.0196 29.2031 30.4063C28.9227 30.5969 28.6775 30.6435 28.3418 30.7139C27.8476 30.8319 27.5894 31.0271 27.2344 31.3906C27.0538 31.7174 27.0128 31.9606 26.9678 32.334C26.9063 32.7031 26.9063 32.7031 26.7764 32.915C26.4632 33.0986 26.2816 33.0856 25.9219 33.0313C25.7271 32.9197 25.7271 32.9197 25.5186 32.7783C24.6261 32.1828 23.6821 32.0582 22.6406 32.2656C22.4438 32.3268 22.2478 32.3906 22.0527 32.457C21.6892 32.574 21.584 32.6042 21.2051 32.4981C21 32.2656 21 32.2656 20.9316 31.9033C21.0047 31.4724 21.1251 31.3363 21.4166 31.0258C21.6677 30.675 21.6813 30.2799 21.6563 29.8594C21.5109 29.4235 21.3128 29.182 20.9795 28.8818C20.6894 28.6091 20.674 28.5631 20.6172 28.1367C20.6719 27.7813 20.6719 27.7813 20.8906 27.5625C21.3095 27.5374 21.696 27.5676 22.1074 27.6377C22.5871 27.6764 22.7107 27.6394 23.0781 27.3438C23.2023 27.0307 23.2023 27.0307 23.2559 26.6807C23.3217 26.3282 23.3217 26.3282 23.4063 26.0313C23.7344 25.8125 23.7344 25.8125 24.1104 25.8193ZM24.3906 27.8906C24.3184 27.9899 24.2463 28.0891 24.1719 28.1914C23.8333 28.6032 23.452 28.7714 22.9688 28.9844C23.0048 29.5619 23.0409 30.1394 23.0781 30.7344C23.4808 30.7818 23.4808 30.7818 23.8916 30.8301C24.5428 30.9091 25.1752 31.0126 25.8125 31.1719C25.9049 31.036 25.9957 30.8991 26.0859 30.7617C26.1621 30.6475 26.1621 30.6475 26.2397 30.531C26.3926 30.2758 26.3926 30.2758 26.3594 29.8594C26.2579 29.7105 26.2579 29.7105 26.1543 29.5586C25.9293 29.2146 25.9051 29.13 25.8672 28.752C25.8356 28.5231 25.8356 28.5231 25.7031 28.3281C25.2812 28.1166 24.8492 27.9972 24.3906 27.8906Z" fill="#E5E5E5" fill-opacity="0.5"/>
</g>
<defs>
<clipPath id="clip0_3_174">
<rect width="56" height="56" fill="white"/>
</clipPath>
</defs>
</svg>
