<svg width="51" height="51" viewBox="0 0 51 51" fill="none" xmlns="http://www.w3.org/2000/svg">
<path d="M17.0843 0.00302574C17.1851 0.00202724 17.2858 0.00102875 17.3895 0C17.5524 0.000961807 17.5524 0.000961807 17.7186 0.00194304C17.8302 0.00163999 17.9418 0.00133693 18.0568 0.00102469C18.2929 0.000809055 18.529 0.00139411 18.7651 0.0027164C19.1271 0.00441116 19.4889 0.00273287 19.8509 0.000705683C20.08 0.000915002 20.3092 0.00132084 20.5384 0.00194304C20.647 0.00130184 20.7556 0.000660636 20.8674 0C21.0185 0.00149774 21.0185 0.00149774 21.1727 0.00302574C21.3056 0.00340376 21.3056 0.00340376 21.4413 0.00378942C21.7198 0.052866 21.8121 0.133549 21.9807 0.360778C22.016 0.600285 22.016 0.600285 22.0111 0.876758C22.0101 0.975777 22.0091 1.0748 22.0081 1.17682C22.0055 1.27992 22.0028 1.38302 22.0002 1.48925C21.9988 1.59358 21.9974 1.69791 21.9959 1.8054C21.9922 2.06303 21.9871 2.32055 21.9807 2.57813C22.1197 2.57481 22.1197 2.57481 22.2614 2.57143C22.6053 2.56423 22.9491 2.55893 23.293 2.55493C23.4418 2.55281 23.5906 2.54992 23.7394 2.54627C23.9533 2.54114 24.1672 2.53875 24.3812 2.53688C24.5099 2.53467 24.6387 2.53246 24.7713 2.53018C25.0922 2.57813 25.0922 2.57813 25.2666 2.73126C25.4741 3.13965 25.4364 3.52502 25.4228 3.97717C25.4214 4.06592 25.42 4.15466 25.4186 4.24609C25.4149 4.46445 25.4093 4.68277 25.4034 4.90107C25.52 4.90013 25.6366 4.89919 25.7568 4.89823C26.8571 4.88966 27.9573 4.88333 29.0576 4.87919C29.6232 4.87698 30.1888 4.874 30.7544 4.86921C31.3005 4.86461 31.8465 4.86209 32.3926 4.861C32.6007 4.86022 32.8088 4.8587 33.017 4.85641C33.3089 4.85334 33.6008 4.85293 33.8928 4.85312C33.9785 4.8516 34.0641 4.85008 34.1523 4.84852C34.7424 4.85278 35.0807 4.98078 35.5677 5.32342C36.0964 5.89074 36.2212 6.40627 36.2149 7.17234C36.2152 7.29073 36.2152 7.29073 36.2154 7.41151C36.2158 7.67545 36.2147 7.93936 36.2135 8.2033C36.2135 8.39271 36.2135 8.58212 36.2136 8.77152C36.2137 9.28546 36.2124 9.79938 36.211 10.3133C36.2097 10.8505 36.2096 11.3877 36.2093 11.9249C36.2087 12.942 36.207 13.9591 36.2049 14.9763C36.2026 16.1343 36.2014 17.2923 36.2004 18.4503C36.1982 20.8323 36.1946 23.2143 36.19 25.5964C36.2692 25.6261 36.3483 25.6559 36.4299 25.6866C37.9029 26.326 38.9972 28.1823 39.5916 29.6197C40.5107 31.9766 40.3461 34.3719 39.4867 36.7048C39.4052 36.8943 39.4052 36.8943 39.2168 37.1859C39.0655 37.4122 39.0655 37.4122 39.1516 37.6384C39.3271 37.8798 39.5173 38.0844 39.7293 38.2933C39.8045 38.3679 39.8796 38.4425 39.957 38.5194C40.0145 38.5754 40.072 38.6315 40.1312 38.6893C40.2339 38.6544 40.3366 38.6196 40.4424 38.5837C40.8133 38.5178 41.0591 38.5068 41.3761 38.73C41.6118 38.9476 41.833 39.1746 42.0532 39.4086C42.1769 39.5357 42.1769 39.5357 42.303 39.6653C42.5661 39.9366 42.8266 40.2104 43.0872 40.4843C43.2624 40.6655 43.4378 40.8466 43.6134 41.0275C44.8817 42.3394 44.8817 42.3394 45.3775 42.9234C45.7276 43.3355 46.099 43.7206 46.4798 44.1032C46.5476 44.1718 46.6154 44.2404 46.6853 44.3111C46.8988 44.5272 47.1127 44.7429 47.3266 44.9586C47.6108 45.2451 47.8946 45.5319 48.1782 45.819C48.2761 45.9173 48.2761 45.9173 48.3759 46.0176C48.9195 46.5678 48.9195 46.5678 49 46.9927C48.9188 47.5381 48.5865 47.7953 48.2058 48.1679C48.1303 48.2441 48.0548 48.3203 47.977 48.3988C47.7357 48.6416 47.4923 48.8821 47.2488 49.1227C47.0855 49.2867 46.9224 49.4508 46.7594 49.615C46.4611 49.9142 46.1627 50.2132 45.8623 50.5101C45.8019 50.5699 45.7416 50.6296 45.6794 50.6912C45.4526 50.8973 45.3038 50.9401 45.0007 51C44.3685 50.9036 44.0697 50.5004 43.6382 50.0433C43.5488 49.9516 43.4595 49.8598 43.3674 49.7653C43.0821 49.4714 42.7994 49.175 42.5167 48.8785C42.3265 48.6821 42.136 48.4857 41.9455 48.2896C41.2418 47.5626 40.5421 46.838 39.8867 46.0654C39.6161 45.7539 39.3274 45.4623 39.0365 45.1706C38.9756 45.109 38.9147 45.0474 38.852 44.984C38.6607 44.7905 38.469 44.5973 38.2773 44.4042C38.0223 44.1475 37.7676 43.8903 37.5132 43.633C37.4255 43.545 37.4255 43.545 37.3361 43.4553C36.8148 42.928 36.8148 42.928 36.8058 42.4971C36.8079 42.3903 36.8101 42.2836 36.8123 42.1737C36.8476 41.831 36.8476 41.831 36.553 41.5732C36.4246 41.4523 36.4246 41.4523 36.2937 41.329C36.2933 41.3946 36.2929 41.4602 36.2925 41.5277C36.2882 42.213 36.281 42.8981 36.2722 43.5833C36.2692 43.8387 36.267 44.0941 36.2656 44.3495C36.2633 44.7176 36.2585 45.0855 36.2532 45.4535C36.253 45.567 36.2529 45.6804 36.2528 45.7973C36.2382 46.5645 36.1393 47.1831 35.5867 47.753C35.5269 47.7912 35.4672 47.8295 35.4056 47.8689C35.3456 47.909 35.2855 47.9492 35.2237 47.9905C34.8795 48.18 34.5961 48.2057 34.2128 48.2067C34.049 48.2075 34.049 48.2075 33.8818 48.2083C33.7614 48.2084 33.641 48.2084 33.517 48.2085C33.3256 48.2092 33.3256 48.2092 33.1303 48.2099C32.7755 48.211 32.4207 48.2117 32.0659 48.2122C31.6834 48.2128 31.301 48.2141 30.9186 48.2152C29.9947 48.2178 29.0707 48.2193 28.1468 48.2207C27.8859 48.2211 27.625 48.2215 27.364 48.2219C25.7439 48.2246 24.1237 48.2269 22.5035 48.2282C22.1282 48.2286 21.7529 48.2289 21.3776 48.2292C21.2843 48.2293 21.191 48.2293 21.0949 48.2294C19.5838 48.2308 18.0726 48.2343 16.5615 48.2387C15.0102 48.2431 13.4589 48.2456 11.9076 48.2462C11.0365 48.2465 10.1654 48.2478 9.29438 48.2513C8.55255 48.2542 7.81074 48.2554 7.0689 48.2542C6.69047 48.2537 6.31209 48.254 5.93366 48.2566C5.52314 48.2594 5.11268 48.2581 4.70216 48.2564C4.58291 48.2579 4.46366 48.2593 4.34081 48.2609C3.62938 48.2537 3.12785 48.1543 2.58561 47.6643C2.16652 47.1173 2.05416 46.7298 2.05281 46.0458C2.05253 45.9774 2.05226 45.909 2.05198 45.8386C2.05118 45.6078 2.05112 45.3771 2.05106 45.1463C2.05064 44.9798 2.05018 44.8134 2.04968 44.6469C2.04844 44.1881 2.04785 43.7294 2.04738 43.2707C2.04676 42.7764 2.04556 42.2821 2.04445 41.7878C2.0419 40.5936 2.04038 39.3993 2.03905 38.205C2.03866 37.8678 2.03825 37.5306 2.03783 37.1934C2.03521 35.1001 2.03292 33.0068 2.03163 30.9135C2.03133 30.4285 2.03102 29.9435 2.03071 29.4585C2.03063 29.338 2.03055 29.2175 2.03047 29.0933C2.02916 27.1401 2.02572 25.1869 2.0214 23.2336C2.017 21.2291 2.01455 19.2246 2.01401 17.2201C2.01365 16.0943 2.01243 14.9685 2.00902 13.8427C2.00612 12.8841 2.00497 11.9254 2.00614 10.9667C2.00667 10.4776 2.00637 9.98841 2.00381 9.49923C2.00148 9.05129 2.00155 8.60342 2.00352 8.15549C2.00381 7.99355 2.00322 7.8316 2.00167 7.66967C1.99397 6.81529 1.98826 6.08977 2.58561 5.42901C3.13956 4.90535 3.58787 4.88591 4.31707 4.88908C4.40917 4.88907 4.50127 4.88905 4.59617 4.88904C4.9009 4.88911 5.20562 4.88993 5.51035 4.89076C5.72151 4.89095 5.93268 4.89111 6.14384 4.89121C6.69987 4.89161 7.2559 4.89265 7.81193 4.89382C8.37921 4.8949 8.9465 4.89538 9.51379 4.89591C10.6271 4.89705 11.7403 4.89885 12.8536 4.90107C12.852 4.84196 12.8503 4.78284 12.8487 4.72194C12.8422 4.45389 12.8382 4.18587 12.8342 3.91778C12.8316 3.82475 12.8289 3.73172 12.8263 3.63587C12.8253 3.54638 12.8243 3.45688 12.8232 3.36468C12.8216 3.28229 12.82 3.1999 12.8183 3.11502C12.8631 2.83602 12.9438 2.74507 13.1648 2.57813C13.4857 2.54217 13.4857 2.54217 13.8758 2.5472C13.9444 2.54764 14.013 2.54809 14.0837 2.54855C14.3025 2.55032 14.5212 2.5543 14.74 2.55833C14.8884 2.55992 15.0369 2.56137 15.1854 2.56266C15.5491 2.56615 15.9127 2.57162 16.2763 2.57813C16.2738 2.47986 16.2738 2.47986 16.2713 2.37961C16.2649 2.08283 16.2608 1.78607 16.2568 1.48925C16.2542 1.38615 16.2516 1.28305 16.2489 1.17682C16.2474 1.02829 16.2474 1.02829 16.2459 0.876758C16.2434 0.739903 16.2434 0.739903 16.2409 0.600285C16.3158 0.0926698 16.6229 0.0043375 17.0843 0.00302574ZM17.6246 1.31107C17.6246 1.7292 17.6246 2.14733 17.6246 2.57813C18.6172 2.57813 19.6097 2.57813 20.6324 2.57813C20.6324 2.16 20.6324 1.74187 20.6324 1.31107C19.6398 1.31107 18.6472 1.31107 17.6246 1.31107ZM14.2019 3.95078C14.2019 4.9961 14.2019 6.04142 14.2019 7.11842C17.4535 7.11842 20.705 7.11842 24.0551 7.11842C24.0551 6.0731 24.0551 5.02778 24.0551 3.95078C20.8035 3.95078 17.552 3.95078 14.2019 3.95078ZM3.54937 6.39314C3.35378 6.68113 3.37633 6.90361 3.37619 7.2519C3.37574 7.31956 3.37528 7.38721 3.37482 7.45692C3.37368 7.68519 3.37476 7.9134 3.37583 8.14167C3.37547 8.30635 3.37498 8.47102 3.37436 8.6357C3.37306 9.08944 3.37371 9.54317 3.37467 9.99691C3.37537 10.4858 3.37429 10.9746 3.37343 11.4635C3.37204 12.4217 3.37235 13.3798 3.37325 14.338C3.37395 15.1165 3.37405 15.8949 3.37371 16.6734C3.37366 16.784 3.37361 16.8946 3.37356 17.0086C3.37346 17.2334 3.37336 17.4581 3.37326 17.6828C3.37237 19.792 3.37339 21.9011 3.37506 24.0103C3.37645 25.8215 3.37621 27.6327 3.37478 29.4439C3.37311 31.5453 3.37246 33.6467 3.37341 35.7482C3.37351 35.9721 3.37361 36.196 3.37371 36.4199C3.37375 36.5301 3.3738 36.6403 3.37385 36.7538C3.37412 37.5317 3.37367 38.3095 3.37293 39.0874C3.37206 40.0349 3.37229 40.9823 3.37395 41.9298C3.37477 42.4136 3.37509 42.8973 3.37406 43.3811C3.37314 43.8234 3.37364 44.2658 3.3753 44.7081C3.37565 44.8686 3.37547 45.0292 3.37472 45.1897C3.37378 45.4069 3.37474 45.6241 3.37619 45.8414C3.37624 45.9623 3.37629 46.0833 3.37634 46.2079C3.39397 46.5 3.39397 46.5 3.54096 46.7C3.78794 46.8592 3.95309 46.8594 4.24499 46.8597C4.40658 46.8611 4.40658 46.8611 4.57144 46.8624C4.74955 46.8615 4.74955 46.8615 4.93126 46.8605C5.05709 46.8611 5.18293 46.8616 5.31258 46.8622C5.66251 46.8635 6.01238 46.8633 6.36231 46.8625C6.73943 46.862 7.11655 46.8634 7.49367 46.8644C8.23269 46.8663 8.97171 46.8663 9.71074 46.8658C10.3112 46.8654 10.9117 46.8655 11.5121 46.8661C11.5975 46.8662 11.6828 46.8662 11.7708 46.8663C11.9442 46.8665 12.1176 46.8666 12.291 46.8668C13.918 46.8683 15.5451 46.8677 17.1721 46.8665C18.6619 46.8654 20.1516 46.8668 21.6413 46.8693C23.1697 46.8719 24.6981 46.8729 26.2266 46.8722C27.0852 46.8718 27.9437 46.8721 28.8023 46.8739C29.5332 46.8755 30.264 46.8755 30.9948 46.8737C31.3679 46.8728 31.741 46.8726 32.1141 46.8742C32.518 46.8759 32.9218 46.8744 33.3257 46.8725C33.4445 46.8735 33.5632 46.8745 33.6855 46.8756C33.7933 46.8745 33.901 46.8735 34.012 46.8724C34.1519 46.8724 34.1519 46.8724 34.2947 46.8724C34.5467 46.8395 34.5467 46.8395 34.7161 46.6203C34.8664 46.3532 34.8793 46.1905 34.877 45.884C34.8769 45.7826 34.8769 45.6812 34.8769 45.5766C34.8753 45.468 34.8737 45.3593 34.872 45.2473C34.8716 45.1354 34.8711 45.0235 34.8707 44.9082C34.869 44.551 34.865 44.1939 34.8611 43.8367C34.8595 43.5945 34.8581 43.3522 34.8568 43.11C34.8534 42.5163 34.8482 41.9226 34.8416 41.329C34.7645 41.3505 34.6873 41.372 34.6078 41.3941C34.5059 41.4224 34.4041 41.4508 34.2992 41.4799C34.1985 41.508 34.0978 41.536 33.994 41.5649C31.6524 42.2108 29.1596 42.0493 27.024 40.8208C25.0455 39.6245 23.5483 37.7983 22.9142 35.5216C22.3518 33.0216 22.5949 30.6051 23.8541 28.3478C25.1063 26.3354 26.9731 24.9405 29.2409 24.3763C31.0335 23.9704 32.6729 24.1431 34.4268 24.6461C34.565 24.6816 34.7032 24.7169 34.8416 24.7516C34.8489 22.4048 34.8544 20.0579 34.8578 17.7111C34.8594 16.6214 34.8616 15.5318 34.8651 14.4421C34.8682 13.4925 34.8702 12.5429 34.8709 11.5934C34.8713 11.0904 34.8723 10.5875 34.8745 10.0845C34.8766 9.61135 34.8773 9.13818 34.8768 8.66498C34.8769 8.49114 34.8775 8.31731 34.8787 8.14347C34.8803 7.90639 34.8799 7.6694 34.8791 7.43232C34.8793 7.29956 34.8796 7.1668 34.8799 7.03002C34.8387 6.67032 34.7893 6.51949 34.5305 6.27372C34.2264 6.23348 33.9614 6.22029 33.6573 6.22577C33.5683 6.22571 33.4792 6.22564 33.3874 6.22558C33.0928 6.22588 32.7982 6.22916 32.5036 6.23247C32.2994 6.23326 32.0952 6.23386 31.891 6.23428C31.3534 6.23589 30.8158 6.24004 30.2781 6.24472C29.7296 6.24903 29.1811 6.25096 28.6326 6.25309C27.5562 6.25762 26.4798 6.26483 25.4034 6.27372C25.3958 6.46257 25.3958 6.46257 25.388 6.65524C25.3802 6.82063 25.3724 6.98603 25.3645 7.15142C25.3613 7.23438 25.3581 7.31734 25.3548 7.40281C25.3487 7.52275 25.3487 7.52275 25.3426 7.64512C25.3394 7.71867 25.3361 7.79221 25.3327 7.86798C25.2997 8.06871 25.2997 8.06871 25.0922 8.38548C24.881 8.42505 24.881 8.42505 24.6159 8.42499C24.5155 8.42573 24.4152 8.42647 24.3118 8.42724C24.1461 8.42603 24.1461 8.42603 23.9771 8.42479C23.803 8.42537 23.803 8.42537 23.6255 8.42596C23.2403 8.42682 22.8553 8.42538 22.4701 8.42384C22.2035 8.42378 21.9369 8.42384 21.6703 8.424C21.1108 8.42399 20.5514 8.42292 19.992 8.42098C19.3448 8.41874 18.6975 8.41837 18.0503 8.41903C17.4283 8.41963 16.8063 8.41902 16.1843 8.41785C15.9193 8.41744 15.6543 8.41732 15.3893 8.41749C15.0195 8.41753 14.6497 8.4162 14.2799 8.41448C14.1142 8.41487 14.1142 8.41487 13.9452 8.41527C13.8448 8.41452 13.7445 8.41378 13.6411 8.41301C13.5099 8.41268 13.5099 8.41268 13.376 8.41235C13.1648 8.38548 13.1648 8.38548 12.9573 8.1743C12.9243 7.97586 12.9243 7.97586 12.9144 7.73793C12.9104 7.65286 12.9064 7.56779 12.9022 7.48014C12.899 7.39126 12.8958 7.30238 12.8925 7.21081C12.8885 7.12111 12.8845 7.03142 12.8803 6.939C12.8706 6.71728 12.862 6.4955 12.8536 6.27372C11.669 6.26638 10.4843 6.26075 9.29964 6.2573C8.74958 6.25565 8.19954 6.2534 7.64949 6.24982C7.11889 6.24638 6.58831 6.24448 6.05771 6.24366C5.85504 6.24308 5.65236 6.24193 5.4497 6.24022C5.16633 6.23793 4.88303 6.23761 4.59966 6.23775C4.51543 6.23662 4.4312 6.23548 4.34443 6.2343C3.92519 6.22913 3.9252 6.22913 3.54937 6.39314ZM26.1002 27.6227C24.5605 29.242 23.8476 31.1584 23.8476 33.4099C24.0057 35.6578 25.0163 37.4127 26.586 38.9302C28.0575 40.2263 30.0741 40.8059 31.9975 40.6691C34.0866 40.4067 35.8312 39.4459 37.2097 37.8264C38.4488 36.1809 39.0679 34.1798 38.8218 32.1098C38.5863 30.442 37.8953 29.0741 36.8123 27.8137C36.7548 27.7463 36.6973 27.679 36.6381 27.6095C35.3658 26.2183 33.4629 25.4963 31.6319 25.3928C29.5551 25.3184 27.5706 26.1443 26.1002 27.6227ZM38.0569 38.7949C37.8803 38.9767 37.8803 38.9767 37.7003 39.204C37.4777 39.4772 37.3135 39.6514 37.0197 39.8508C37.1658 40.1902 37.3416 40.4127 37.6031 40.6691C37.6686 40.7339 37.7341 40.7986 37.8016 40.8654C37.8516 40.9138 37.9016 40.9623 37.9532 41.0122C38.4226 40.6238 38.8238 40.2297 39.1978 39.7452C39.0471 39.5862 38.8957 39.4279 38.744 39.27C38.6598 39.1818 38.5755 39.0936 38.4888 39.0028C38.2893 38.7712 38.2893 38.7712 38.0569 38.7949ZM40.4263 40.4767C40.3362 40.5695 40.246 40.6624 40.1531 40.7582C40.105 40.8074 40.057 40.8566 40.0075 40.9073C39.8538 41.065 39.7008 41.2234 39.5478 41.3818C39.4439 41.4887 39.3399 41.5955 39.2358 41.7023C38.9806 41.9644 38.726 42.2273 38.4717 42.4905C38.9522 43.0749 39.4616 43.6117 39.9965 44.1442C40.3033 44.4524 40.598 44.7645 40.878 45.0982C41.2787 45.5668 41.7042 46.0058 42.1371 46.4434C42.2166 46.5242 42.2962 46.6051 42.3781 46.6884C42.6294 46.9435 42.8809 47.1983 43.1325 47.4531C43.3041 47.6273 43.4757 47.8015 43.6473 47.9757C44.0653 48.4001 44.4836 48.8242 44.9022 49.2481C45.2677 49.073 45.5037 48.8715 45.7887 48.5775C45.8762 48.4876 45.9638 48.3978 46.054 48.3052C46.1445 48.2113 46.2351 48.1174 46.3283 48.0206C46.4204 47.9259 46.5126 47.8312 46.6075 47.7336C46.8347 47.4998 47.0614 47.2655 47.2877 47.0308C46.7876 46.4213 46.253 45.8643 45.6961 45.309C45.631 45.2436 45.566 45.1782 45.499 45.1108C45.4129 45.0249 45.4129 45.0249 45.325 44.9374C45.1346 44.7344 44.9546 44.5268 44.7745 44.3145C44.3831 43.8566 43.9698 43.4248 43.5486 42.9953C43.4719 42.9168 43.3951 42.8383 43.316 42.7575C43.1554 42.5934 42.9946 42.4294 42.8336 42.2656C42.5864 42.0136 42.3399 41.7608 42.0935 41.508C41.9369 41.3482 41.7801 41.1884 41.6234 41.0287C41.5496 40.9528 41.4758 40.877 41.3998 40.7988C41.3315 40.7296 41.2633 40.6605 41.193 40.5893C41.133 40.528 41.073 40.4668 41.0112 40.4037C40.7489 40.1812 40.6743 40.2508 40.4263 40.4767Z" fill="#E5E5E5" fill-opacity="0.5"/>
<path d="M14.0574 11.9998C14.2241 11.9995 14.3907 11.9992 14.5574 11.9987C14.9057 11.9981 15.254 11.9989 15.6023 12.0008C16.0471 12.0031 16.4918 12.0017 16.9366 11.9994C17.2805 11.9979 17.6243 11.9984 17.9682 11.9994C18.1321 11.9997 18.2961 11.9994 18.46 11.9984C20.0348 11.9914 20.0348 11.9914 20.7187 12.4512C20.834 12.5246 20.834 12.5246 20.9517 12.5995C21.0448 12.6682 21.0448 12.6682 21.1398 12.7383C21.211 12.7904 21.2822 12.8425 21.3556 12.8961C21.429 12.9506 21.5023 13.0051 21.5779 13.0613C21.7353 13.1766 21.8928 13.2919 22.0502 13.4072C22.1278 13.4642 22.2053 13.5212 22.2852 13.58C22.6162 13.8227 22.9496 14.0617 23.2837 14.3002C23.39 14.3763 23.4963 14.4525 23.6059 14.5309C23.705 14.6006 23.8041 14.6704 23.9062 14.7422C23.9866 14.8113 24.067 14.8805 24.1498 14.9517C24.6142 15.258 25.1527 15.1928 25.6891 15.1873C25.8608 15.1884 25.8608 15.1884 26.0359 15.1894C26.5241 15.1924 27.0122 15.1907 27.5004 15.1895C27.8574 15.1893 28.2145 15.1914 28.5715 15.1935C28.681 15.1924 28.7905 15.1913 28.9033 15.1901C29.7091 15.1954 30.2306 15.3527 30.854 15.8628C31.4853 16.6343 31.5429 17.3178 31.534 18.2856C31.5326 18.4969 31.536 18.7077 31.5398 18.919C31.5399 19.0544 31.5397 19.1899 31.5392 19.3254C31.5393 19.5079 31.5393 19.5079 31.5394 19.6941C31.4569 20.1241 31.3345 20.2674 30.9785 20.5195C30.694 20.5633 30.4715 20.5783 30.189 20.5682C30.0773 20.5671 30.0773 20.5671 29.9634 20.566C29.7268 20.5633 29.4905 20.557 29.254 20.5507C29.0931 20.5482 28.9322 20.5459 28.7714 20.5438C28.3781 20.5384 27.985 20.5298 27.5918 20.5195C27.5776 20.6138 27.5634 20.708 27.5488 20.8051C27.4324 21.4467 26.9812 21.8796 26.465 22.2502C25.7188 22.7082 24.9576 22.809 24.1055 22.6113C23.34 22.3523 22.7515 21.8989 22.3125 21.2168C22.2139 20.8716 22.2139 20.8716 22.1133 20.5195C19.7466 20.5195 17.3798 20.5195 14.9414 20.5195C14.9085 20.6839 14.8757 20.8482 14.8418 21.0176C14.4706 21.7799 13.9206 22.2911 13.1294 22.5958C12.3985 22.7945 11.6065 22.758 10.9197 22.4308C10.7978 22.3607 10.6773 22.2883 10.5586 22.2129C10.4723 22.1595 10.386 22.1061 10.2971 22.051C9.93939 21.6933 9.69111 21.2685 9.46289 20.8184C9.46289 20.7526 9.46289 20.6869 9.46289 20.6191C9.37635 20.6226 9.2898 20.6261 9.20064 20.6296C8.02752 20.6572 8.02752 20.6572 7.57031 20.3203C7.14256 19.8483 7.1548 19.3743 7.15164 18.7651C7.15107 18.6807 7.15051 18.5963 7.14992 18.5094C7.14898 18.3308 7.14833 18.1522 7.14795 17.9736C7.14698 17.7014 7.14389 17.4293 7.14075 17.1571C7.1401 16.9834 7.13957 16.8097 7.13919 16.6359C7.13796 16.555 7.13673 16.474 7.13546 16.3906C7.1377 15.8163 7.25126 15.4275 7.60762 14.9617C7.82205 14.8029 8.00685 14.7674 8.26836 14.7169C9.72767 14.4439 9.72767 14.4439 10.8014 13.5002C10.8528 13.417 10.9041 13.3338 10.957 13.248C11.0572 13.1018 11.1588 12.9564 11.2621 12.8123C11.3002 12.7519 11.3384 12.6916 11.3776 12.6294C12.1161 11.886 13.0897 11.9943 14.0574 11.9998ZM11.9905 13.9515C11.9434 14.0108 11.8964 14.07 11.8479 14.1311C11.6551 14.3744 11.4699 14.6222 11.2874 14.8733C10.8826 15.4043 10.5121 15.4834 9.86133 15.6387C9.40113 15.7702 8.94094 15.9016 8.4668 16.0371C8.4668 17.1219 8.4668 18.2066 8.4668 19.3242C8.76264 19.3242 9.05848 19.3242 9.36328 19.3242C9.40065 19.2437 9.43801 19.1632 9.47651 19.0803C9.88133 18.2349 10.2633 17.6136 11.1562 17.2324C11.9413 16.9707 12.6872 17.0011 13.4547 17.3176C14.1221 17.6724 14.5076 18.1698 14.8418 18.8262C14.8911 19.0234 14.8911 19.0234 14.9414 19.2246C17.3081 19.2246 19.6748 19.2246 22.1133 19.2246C22.3105 18.8302 22.5077 18.4357 22.7109 18.0293C23.294 17.4251 23.9188 17.1 24.7642 17.034C25.5951 17.0313 26.2748 17.2708 26.8945 17.8301C27.255 18.2685 27.4804 18.6971 27.6914 19.2246C28.5461 19.2246 29.4007 19.2246 30.2812 19.2246C30.2854 18.974 30.2895 18.7233 30.2937 18.4651C30.2955 18.3873 30.2973 18.3096 30.2992 18.2294C30.3037 17.6627 30.2327 17.2417 29.8923 16.7705C29.4413 16.4262 29.0587 16.4678 28.5056 16.4758C28.3425 16.4752 28.3425 16.4752 28.1761 16.4746C27.94 16.474 27.704 16.4746 27.4679 16.4762C27.0934 16.4788 26.719 16.4783 26.3445 16.477C25.6159 16.4751 24.8873 16.4765 24.1586 16.4786C23.1709 16.4813 22.1833 16.4819 21.1956 16.4791C20.8283 16.4787 20.4611 16.4808 20.0938 16.4831C17.8724 16.486 16.5518 15.9692 14.869 14.5231C14.5542 14.2531 14.2381 13.9865 13.9142 13.7274C13.8242 13.6541 13.7342 13.5808 13.6414 13.5052C12.9173 13.1168 12.4641 13.3059 11.9905 13.9515ZM15.5391 13.3477C16.8266 14.6675 16.8266 14.6675 18.5235 15.2522C18.5916 15.252 18.6598 15.2518 18.73 15.2515C18.8077 15.2515 18.8855 15.2515 18.9656 15.2515C19.0485 15.251 19.1314 15.2505 19.2168 15.25C19.3025 15.2498 19.3882 15.2497 19.4764 15.2495C19.7494 15.249 20.0224 15.2477 20.2954 15.2465C20.4808 15.246 20.6661 15.2455 20.8514 15.2451C21.3053 15.244 21.7591 15.2423 22.2129 15.2402C21.9631 14.981 21.7146 14.7573 21.4191 14.5519C21.3458 14.5006 21.2725 14.4493 21.197 14.3965C21.1213 14.3441 21.0457 14.2918 20.9678 14.2379C20.8173 14.133 20.6668 14.0281 20.5164 13.9231C20.4169 13.8542 20.4169 13.8542 20.3154 13.7838C20.1211 13.6465 20.1211 13.6465 19.9568 13.4816C19.5791 13.2655 19.1956 13.3111 18.7686 13.3185C18.6763 13.3189 18.584 13.3193 18.4889 13.3198C18.1946 13.3214 17.9003 13.3252 17.606 13.329C17.4062 13.3305 17.2065 13.3318 17.0067 13.3331C16.5175 13.3364 16.0283 13.3415 15.5391 13.3477ZM11.0753 18.7701C10.7209 19.1853 10.6103 19.45 10.6271 20.0125C10.7024 20.5164 10.9552 20.8323 11.3368 21.1545C11.8322 21.4071 12.2306 21.4781 12.7625 21.3102C13.185 21.1321 13.3887 20.8946 13.6465 20.5195C13.7986 20.0632 13.8433 19.6504 13.6523 19.2052C13.331 18.6592 13.0359 18.4022 12.4138 18.241C11.8472 18.2214 11.4988 18.4032 11.0753 18.7701ZM23.8257 18.6713C23.4619 19.0465 23.3148 19.3861 23.2926 19.9086C23.3304 20.4113 23.5792 20.7142 23.9312 21.0487C24.2819 21.3281 24.5442 21.424 25.002 21.416C25.6216 21.2904 25.9384 21.0301 26.2969 20.5195C26.4819 20.1495 26.4406 19.728 26.3965 19.3242C26.1629 18.8391 25.8718 18.5827 25.4004 18.3281C24.8081 18.135 24.3032 18.2897 23.8257 18.6713Z" fill="#E5E5E5" fill-opacity="0.5"/>
<path d="M7.21826 32.0363C7.33139 32.0354 7.44451 32.0346 7.56107 32.0337C7.68527 32.0343 7.80947 32.0349 7.93743 32.0356C8.13351 32.0348 8.13351 32.0348 8.33356 32.034C8.69227 32.0326 9.05096 32.0331 9.40968 32.0341C9.78483 32.0348 10.16 32.0341 10.5351 32.0337C11.1652 32.0331 11.7952 32.0338 12.4252 32.0353C13.154 32.0369 13.8827 32.0364 14.6114 32.0347C15.2367 32.0334 15.862 32.0332 16.4874 32.034C16.861 32.0344 17.2346 32.0345 17.6083 32.0335C18.0247 32.0325 18.4411 32.0339 18.8575 32.0356C18.9817 32.035 19.1059 32.0343 19.2339 32.0337C19.4035 32.035 19.4035 32.035 19.5767 32.0363C19.6752 32.0364 19.7737 32.0365 19.8751 32.0366C20.1211 32.0742 20.1211 32.0742 20.3018 32.2042C20.502 32.4904 20.4619 32.7346 20.4199 33.0703C20.2057 33.286 20.0685 33.3622 19.7667 33.4067C19.6699 33.4069 19.573 33.407 19.4733 33.4071C19.3619 33.4079 19.2504 33.4088 19.1356 33.4096C19.0138 33.409 18.892 33.4084 18.7664 33.4078C18.6378 33.4083 18.5092 33.4089 18.3766 33.4094C18.0241 33.4108 17.6716 33.4102 17.319 33.4093C16.95 33.4085 16.5811 33.4092 16.2121 33.4097C15.5924 33.4102 14.9728 33.4095 14.3531 33.4081C13.6368 33.4065 12.9205 33.407 12.2042 33.4086C11.5891 33.41 10.974 33.4102 10.3589 33.4094C9.99154 33.4089 9.62421 33.4089 9.25687 33.4099C8.84739 33.4109 8.43795 33.4095 8.02848 33.4078C7.90666 33.4084 7.78483 33.409 7.65932 33.4096C7.54788 33.4088 7.43644 33.408 7.32162 33.4071C7.22481 33.407 7.12799 33.4069 7.02825 33.4067C6.72642 33.3622 6.5892 33.286 6.375 33.0703C6.30105 32.4788 6.30105 32.4788 6.49311 32.2042C6.74238 32.0249 6.91246 32.0366 7.21826 32.0363Z" fill="#E5E5E5" fill-opacity="0.5"/>
<path d="M7.32162 27.9403C7.43306 27.9393 7.5445 27.9384 7.65932 27.9373C7.78114 27.9383 7.90297 27.9393 8.02848 27.9403C8.15711 27.9397 8.28575 27.9392 8.41828 27.9386C8.77083 27.9372 9.12333 27.9384 9.47588 27.94C9.84487 27.9414 10.2139 27.9407 10.5829 27.9404C11.2025 27.9401 11.8221 27.9415 12.4418 27.9438C13.1581 27.9464 13.8744 27.9466 14.5908 27.9454C15.2799 27.9443 15.9691 27.945 16.6583 27.9464C16.9515 27.9469 17.2448 27.9469 17.5381 27.9465C17.9475 27.9459 18.357 27.9478 18.7664 27.95C18.8883 27.9495 19.0101 27.9491 19.1356 27.9486C19.3028 27.9501 19.3028 27.9501 19.4733 27.9516C19.6185 27.952 19.6185 27.952 19.7667 27.9524C20.0684 27.9972 20.2058 28.0735 20.4199 28.2891C20.4939 28.8806 20.4939 28.8806 20.3018 29.1552C20.0525 29.3345 19.8825 29.3228 19.5767 29.3231C19.407 29.3244 19.407 29.3244 19.2339 29.3257C19.1097 29.3251 18.9855 29.3245 18.8575 29.3238C18.6614 29.3246 18.6614 29.3246 18.4614 29.3254C18.1026 29.3268 17.744 29.3262 17.3852 29.3253C17.0101 29.3245 16.6349 29.3252 16.2598 29.3257C15.6297 29.3263 14.9997 29.3255 14.3697 29.3241C13.6409 29.3225 12.9122 29.323 12.1835 29.3247C11.5582 29.326 10.9329 29.3262 10.3075 29.3254C9.93392 29.325 9.5603 29.3249 9.18667 29.3259C8.77024 29.3269 8.35385 29.3255 7.93743 29.3238C7.81323 29.3244 7.68903 29.325 7.56107 29.3257C7.44794 29.3248 7.33482 29.324 7.21826 29.3231C7.11976 29.323 7.02126 29.3229 6.91978 29.3228C6.67383 29.2852 6.67383 29.2852 6.49311 29.1517C6.3063 28.8902 6.33047 28.7004 6.375 28.3887C6.66514 28.0164 6.85549 27.9404 7.32162 27.9403Z" fill="#E5E5E5" fill-opacity="0.5"/>
<path d="M7.40169 40.1293C7.51132 40.1288 7.62095 40.1284 7.7339 40.128C7.91437 40.128 7.91437 40.128 8.09849 40.1281C8.22517 40.1278 8.35184 40.1274 8.48236 40.1271C8.82996 40.1262 9.17756 40.126 9.52516 40.1259C9.81528 40.1258 10.1054 40.1255 10.3955 40.1251C11.0799 40.1243 11.7644 40.124 12.4488 40.1241C13.155 40.1242 13.8612 40.1231 14.5674 40.1216C15.1736 40.1203 15.7798 40.1197 16.386 40.1198C16.7481 40.1198 17.1102 40.1195 17.4723 40.1185C17.876 40.1173 18.2798 40.1178 18.6835 40.1184C18.8037 40.1178 18.9238 40.1173 19.0475 40.1167C19.2124 40.1173 19.2124 40.1173 19.3806 40.118C19.4761 40.1179 19.5715 40.1178 19.6699 40.1178C19.9356 40.1439 20.0967 40.1978 20.3203 40.3418C20.4597 40.6206 20.4451 40.8304 20.4199 41.1387C20.303 41.3048 20.303 41.3048 20.1211 41.4375C19.8751 41.4751 19.8751 41.4751 19.5767 41.4754C19.407 41.4767 19.407 41.4767 19.2339 41.478C19.1097 41.4774 18.9855 41.4768 18.8575 41.4762C18.6614 41.477 18.6614 41.477 18.4614 41.4778C18.1027 41.4791 17.744 41.4786 17.3852 41.4776C17.0101 41.4769 16.6349 41.4776 16.2598 41.4781C15.6297 41.4786 14.9997 41.4779 14.3697 41.4765C13.6409 41.4748 12.9122 41.4754 12.1835 41.477C11.5582 41.4784 10.9329 41.4786 10.3076 41.4778C9.93392 41.4773 9.5603 41.4772 9.18667 41.4782C8.77024 41.4793 8.35386 41.4778 7.93743 41.4762C7.81323 41.4768 7.68903 41.4774 7.56107 41.478C7.44794 41.4772 7.33482 41.4763 7.21826 41.4754C7.11976 41.4753 7.02126 41.4752 6.91978 41.4751C6.67383 41.4375 6.67383 41.4375 6.49233 41.3044C6.31165 41.0492 6.34337 40.8447 6.375 40.541C6.66329 40.1086 6.91451 40.1301 7.40169 40.1293Z" fill="#E5E5E5" fill-opacity="0.5"/>
<path d="M7.21826 36.1203C7.33139 36.1194 7.44452 36.1186 7.56107 36.1177C7.68527 36.1183 7.80947 36.1189 7.93743 36.1195C8.13351 36.1188 8.13351 36.1188 8.33356 36.118C8.69227 36.1166 9.05096 36.1171 9.40968 36.1181C9.78483 36.1188 10.16 36.1181 10.5351 36.1177C11.1652 36.1171 11.7952 36.1178 12.4252 36.1192C13.154 36.1209 13.8827 36.1203 14.6114 36.1187C15.2367 36.1173 15.862 36.1172 16.4874 36.1179C16.861 36.1184 17.2346 36.1185 17.6083 36.1175C18.0247 36.1165 18.4411 36.1179 18.8575 36.1195C18.9817 36.1189 19.1059 36.1183 19.2339 36.1177C19.4035 36.119 19.4035 36.119 19.5767 36.1203C19.6752 36.1204 19.7737 36.1205 19.8751 36.1206C20.1211 36.1582 20.1211 36.1582 20.3018 36.2917C20.4886 36.5532 20.4645 36.743 20.4199 37.0547C20.2161 37.316 20.0972 37.4383 19.7682 37.5027C19.6722 37.5026 19.5761 37.5025 19.4771 37.5024C19.3665 37.5032 19.2559 37.5041 19.1419 37.5049C19.021 37.5038 18.9001 37.5027 18.7756 37.5015C18.5841 37.5021 18.5841 37.5021 18.3887 37.5027C18.0389 37.5036 17.689 37.5021 17.3392 37.5001C16.973 37.4983 16.6068 37.4987 16.2406 37.4988C15.6256 37.4986 15.0107 37.4968 14.3957 37.4941C13.6848 37.491 12.9739 37.4899 12.263 37.4901C11.5061 37.4902 10.7492 37.4888 9.99223 37.487C9.77417 37.4866 9.5561 37.4864 9.33803 37.4864C8.93166 37.4861 8.52531 37.4842 8.11894 37.4821C7.93761 37.4822 7.93761 37.4822 7.75261 37.4823C7.64201 37.4815 7.5314 37.4806 7.41745 37.4798C7.32137 37.4794 7.22529 37.4791 7.12631 37.4788C6.86035 37.4518 6.69844 37.3981 6.47461 37.2539C6.33522 36.9751 6.34983 36.7653 6.375 36.457C6.61077 36.1221 6.82393 36.1207 7.21826 36.1203Z" fill="#E5E5E5" fill-opacity="0.5"/>
<path d="M34.8259 29.1233C35.1621 29.1855 35.1621 29.1855 35.3676 29.3972C35.49 29.7727 35.4139 29.9211 35.2617 30.2812C35.0707 30.5295 35.0707 30.5295 34.8446 30.7668C34.7637 30.8534 34.6828 30.9399 34.5995 31.0291C34.5222 31.111 34.4449 31.1929 34.3652 31.2773C34.2545 31.4012 34.1444 31.5256 34.0353 31.6509C33.9797 31.7146 33.9241 31.7783 33.8668 31.8439C33.7097 32.0259 33.5534 32.2086 33.3975 32.3917C32.8184 33.0719 32.2299 33.7399 31.6236 34.396C31.2178 34.837 30.8201 35.2826 30.4493 35.7535C30.2339 36.0169 30.1392 36.051 29.8019 36.0959C28.9319 35.9936 28.1122 34.5135 27.5918 33.8672C27.5207 33.7801 27.5207 33.7801 27.4481 33.6913C27.3302 33.546 27.2149 33.3985 27.1 33.2509C27.0062 33.1316 27.0062 33.1316 26.9105 33.01C26.7559 32.6909 26.7962 32.5092 26.8945 32.1738C27.1124 31.9746 27.1124 31.9746 27.3926 31.875C28.0207 31.9779 28.2801 32.368 28.6439 32.8462C28.754 32.9868 28.8641 33.1274 28.9743 33.268C29.0264 33.3355 29.0786 33.4029 29.1323 33.4724C29.3432 33.7422 29.5623 34.004 29.7832 34.2656C30.2545 33.9228 30.6045 33.512 30.9785 33.0703C31.1691 32.8459 31.3601 32.6219 31.5513 32.3979C31.6279 32.3082 31.6279 32.3082 31.706 32.2166C32.1344 31.717 32.5763 31.2315 33.0232 30.7486C33.2379 30.5149 33.4479 30.2784 33.6555 30.0385C33.7097 29.9769 33.7639 29.9154 33.8197 29.8521C33.954 29.6982 34.0851 29.5416 34.2158 29.3848C34.4648 29.1855 34.4648 29.1855 34.8259 29.1233Z" fill="#E5E5E5" fill-opacity="0.5"/>
</svg>
