<svg width="26" height="26" viewBox="0 0 26 26" fill="none" xmlns="http://www.w3.org/2000/svg">
<path d="M13.0001 2.16675C18.9833 2.16675 23.8334 7.01683 23.8334 13.0001C23.8334 18.9833 18.9833 23.8334 13.0001 23.8334C7.01683 23.8334 2.16675 18.9833 2.16675 13.0001C2.16675 7.01683 7.01683 2.16675 13.0001 2.16675ZM13.0001 4.33341C10.7015 4.33341 8.49714 5.24651 6.87182 6.87182C5.24651 8.49714 4.33341 10.7015 4.33341 13.0001C4.33341 15.2986 5.24651 17.503 6.87182 19.1283C8.49714 20.7537 10.7015 21.6667 13.0001 21.6667C15.2986 21.6667 17.503 20.7537 19.1283 19.1283C20.7537 17.503 21.6667 15.2986 21.6667 13.0001C21.6667 10.7015 20.7537 8.49714 19.1283 6.87182C17.503 5.24651 15.2986 4.33341 13.0001 4.33341ZM13.0001 6.50008C13.2654 6.50012 13.5215 6.59753 13.7198 6.77386C13.9181 6.95018 14.0448 7.19314 14.0758 7.45666L14.0834 7.58341V12.5516L17.016 15.4842C17.2103 15.6791 17.3231 15.9407 17.3315 16.2158C17.3399 16.4909 17.2433 16.7589 17.0612 16.9654C16.8792 17.1718 16.6254 17.3012 16.3514 17.3273C16.0774 17.3534 15.8037 17.2743 15.586 17.1059L15.4842 17.016L12.2342 13.766C12.0658 13.5975 11.9577 13.3782 11.9265 13.142L11.9167 13.0001V7.58341C11.9167 7.2961 12.0309 7.02055 12.234 6.81738C12.4372 6.61422 12.7128 6.50008 13.0001 6.50008Z" fill="#272727"/>
</svg>
