<svg width="53" height="53" viewBox="0 0 53 53" fill="none" xmlns="http://www.w3.org/2000/svg">
<path d="M20.0335 2.43077C20.1482 2.42947 20.2629 2.42816 20.3811 2.42682C20.5045 2.42766 20.6278 2.4285 20.7549 2.42936C20.882 2.42896 21.0091 2.42857 21.1401 2.42816C21.4088 2.42788 21.6775 2.42864 21.9462 2.43037C22.3579 2.43259 22.7694 2.43039 23.1811 2.42774C23.442 2.42801 23.703 2.42855 23.9639 2.42936C24.0873 2.42852 24.2106 2.42768 24.3377 2.42682C24.5098 2.42878 24.5098 2.42878 24.6853 2.43077C24.7861 2.4311 24.8869 2.43143 24.9908 2.43177C25.3337 2.49929 25.4577 2.62752 25.6719 2.89841C25.7189 3.16398 25.7189 3.16398 25.7123 3.45966C25.711 3.56575 25.7097 3.67183 25.7083 3.78113C25.7031 3.94626 25.7031 3.94626 25.6978 4.11472C25.6959 4.22641 25.6941 4.3381 25.6921 4.45317C25.6873 4.72863 25.6804 5.00391 25.6719 5.27927C25.7888 5.29102 25.9057 5.30276 26.0261 5.31486C28.1366 5.58168 30.2356 6.59114 31.9864 7.76365C32.3713 7.44158 32.7326 7.12289 33.0733 6.75437C33.408 6.41745 33.6761 6.26373 34.1602 6.21091C34.7632 6.43475 35.1588 6.85058 35.6046 7.29621C35.7197 7.41015 35.7197 7.41015 35.8371 7.5264C35.9986 7.68679 36.1598 7.8476 36.3205 8.00879C36.5661 8.25454 36.8139 8.49799 37.0619 8.74139C37.2189 8.89787 37.3758 9.05449 37.5325 9.21125C37.6065 9.28352 37.6805 9.35579 37.7567 9.43025C38.1777 9.85717 38.4186 10.1656 38.5078 10.7656C38.3302 11.312 37.9627 11.6594 37.5568 12.0466C37.499 12.1031 37.4411 12.1595 37.3815 12.2177C37.2401 12.3555 37.0977 12.4923 36.9551 12.6289C36.9903 12.6919 37.0256 12.7548 37.0619 12.8197C37.2358 13.1344 37.4066 13.4506 37.5762 13.7676C37.6089 13.8285 37.6416 13.8895 37.6752 13.9523C38.4709 15.4507 39.4395 17.3203 39.4395 19.0469C39.5094 19.0447 39.5794 19.0425 39.6515 19.0403C39.969 19.0317 40.2865 19.0263 40.604 19.021C40.7141 19.0175 40.8242 19.014 40.9376 19.0105C41.0437 19.0091 41.1498 19.0078 41.2591 19.0064C41.3567 19.0042 41.4543 19.0021 41.5548 18.9998C41.9069 19.0622 42.0116 19.1851 42.2344 19.4609C42.287 19.728 42.287 19.728 42.288 20.0335C42.2899 20.2055 42.2899 20.2055 42.2919 20.381C42.2907 20.5661 42.2907 20.5661 42.2894 20.7549C42.2898 20.882 42.2902 21.0091 42.2906 21.14C42.2909 21.4087 42.2901 21.6774 42.2884 21.9461C42.2862 22.3578 42.2884 22.7693 42.291 23.181C42.2907 23.442 42.2902 23.7029 42.2894 23.9638C42.2902 24.0872 42.2911 24.2106 42.2919 24.3377C42.29 24.5097 42.29 24.5097 42.288 24.6852C42.2877 24.786 42.2873 24.8868 42.287 24.9907C42.2195 25.3337 42.0912 25.4576 41.8203 25.6719C41.5548 25.7189 41.5548 25.7189 41.2591 25.7123C41.153 25.711 41.0469 25.7096 40.9376 25.7082C40.7725 25.703 40.7725 25.703 40.604 25.6977C40.4365 25.6949 40.4365 25.6949 40.2656 25.6921C39.9901 25.6872 39.7149 25.6804 39.4395 25.6719C39.4279 25.7885 39.4163 25.9051 39.4043 26.0253C38.9848 29.3475 36.9592 32.433 34.6778 34.7812C34.623 34.8383 34.5682 34.8955 34.5118 34.9543C32.2768 37.2471 28.8868 39.1194 25.6719 39.4394C25.6741 39.5094 25.6762 39.5793 25.6785 39.6514C25.6871 39.9689 25.6925 40.2864 25.6978 40.604C25.7013 40.7141 25.7047 40.8242 25.7083 40.9376C25.7096 41.0437 25.711 41.1497 25.7123 41.259C25.7145 41.3566 25.7167 41.4542 25.7189 41.5547C25.6566 41.9068 25.5337 42.0115 25.2578 42.2343C24.9908 42.2869 24.9908 42.2869 24.6853 42.2879C24.5706 42.2892 24.4559 42.2905 24.3377 42.2919C24.2144 42.291 24.091 42.2902 23.9639 42.2893C23.7733 42.2899 23.7733 42.2899 23.5788 42.2905C23.3101 42.2908 23.0414 42.2901 22.7727 42.2883C22.361 42.2861 21.9495 42.2883 21.5378 42.291C21.2768 42.2907 21.0159 42.2902 20.7549 42.2893C20.6316 42.2902 20.5082 42.291 20.3811 42.2919C20.2091 42.2899 20.2091 42.2899 20.0335 42.2879C19.9327 42.2876 19.8319 42.2873 19.7281 42.2869C19.384 42.2192 19.2628 42.0913 19.0469 41.8203C18.9474 41.5219 18.9313 41.3362 18.9333 41.0265C18.9336 40.9341 18.934 40.8417 18.9343 40.7465C18.9352 40.6504 18.936 40.5542 18.9369 40.4552C18.9374 40.3578 18.9379 40.2605 18.9383 40.1602C18.9396 39.9199 18.9413 39.6797 18.9434 39.4394C18.8783 39.431 18.8133 39.4226 18.7463 39.4139C16.5711 39.1127 14.5854 38.0781 12.7325 36.9551C12.3476 37.2771 11.9862 37.5958 11.6455 37.9643C11.3109 38.3013 11.0428 38.455 10.5586 38.5078C9.9556 38.284 9.56003 37.8681 9.11426 37.4225C9.03751 37.3465 8.96076 37.2706 8.88169 37.1923C8.72018 37.0319 8.55907 36.8711 8.39835 36.7099C8.1527 36.4642 7.90493 36.2207 7.65696 35.9773C7.49993 35.8208 7.34304 35.6642 7.18629 35.5075C7.07533 35.399 7.07533 35.399 6.96214 35.2884C6.54114 34.8615 6.30023 34.5531 6.21097 33.9531C6.38866 33.4067 6.75615 33.0593 7.16202 32.6721C7.24879 32.5874 7.24879 32.5874 7.33731 32.501C7.47874 32.3632 7.62113 32.2264 7.76371 32.0898C7.72848 32.0268 7.69325 31.9639 7.65696 31.899C5.27933 27.599 5.27933 27.599 5.27933 25.6719C5.20938 25.674 5.13942 25.6762 5.06735 25.6784C4.74984 25.687 4.43236 25.6924 4.11478 25.6977C4.0047 25.7012 3.89461 25.7047 3.78119 25.7082C3.6751 25.7096 3.56902 25.7109 3.45972 25.7123C3.36215 25.7145 3.26457 25.7166 3.16404 25.7189C2.81195 25.6565 2.70724 25.5336 2.48441 25.2578C2.43183 24.9907 2.43183 24.9907 2.43084 24.6852C2.42953 24.5705 2.42822 24.4558 2.42688 24.3377C2.42772 24.2143 2.42856 24.0909 2.42942 23.9638C2.42902 23.8367 2.42863 23.7096 2.42822 23.5787C2.42794 23.31 2.4287 23.0413 2.43043 22.7726C2.43265 22.3609 2.43045 21.9494 2.4278 21.5377C2.42808 21.2767 2.42861 21.0158 2.42942 20.7549C2.42858 20.6315 2.42774 20.5081 2.42688 20.381C2.42819 20.2663 2.42949 20.1516 2.43084 20.0335C2.43116 19.9327 2.43149 19.8319 2.43183 19.728C2.49936 19.385 2.62758 19.2611 2.89847 19.0469C3.16404 18.9998 3.16404 18.9998 3.45972 19.0064C3.56581 19.0077 3.67189 19.0091 3.78119 19.0105C3.94632 19.0157 3.94632 19.0157 4.11478 19.021C4.22647 19.0228 4.33816 19.0247 4.45323 19.0266C4.72869 19.0315 5.00397 19.0383 5.27933 19.0469C5.29188 18.9273 5.30442 18.8077 5.31734 18.6845C5.56369 16.731 6.52888 14.928 7.45915 13.2252C7.56454 13.0283 7.66463 12.8291 7.76371 12.6289C7.66777 12.5341 7.57183 12.4394 7.47298 12.3418C7.34775 12.2175 7.22253 12.0933 7.09733 11.969C7.03401 11.9065 6.97069 11.8441 6.90546 11.7797C6.84508 11.7197 6.7847 11.6596 6.72249 11.5978C6.66665 11.5425 6.61082 11.4872 6.55329 11.4302C6.28956 11.1436 6.25885 10.8574 6.26839 10.4726C6.32327 10.2053 6.4021 10.102 6.58622 9.90189C6.65207 9.83029 6.71792 9.75868 6.78577 9.6849C6.86937 9.59745 6.95297 9.51 7.0391 9.4199C7.09098 9.36552 7.14286 9.31113 7.19632 9.2551C7.57271 8.86179 7.95337 8.47293 8.33653 8.08622C8.47278 7.94825 8.60848 7.80971 8.74362 7.67065C8.94086 7.46773 9.13975 7.26658 9.33909 7.06573C9.39874 7.00373 9.45839 6.94173 9.51985 6.87785C9.91483 6.48489 10.2119 6.30368 10.7657 6.21091C11.3121 6.3886 11.6594 6.75609 12.0467 7.16196C12.1313 7.24873 12.1313 7.24873 12.2177 7.33725C12.3555 7.47868 12.4923 7.62107 12.6289 7.76365C12.6919 7.72842 12.7549 7.69319 12.8198 7.6569C17.1198 5.27927 17.1198 5.27927 19.0469 5.27927C19.0447 5.20932 19.0426 5.13936 19.0403 5.06729C19.0317 4.74978 19.0263 4.4323 19.021 4.11472C19.0176 4.00464 19.0141 3.89455 19.0105 3.78113C19.0092 3.67504 19.0079 3.56896 19.0065 3.45966C19.0043 3.36209 19.0021 3.26451 18.9999 3.16398C19.1028 2.58291 19.4889 2.43255 20.0335 2.43077ZM20.7032 4.1406C20.6814 4.87605 20.6814 4.87605 20.663 5.61158C20.6579 5.74913 20.6579 5.74913 20.6526 5.88945C20.6499 5.98323 20.6472 6.07701 20.6444 6.17364C20.5901 6.47024 20.5352 6.55638 20.2891 6.72849C20.0223 6.81548 20.0223 6.81548 19.7012 6.88457C19.5231 6.92489 19.5231 6.92489 19.3415 6.96603C19.2144 6.99439 19.0873 7.02275 18.9563 7.05198C16.8949 7.54021 14.9768 8.33103 13.2565 9.58164C12.9528 9.78561 12.8455 9.83313 12.4672 9.86631C11.9729 9.67758 11.6549 9.37511 11.2832 9.00584C11.228 8.95206 11.1728 8.89828 11.1158 8.84288C10.9975 8.72625 10.8813 8.60752 10.7657 8.48826C10.4068 8.64214 10.1766 8.84613 9.90357 9.1231C9.77947 9.2482 9.77947 9.2482 9.65287 9.37582C9.56747 9.46296 9.48207 9.55009 9.39408 9.63987C9.30708 9.7278 9.22008 9.81574 9.13044 9.90634C8.91593 10.1233 8.70191 10.3407 8.48832 10.5586C8.66957 10.9529 8.89636 11.1724 9.2194 11.4643C9.80794 12.0503 9.80794 12.0503 9.89225 12.4154C9.89225 13.0176 9.43642 13.5024 9.10941 13.9746C8.05195 15.6657 7.40896 17.3848 6.97134 19.331C6.94393 19.4507 6.91652 19.5704 6.88827 19.6938C6.86481 19.8011 6.84135 19.9084 6.81718 20.0189C6.72305 20.3058 6.66653 20.4304 6.41801 20.5996C6.1737 20.6443 6.1737 20.6443 5.88951 20.6526C5.79781 20.656 5.70612 20.6594 5.61164 20.6629C5.43754 20.6668 5.43754 20.6668 5.25992 20.6708C4.89057 20.6814 4.52121 20.6921 4.14066 20.7031C4.14066 21.7962 4.14066 22.8893 4.14066 24.0156C4.87611 24.0373 4.87611 24.0373 5.61164 24.0558C5.74919 24.0609 5.74919 24.0609 5.88951 24.0661C5.98329 24.0689 6.07707 24.0716 6.1737 24.0744C6.46781 24.1282 6.55585 24.1878 6.72855 24.4297C6.80932 24.6618 6.80932 24.6618 6.86927 24.9343C6.89254 25.0353 6.91581 25.1363 6.93978 25.2404C6.96402 25.3486 6.98825 25.4568 7.01322 25.5683C7.4592 27.4419 8.07593 29.2239 9.16562 30.8262C9.20907 30.8906 9.25252 30.955 9.29729 31.0214C9.3808 31.1433 9.46625 31.264 9.55395 31.3829C9.77268 31.6986 9.83417 31.8725 9.82876 32.2605C9.72943 32.6112 9.64339 32.7753 9.39408 33.0344C9.32936 33.103 9.26465 33.1716 9.19797 33.2422C9.13458 33.306 9.0712 33.3698 9.0059 33.4355C8.95212 33.4908 8.89834 33.546 8.84294 33.6029C8.72631 33.7212 8.60758 33.8375 8.48832 33.9531C8.6422 34.3119 8.84619 34.5421 9.12316 34.8152C9.20656 34.8979 9.28996 34.9807 9.37588 35.0659C9.46302 35.1513 9.55015 35.2367 9.63993 35.3247C9.72787 35.4117 9.8158 35.4987 9.9064 35.5883C10.1234 35.8028 10.3408 36.0168 10.5586 36.2304C11.0598 36.0001 11.3518 35.6259 11.7151 35.2175C12.0859 34.9271 12.3663 34.8337 12.836 34.8847C13.1241 34.9989 13.3612 35.1643 13.6123 35.3441C13.7575 35.441 13.9031 35.5374 14.049 35.6332C14.1226 35.6817 14.1961 35.7302 14.2718 35.7801C15.8628 36.7891 17.6383 37.363 19.4626 37.7737C19.5652 37.7975 19.6678 37.8213 19.7735 37.8459C19.8655 37.8663 19.9574 37.8867 20.0521 37.9078C20.3195 38.0008 20.4367 38.0695 20.5996 38.3008C20.6444 38.5451 20.6444 38.5451 20.6526 38.8293C20.6578 38.9668 20.6578 38.9668 20.663 39.1071C20.6656 39.2232 20.6682 39.3393 20.6708 39.4588C20.6815 39.8282 20.6922 40.1975 20.7032 40.5781C21.7963 40.5781 22.8894 40.5781 24.0157 40.5781C24.0374 39.8427 24.0374 39.8427 24.0558 39.1071C24.061 38.9696 24.061 38.9696 24.0662 38.8293C24.0689 38.7355 24.0716 38.6417 24.0744 38.5451C24.1283 38.2509 24.1879 38.1629 24.4297 37.9902C24.6618 37.9094 24.6618 37.9094 24.9344 37.8495C25.0859 37.8146 25.0859 37.8146 25.2404 37.779C25.3486 37.7548 25.4569 37.7305 25.5684 37.7055C29.721 36.7135 33.3247 34.3493 35.6288 30.7053C35.7629 30.4782 35.8944 30.2495 36.0235 30.0195C36.0577 29.9585 36.092 29.8975 36.1273 29.8346C36.9654 28.318 37.5178 26.6704 37.8527 24.9721C37.9314 24.5918 37.9869 24.3557 38.3008 24.1191C38.5451 24.0744 38.5451 24.0744 38.8293 24.0661C38.9669 24.061 38.9669 24.061 39.1072 24.0558C39.2232 24.0532 39.3393 24.0506 39.4589 24.0479C39.8283 24.0373 40.1976 24.0266 40.5782 24.0156C40.5782 22.9225 40.5782 21.8293 40.5782 20.7031C39.8427 20.6814 39.8427 20.6814 39.1072 20.6629C38.9696 20.6578 38.9696 20.6578 38.8293 20.6526C38.7355 20.6498 38.6417 20.6471 38.5451 20.6443C38.2485 20.59 38.1624 20.5351 37.9903 20.289C37.9033 20.0222 37.9033 20.0222 37.8342 19.7011C37.8073 19.5824 37.7804 19.4637 37.7527 19.3415C37.7244 19.2144 37.696 19.0872 37.6668 18.9563C37.1675 16.8481 36.3541 14.7739 34.9814 13.0696C34.8295 12.7023 34.8647 12.3755 34.9883 12.0078C35.1673 11.7477 35.3814 11.545 35.6159 11.3349C35.6747 11.2794 35.7334 11.2239 35.794 11.1667C35.9379 11.0313 36.084 10.8982 36.2305 10.7656C36.0766 10.4068 35.8726 10.1766 35.5957 9.90351C35.4706 9.77941 35.4706 9.77941 35.3429 9.65281C35.2558 9.56741 35.1687 9.48201 35.0789 9.39402C34.991 9.30702 34.903 9.22002 34.8124 9.13038C34.5955 8.91586 34.378 8.70185 34.1602 8.48826C33.79 8.66112 33.5625 8.86342 33.2803 9.16111C32.7405 9.73044 32.7405 9.73044 32.4004 9.83396C31.8058 9.81721 31.4411 9.60934 30.9771 9.26462C29.2209 8.03197 27.2346 7.35432 25.1509 6.91338C25.0619 6.89374 24.9728 6.87409 24.881 6.85384C24.8014 6.83708 24.7219 6.82032 24.6399 6.80305C24.3873 6.71345 24.2763 6.63544 24.1192 6.41794C24.0744 6.17364 24.0744 6.17364 24.0662 5.88945C24.0628 5.79775 24.0594 5.70606 24.0558 5.61158C24.052 5.43748 24.052 5.43748 24.048 5.25986C24.0373 4.89051 24.0267 4.52115 24.0157 4.1406C22.9225 4.1406 21.8294 4.1406 20.7032 4.1406Z" fill="#E5E5E5" fill-opacity="0.5"/>
<path d="M23.6016 9.93748C24.1301 10.3036 24.1717 10.8679 24.2947 11.4583C24.3202 11.5748 24.3458 11.6912 24.3721 11.8112C24.4297 12.0747 24.4866 12.3383 24.5427 12.6021C24.6437 13.0768 24.7475 13.551 24.8514 14.0251C25.048 14.9239 25.2421 15.8233 25.4355 16.7228C25.5368 17.1939 25.6385 17.6649 25.7404 18.1359C25.8195 18.5018 25.8982 18.8678 25.9769 19.2337C26.0144 19.4077 26.052 19.5817 26.0896 19.7556C26.1417 19.9962 26.1933 20.2368 26.2449 20.4775C26.2681 20.5841 26.2681 20.5841 26.2918 20.693C26.3528 20.9797 26.3965 21.237 26.3965 21.5312C26.4851 21.5303 26.5737 21.5294 26.6649 21.5284C27.4996 21.5202 28.3342 21.5138 29.1689 21.5098C29.598 21.5076 30.0271 21.5047 30.4562 21.5C30.8704 21.4955 31.2845 21.493 31.6986 21.4919C31.8566 21.4912 32.0146 21.4897 32.1726 21.4875C32.3939 21.4844 32.6151 21.484 32.8365 21.4842C32.9624 21.4833 33.0884 21.4824 33.2182 21.4814C33.6007 21.5408 33.7206 21.6422 33.9532 21.9453C34.0082 22.1523 34.0082 22.1523 34.0049 22.3594C34.0065 22.4618 34.0065 22.4618 34.0082 22.5664C33.9257 22.877 33.7923 22.9904 33.5391 23.1875C33.2582 23.2284 33.0192 23.2442 32.7385 23.2411C32.6583 23.2418 32.5782 23.2425 32.4956 23.2433C32.2309 23.2451 31.9664 23.2439 31.7017 23.2425C31.5176 23.2428 31.3336 23.2432 31.1495 23.2437C30.7638 23.2443 30.3782 23.2434 29.9925 23.2415C29.4982 23.2391 29.004 23.2405 28.5097 23.2429C28.1296 23.2444 27.7495 23.244 27.3694 23.2429C27.1872 23.2426 27.0049 23.243 26.8227 23.2439C26.5679 23.245 26.3133 23.2434 26.0585 23.2411C25.9832 23.2419 25.9079 23.2427 25.8303 23.2436C25.4752 23.2376 25.2901 23.2126 25.0064 22.9912C24.8288 22.7533 24.7627 22.5861 24.7003 22.2971C24.6783 22.1992 24.6564 22.1013 24.6338 22.0004C24.6113 21.8926 24.5888 21.7847 24.5656 21.6736C24.5407 21.5602 24.5158 21.4469 24.4901 21.3301C24.4169 20.9945 24.3451 20.6586 24.2739 20.3226C24.1968 19.9603 24.1185 19.5982 24.0403 19.2361C23.7883 18.0694 23.5391 16.902 23.2911 15.7344C22.9632 17.3432 22.6529 18.9543 22.364 20.5706C22.3016 20.9194 22.2388 21.268 22.1758 21.6167C21.9972 22.6055 21.8188 23.5944 21.642 24.5836C21.5328 25.1942 21.4227 25.8045 21.312 26.4148C21.2703 26.6457 21.229 26.8766 21.188 27.1076C21.1309 27.4286 21.0728 27.7494 21.0143 28.0702C20.9978 28.1645 20.9814 28.2589 20.9644 28.3561C20.8726 28.8522 20.7636 29.2723 20.4962 29.709C20.1722 29.8709 19.8118 29.8846 19.461 29.8125C19.0313 29.4761 18.8956 29.0591 18.7332 28.557C18.7049 28.473 18.6767 28.3891 18.6475 28.3027C18.5553 28.0278 18.4647 27.7524 18.3741 27.4769C18.3106 27.2868 18.2469 27.0968 18.1832 26.9068C18.0523 26.5166 17.922 26.1262 17.7921 25.7357C17.5227 24.9278 17.2457 24.1224 16.9685 23.3171C16.8375 22.9364 16.7069 22.5555 16.5763 22.1746C16.5027 21.9601 16.4291 21.7457 16.3555 21.5312C16.2982 21.6421 16.2408 21.753 16.1817 21.8673C16.1059 22.0119 16.0302 22.1565 15.9544 22.3011C15.9166 22.3743 15.8789 22.4475 15.84 22.5229C15.5509 23.0722 15.5509 23.0722 15.3204 23.1875C15.0158 23.2015 14.7137 23.2095 14.409 23.2121C14.273 23.2134 14.273 23.2134 14.1343 23.2147C13.9424 23.2161 13.7504 23.2172 13.5584 23.218C13.2649 23.2198 12.9714 23.2244 12.6779 23.2289C12.4915 23.23 12.3051 23.2309 12.1187 23.2316C12.0309 23.2334 11.9431 23.2352 11.8527 23.2371C11.2428 23.2348 11.2428 23.2348 10.9175 22.9906C10.7534 22.7559 10.7095 22.6427 10.7139 22.3594C10.7123 22.2569 10.7123 22.2569 10.7107 22.1523C10.7927 21.8438 10.9297 21.7279 11.1797 21.5312C11.5213 21.4842 11.5213 21.4842 11.9221 21.4908C12.0281 21.4917 12.0281 21.4917 12.1362 21.4926C12.3609 21.4949 12.5855 21.5001 12.8101 21.5054C12.9628 21.5074 13.1155 21.5093 13.2683 21.511C13.6418 21.5156 14.0153 21.5227 14.3887 21.5312C14.4171 21.4411 14.4455 21.3509 14.4747 21.258C14.6704 20.6957 14.9447 20.1741 15.2104 19.6421C15.2661 19.5281 15.3218 19.4142 15.3792 19.2968C15.4333 19.1881 15.4874 19.0795 15.5432 18.9676C15.5923 18.8686 15.6414 18.7695 15.692 18.6675C15.838 18.4258 15.838 18.4258 16.1485 18.2187C16.8858 18.1485 16.8858 18.1485 17.1761 18.373C17.4687 18.7272 17.5817 19.092 17.7227 19.5252C17.7523 19.6131 17.782 19.7009 17.8126 19.7915C17.9082 20.0756 18.002 20.3602 18.0959 20.6449C18.1608 20.8387 18.2257 21.0325 18.2908 21.2263C18.4476 21.6938 18.603 22.1618 18.758 22.6299C18.8698 22.9672 18.9828 23.3042 19.0959 23.6412C19.2533 24.1107 19.4095 24.5805 19.5645 25.0508C19.7767 24.3778 19.8952 23.6935 20.0182 22.9994C20.0547 22.7962 20.0911 22.593 20.1276 22.3898C20.1666 22.1726 20.2053 21.9553 20.244 21.738C20.3249 21.2842 20.4066 20.8304 20.4883 20.3767C20.7205 19.087 20.9521 17.7971 21.1824 16.5071C21.3098 15.7936 21.4379 15.0803 21.5667 14.3671C21.6481 13.9165 21.7286 13.4657 21.8085 13.0148C21.8702 12.6682 21.9331 12.3218 21.9959 11.9754C22.0286 11.7888 22.0286 11.7888 22.0619 11.5985C22.2607 10.5137 22.2607 10.5137 22.5665 10.041C22.8904 9.87903 23.2508 9.86533 23.6016 9.93748Z" fill="#E5E5E5" fill-opacity="0.5"/>
<path d="M39.9571 33.7461C40.1514 33.8792 40.1514 33.8792 40.3443 34.0576C40.4522 34.1567 40.4522 34.1567 40.5623 34.2579C40.9348 34.6136 41.3032 34.9726 41.6675 35.3364C41.7515 35.4198 41.8354 35.5032 41.9219 35.5892C42.197 35.8628 42.4717 36.1368 42.7463 36.4108C42.8407 36.5049 42.9351 36.599 43.0324 36.696C43.4802 37.1424 43.9278 37.589 44.3751 38.0359C44.8887 38.5491 45.403 39.0616 45.9179 39.5735C46.3663 40.0193 46.8138 40.466 47.261 40.9131C47.4504 41.1021 47.6399 41.2909 47.8298 41.4793C48.0956 41.7434 48.3604 42.0083 48.6249 42.2736C48.7027 42.3504 48.7805 42.4272 48.8606 42.5064C49.9105 43.5645 50.5499 44.6571 50.5674 46.168C50.5529 47.4197 50.1474 48.4429 49.2965 49.3705C48.2616 50.3525 47.0807 50.5678 45.7078 50.5436C44.1604 50.4791 43.0329 49.3965 41.9952 48.3465C41.9063 48.2579 41.8175 48.1692 41.7259 48.0779C41.4859 47.8381 41.2465 47.5977 41.0075 47.3569C40.7561 47.1039 40.5039 46.8518 40.2517 46.5995C39.8296 46.177 39.408 45.7539 38.9869 45.3304C38.4461 44.7866 37.9043 44.2438 37.3623 43.7013C36.8952 43.2339 36.4286 42.766 35.9621 42.298C35.8124 42.1478 35.6626 41.9978 35.5128 41.8477C35.2348 41.5689 34.9571 41.2899 34.6795 41.0107C34.5965 40.9275 34.5135 40.8444 34.428 40.7587C34.3528 40.683 34.2777 40.6073 34.2003 40.5292C34.1347 40.4633 34.0691 40.3974 34.0015 40.3295C33.7293 40.033 33.6914 39.7559 33.6982 39.3555C33.7571 39.0771 33.8546 38.9607 34.0468 38.7522C34.146 38.6444 34.146 38.6444 34.2471 38.5343C34.6622 38.1009 35.0831 37.6738 35.5079 37.2499C35.6062 37.1515 35.7045 37.0532 35.8027 36.9548C36.0069 36.7504 36.2113 36.5463 36.4158 36.3423C36.678 36.0806 36.9397 35.8185 37.2014 35.5563C37.4034 35.3539 37.6056 35.1518 37.808 34.9497C37.9516 34.8062 38.095 34.6625 38.2384 34.5188C38.3685 34.3891 38.3685 34.3891 38.5013 34.2568C38.5777 34.1805 38.6542 34.1042 38.7329 34.0255C39.0932 33.6903 39.4838 33.6449 39.9571 33.7461ZM39.281 36.0536C39.2189 36.1161 39.1568 36.1786 39.0929 36.243C39.0225 36.3135 38.952 36.384 38.8794 36.4566C38.8035 36.5335 38.7276 36.6105 38.6494 36.6898C38.5715 36.768 38.4937 36.8461 38.4135 36.9266C38.1641 37.1771 37.9155 37.4284 37.6668 37.6797C37.4982 37.8493 37.3296 38.0189 37.1609 38.1884C36.7467 38.6049 36.3331 39.022 35.92 39.4395C36.0618 39.7569 36.2235 39.9765 36.4679 40.2228C36.5382 40.2942 36.6086 40.3656 36.6811 40.4391C36.7968 40.555 36.7968 40.555 36.9149 40.6732C36.9962 40.7554 37.0776 40.8375 37.1613 40.9222C37.4307 41.1941 37.7009 41.4652 37.9713 41.7362C38.1591 41.9249 38.3468 42.1137 38.5346 42.3024C38.9287 42.6982 39.3232 43.0935 39.718 43.4886C40.1731 43.944 40.6267 44.4008 41.0798 44.8582C41.5168 45.2993 41.9553 45.7389 42.3943 46.1781C42.5804 46.3645 42.766 46.5514 42.9511 46.7387C43.2107 47.0011 43.4719 47.2618 43.7336 47.5222C43.8093 47.5994 43.885 47.6767 43.963 47.7562C44.5837 48.3683 45.2617 48.8154 46.1615 48.8141C46.9122 48.7845 47.4889 48.5469 48.0422 48.0377C48.5562 47.4782 48.7854 47.0164 48.7947 46.2456C48.7976 46.1362 48.8006 46.0268 48.8036 45.9141C48.6801 44.9639 48.1649 44.3635 47.4999 43.7113C47.4154 43.6263 47.3308 43.5414 47.2437 43.4539C46.9659 43.1754 46.6863 42.8988 46.4066 42.6222C46.2126 42.4287 46.0188 42.235 45.825 42.0413C45.4198 41.6366 45.0137 41.233 44.6069 40.8299C44.1364 40.3637 43.6671 39.8962 43.1985 39.428C42.7471 38.977 42.2952 38.5266 41.8428 38.0765C41.6505 37.885 41.4582 37.6935 41.2661 37.5018C40.9985 37.2351 40.7302 36.9691 40.4617 36.7034C40.3418 36.5836 40.3418 36.5836 40.2195 36.4614C40.1466 36.3896 40.0738 36.3178 39.9987 36.2438C39.9353 36.1809 39.8719 36.118 39.8066 36.0531C39.5859 35.8695 39.5008 35.8683 39.281 36.0536Z" fill="#E5E5E5" fill-opacity="0.5"/>
<path d="M19.7261 8.85056C19.9295 9.2043 19.9807 9.53952 19.875 9.93747C19.5278 10.4416 18.9537 10.5511 18.3999 10.7333C15.207 11.8443 12.7322 14.0425 11.2466 17.087C10.9182 17.7901 10.6656 18.5064 10.455 19.2539C10.4054 19.4206 10.4054 19.4206 10.3547 19.5907C9.93583 21.2644 10.0386 23.1645 10.2667 24.8617C10.242 25.2481 10.1025 25.4012 9.83394 25.6718C9.60426 25.7369 9.60426 25.7369 9.36811 25.7301C9.29019 25.7302 9.21226 25.7303 9.13197 25.7305C8.81581 25.6498 8.69755 25.5054 8.48823 25.2578C8.18531 24.3459 8.23969 23.3115 8.24238 22.3593C8.24244 22.2843 8.24249 22.2093 8.24255 22.132C8.24681 20.8935 8.34215 19.7214 8.69526 18.5293C8.71745 18.4537 8.73963 18.3781 8.76249 18.3002C9.84901 14.7227 12.2868 11.6869 15.5765 9.90194C18.742 8.27445 18.742 8.27445 19.7261 8.85056Z" fill="#E5E5E5" fill-opacity="0.5"/>
<path d="M12.4218 29.8125C12.7728 30.018 13.0015 30.2966 13.2629 30.6018C15.3831 33.0586 18.3797 34.3711 21.5765 34.6518C23.703 34.782 25.8279 34.3503 27.728 33.3932C28.2445 33.1413 28.6155 33.0736 29.1914 33.125C29.4501 33.2803 29.4501 33.2803 29.6054 33.539C29.662 33.8268 29.681 34.0827 29.6054 34.3672C29.283 34.7849 28.8574 34.9739 28.3891 35.1888C28.3113 35.2247 28.2335 35.2607 28.1534 35.2977C27.3788 35.6464 26.5974 35.9152 25.7753 36.1269C25.6516 36.16 25.5279 36.1931 25.4005 36.2272C23.2369 36.7056 20.6498 36.6516 18.5292 36.0234C18.4537 36.0012 18.3781 35.9791 18.3002 35.9562C15.5519 35.1215 13.1086 33.4808 11.2831 31.2617C11.1171 30.9296 11.1305 30.5868 11.1796 30.2265C11.471 29.7409 11.8963 29.7112 12.4218 29.8125Z" fill="#E5E5E5" fill-opacity="0.5"/>
<path d="M35.5576 20.6384C35.6355 20.6371 35.7134 20.6358 35.7937 20.6344C36.1354 20.7367 36.2417 20.9286 36.4374 21.2207C36.491 21.5127 36.491 21.5127 36.4924 21.8325C36.4933 21.951 36.4941 22.0695 36.495 22.1917C36.4931 22.3175 36.4912 22.4433 36.4892 22.5729C36.4879 22.7026 36.4867 22.8324 36.4854 22.9661C36.4086 26.6085 34.8063 30.0019 32.2372 32.5631C31.1739 33.5818 31.1739 33.5818 30.4311 33.567C30.2265 33.5391 30.2265 33.5391 29.9677 33.3838C29.7512 33.023 29.7345 32.7011 29.8124 32.2969C30.0179 31.9459 30.2965 31.7172 30.6017 31.4558C32.827 29.5355 34.1957 26.8154 34.5742 23.9121C34.6076 23.331 34.612 22.7493 34.6146 22.1673C34.6327 21.3039 34.6327 21.3039 34.8596 20.8843C35.1171 20.6833 35.2339 20.6329 35.5576 20.6384Z" fill="#E5E5E5" fill-opacity="0.5"/>
<path d="M26.2962 8.73746C26.5162 8.79779 26.7307 8.86667 26.9464 8.94115C27.0662 8.98226 27.0662 8.98226 27.1885 9.0242C29.1337 9.72251 30.8591 10.8383 32.2968 12.3184C32.3779 12.3973 32.4591 12.4763 32.5427 12.5577C32.6323 12.6495 32.722 12.7413 32.8144 12.8359C32.9165 12.9404 32.9165 12.9404 33.0206 13.047C33.4829 13.5381 33.8942 14.0498 34.2701 14.6086C34.3313 14.6958 34.3313 14.6958 34.3937 14.7847C34.7054 15.2653 34.7281 15.5951 34.6777 16.1484C34.5224 16.4072 34.5224 16.4072 34.2636 16.5625C33.7027 16.6426 33.7027 16.6426 33.4355 16.5625C33.0446 16.2248 32.7717 15.8481 32.4909 15.4173C31.3965 13.7942 29.9651 12.5558 28.2597 11.5937C28.1134 11.5109 28.1134 11.5109 27.9641 11.4263C27.2622 11.0526 26.5422 10.7994 25.7809 10.5771C25.2056 10.4011 25.2056 10.4011 24.9472 10.1518C24.777 9.79947 24.7756 9.49112 24.8437 9.10937C25.1729 8.56065 25.729 8.62377 26.2962 8.73746Z" fill="#E5E5E5" fill-opacity="0.5"/>
</svg>
