<svg width="50" height="50" viewBox="0 0 50 50" fill="none" xmlns="http://www.w3.org/2000/svg">
<g clip-path="url(#clip0_3_152)">
<path d="M3.47045 0.752868C3.57404 0.752212 3.67763 0.751556 3.78436 0.75088C4.12671 0.749026 4.46904 0.748644 4.81139 0.748434C5.04966 0.747806 5.28793 0.747149 5.52621 0.746464C6.02574 0.745294 6.52526 0.744932 7.02479 0.745048C7.66415 0.745068 8.30347 0.742402 8.94281 0.739038C9.43501 0.736864 9.9272 0.73647 10.4194 0.736573C10.6551 0.736343 10.8907 0.735481 11.1264 0.733969C11.4565 0.732051 11.7864 0.732619 12.1165 0.733795C12.2133 0.732697 12.3102 0.7316 12.41 0.730469C13.1214 0.736891 13.6437 0.890498 14.1837 1.36374C14.2363 1.42732 14.289 1.49089 14.3432 1.55639C14.3973 1.61971 14.4514 1.68303 14.5072 1.74827C14.7904 2.15928 14.8676 2.50436 14.8516 2.99972C14.8488 3.10962 14.846 3.21951 14.8431 3.33274C14.8379 3.50975 14.8379 3.50975 14.8326 3.69033C14.8293 3.94197 14.8265 4.19361 14.824 4.44526C14.82 4.84081 14.8139 5.23596 14.7998 5.63129C14.6943 7.02449 14.6943 7.02449 15.0758 8.32365C15.4054 8.67374 15.7906 8.89075 16.2234 9.09173C16.4754 9.21301 16.691 9.37209 16.9147 9.53902C17.0645 9.64318 17.2144 9.74719 17.3644 9.85106C17.9957 10.2904 18.6224 10.7351 19.2443 11.1877C19.8436 11.6236 20.45 12.0472 21.0631 12.4634C21.6825 12.8838 22.2924 13.3137 22.8934 13.76C23.2832 14.0489 23.6777 14.3299 24.0757 14.6075C24.8006 15.1132 25.5022 15.6327 26.1718 16.2109C26.2491 16.2774 26.3264 16.3439 26.406 16.4123C26.6577 16.6339 26.9038 16.8604 27.1483 17.0898C27.1996 17.1377 27.2508 17.1857 27.3036 17.235C28.7226 18.5733 29.8527 20.1109 30.8593 21.7773C30.9119 21.8643 30.9119 21.8643 30.9655 21.9531C33.1256 25.598 33.6588 29.6372 33.6461 33.7877C33.6451 34.221 33.6461 34.6542 33.6467 35.0874C33.6474 35.8126 33.6465 36.5377 33.6446 37.2628C33.6424 38.0982 33.6432 38.9337 33.6453 39.7691C33.6471 40.4919 33.6473 41.2146 33.6463 41.9374C33.6457 42.3668 33.6456 42.7962 33.6469 43.2256C33.648 43.6281 33.6472 44.0305 33.645 44.433C33.6445 44.5798 33.6446 44.7266 33.6455 44.8734C33.6524 46.1663 33.4334 47.1871 32.5194 48.1445C31.6238 48.9996 30.6462 49.2789 29.4285 49.2683C29.3191 49.269 29.2097 49.2696 29.0969 49.2702C28.733 49.2717 28.3691 49.2705 28.0051 49.2693C27.7431 49.2698 27.4811 49.2705 27.219 49.2714C26.5828 49.2731 25.9466 49.2727 25.3104 49.2716C24.7931 49.2707 24.2757 49.2706 23.7584 49.271C23.6846 49.2711 23.6108 49.2711 23.5347 49.2712C23.3848 49.2713 23.2348 49.2714 23.0848 49.2716C21.6807 49.2727 20.2765 49.2714 18.8723 49.2693C17.6691 49.2676 16.4659 49.2679 15.2627 49.2697C13.8633 49.2718 12.464 49.2726 11.0646 49.2714C10.9152 49.2713 10.7658 49.2711 10.6164 49.271C10.5429 49.271 10.4694 49.2709 10.3937 49.2708C9.87738 49.2705 9.36103 49.2711 8.84468 49.272C8.21489 49.2731 7.58511 49.2728 6.95531 49.2707C6.63436 49.2697 6.31345 49.2695 5.9925 49.2706C5.64373 49.2716 5.29505 49.2703 4.94628 49.2683C4.79591 49.2696 4.79591 49.2696 4.64249 49.271C3.54602 49.2592 2.64994 48.903 1.85538 48.1445C0.804121 47.0433 0.723675 45.8563 0.731557 44.4066C0.731106 44.2257 0.730486 44.0449 0.72971 43.8641C0.728084 43.3692 0.728884 42.8743 0.730096 42.3794C0.730981 41.8449 0.729614 41.3105 0.728541 40.776C0.726805 39.7298 0.727178 38.6836 0.728311 37.6375C0.729194 36.7873 0.729313 35.9371 0.728888 35.0869C0.728828 34.9659 0.728768 34.8448 0.728707 34.7201C0.728582 34.4742 0.728455 34.2283 0.728327 33.9824C0.727245 31.743 0.728366 29.5037 0.730414 27.2643C0.732268 25.2206 0.732101 23.177 0.730234 21.1333C0.728142 18.836 0.72732 16.5387 0.72852 14.2414C0.728644 13.9965 0.728767 13.7516 0.728888 13.5067C0.728948 13.3861 0.729009 13.2656 0.729071 13.1415C0.729408 12.2922 0.728839 11.4428 0.72792 10.5935C0.726824 9.55871 0.72712 8.52395 0.729201 7.48918C0.730228 6.96119 0.730629 6.43323 0.729338 5.90524C0.728175 5.42196 0.728813 4.93872 0.730892 4.45545C0.731328 4.28059 0.731106 4.10574 0.730159 3.93088C0.728971 3.69314 0.73019 3.45552 0.732003 3.21779C0.731089 3.14996 0.730174 3.08213 0.729232 3.01224C0.738628 2.39548 0.961632 1.89996 1.36366 1.44118C1.42724 1.38856 1.49081 1.33594 1.55631 1.28173C1.61963 1.2276 1.68295 1.17347 1.74819 1.1177C2.30205 0.736077 2.8191 0.752277 3.47045 0.752868ZM2.53897 2.63671C2.35277 2.9619 2.31953 3.24022 2.32149 3.61072C2.3215 3.70453 2.32152 3.79834 2.32153 3.89499C2.32254 3.99501 2.32355 4.09502 2.32459 4.19806C2.32486 4.30142 2.32514 4.40477 2.32542 4.51126C2.32651 4.8406 2.32897 5.16992 2.33145 5.49926C2.33243 5.72286 2.33332 5.94647 2.33412 6.17007C2.33627 6.71755 2.33964 7.26502 2.34366 7.81249C2.85928 7.81249 3.37491 7.81249 3.90616 7.81249C3.90981 7.6749 3.91346 7.53731 3.91722 7.39554C3.92363 7.21511 3.93012 7.03467 3.93668 6.85424C3.93888 6.76354 3.94108 6.67284 3.94335 6.57939C3.94682 6.49221 3.95028 6.40504 3.95384 6.31522C3.9564 6.23493 3.95896 6.15464 3.96159 6.07192C4.01271 5.81459 4.09174 5.72551 4.29678 5.5664C4.48599 5.52749 4.48599 5.52749 4.68741 5.52978C4.78711 5.52864 4.78711 5.52864 4.88883 5.52749C5.13753 5.57863 5.2134 5.662 5.371 5.85936C5.41323 6.07192 5.41323 6.07192 5.42098 6.31522C5.42617 6.44598 5.42617 6.44598 5.43147 6.57939C5.43367 6.67009 5.43587 6.76079 5.43814 6.85424C5.44315 6.99199 5.44315 6.99199 5.44825 7.13252C5.4563 7.35914 5.46265 7.58581 5.46866 7.81249C5.98428 7.81249 6.49991 7.81249 7.03116 7.81249C7.03481 7.6749 7.03846 7.53731 7.04222 7.39554C7.04863 7.21511 7.05512 7.03467 7.06168 6.85424C7.06388 6.76354 7.06608 6.67284 7.06835 6.57939C7.07181 6.49221 7.07528 6.40504 7.07884 6.31522C7.0814 6.23493 7.08396 6.15464 7.08659 6.07192C7.13771 5.81459 7.21674 5.72551 7.42178 5.5664C7.61099 5.52749 7.61099 5.52749 7.81241 5.52978C7.91211 5.52864 7.91211 5.52864 8.01382 5.52749C8.26253 5.57863 8.3384 5.662 8.496 5.85936C8.53823 6.07192 8.53823 6.07192 8.54598 6.31522C8.54944 6.4024 8.5529 6.48957 8.55647 6.57939C8.55977 6.71544 8.55977 6.71544 8.56314 6.85424C8.56648 6.94607 8.56981 7.0379 8.57325 7.13252C8.5813 7.35914 8.58764 7.58581 8.59366 7.81249C9.10928 7.81249 9.62491 7.81249 10.1562 7.81249C10.1598 7.6749 10.1635 7.53731 10.1672 7.39554C10.1736 7.21511 10.1801 7.03467 10.1867 6.85424C10.1889 6.76354 10.1911 6.67284 10.1934 6.57939C10.1985 6.44863 10.1985 6.44863 10.2038 6.31522C10.2064 6.23493 10.209 6.15464 10.2116 6.07192C10.2627 5.81459 10.3417 5.72551 10.5468 5.5664C10.736 5.52749 10.736 5.52749 10.9374 5.52978C11.0371 5.52864 11.0371 5.52864 11.1388 5.52749C11.3875 5.57863 11.4634 5.662 11.621 5.85936C11.6632 6.07192 11.6632 6.07192 11.671 6.31522C11.6744 6.4024 11.6779 6.48957 11.6815 6.57939C11.6837 6.67009 11.6859 6.76079 11.6881 6.85424C11.6915 6.94607 11.6948 7.0379 11.6982 7.13252C11.7063 7.35914 11.7126 7.58581 11.7187 7.81249C12.2343 7.81249 12.7499 7.81249 13.2812 7.81249C13.2884 7.15565 13.2937 6.49883 13.2973 5.84196C13.2987 5.61861 13.3007 5.39525 13.3033 5.17191C13.3068 4.85047 13.3085 4.52906 13.3098 4.2076C13.3113 4.10809 13.3128 4.00858 13.3144 3.90606C13.3145 3.38474 13.3097 2.97484 12.9882 2.53905C12.5413 2.28943 12.0906 2.3155 11.5932 2.31692C11.4573 2.31617 11.4573 2.31617 11.3187 2.31541C11.0198 2.31405 10.7209 2.31414 10.422 2.31437C10.214 2.31399 10.0059 2.31356 9.79778 2.3131C9.36179 2.31237 8.92581 2.3124 8.48983 2.31291C7.93147 2.31348 7.37314 2.31182 6.81478 2.30956C6.38508 2.30812 5.95539 2.30803 5.52569 2.30834C5.31985 2.30829 5.114 2.30778 4.90815 2.30679C4.62017 2.30559 4.33225 2.30625 4.04428 2.30738C3.91709 2.30626 3.91709 2.30626 3.78734 2.30512C3.30385 2.30931 2.94732 2.34867 2.53897 2.63671ZM2.34366 9.37499C2.33919 13.9383 2.33575 18.5015 2.33369 23.0648C2.33344 23.6035 2.33319 24.1422 2.33293 24.6809C2.33288 24.7881 2.33283 24.8954 2.33278 25.0058C2.33193 26.7425 2.33039 28.4792 2.32859 30.2158C2.32676 31.9977 2.32568 33.7796 2.32528 35.5614C2.32501 36.661 2.32417 37.7606 2.32258 38.8601C2.32155 39.6141 2.32124 40.368 2.32149 41.122C2.32162 41.557 2.32142 41.992 2.32038 42.427C2.31943 42.8255 2.31938 43.224 2.32005 43.6225C2.32013 43.7665 2.31988 43.9104 2.31927 44.0544C2.29591 45.5086 2.29591 45.5086 2.9296 46.7773C3.75799 47.5998 4.57312 47.6711 5.70105 47.6693C5.80302 47.6695 5.90499 47.6697 6.01005 47.67C6.35167 47.6706 6.69328 47.6705 7.0349 47.6704C7.27987 47.6707 7.52483 47.6711 7.76979 47.6714C8.36611 47.6722 8.96243 47.6725 9.55874 47.6726C10.0436 47.6726 10.5285 47.6728 11.0133 47.6731C12.3889 47.674 13.7644 47.6744 15.1399 47.6743C15.2511 47.6743 15.2511 47.6743 15.3645 47.6743C15.4758 47.6743 15.4758 47.6743 15.5893 47.6743C16.7917 47.6743 17.9941 47.6752 19.1965 47.6766C20.4319 47.678 21.6673 47.6787 22.9027 47.6786C23.596 47.6786 24.2892 47.6788 24.9825 47.6799C25.6346 47.6809 26.2866 47.6808 26.9387 47.6801C27.1778 47.68 27.417 47.6802 27.6561 47.6808C27.983 47.6816 28.3097 47.6811 28.6366 47.6804C28.7309 47.6809 28.8252 47.6814 28.9224 47.6819C29.8381 47.6773 30.6381 47.5882 31.3113 46.9101C31.894 46.2642 32.0432 45.6302 32.0436 44.7658C32.044 44.6061 32.044 44.6061 32.0444 44.4432C32.0442 44.3279 32.044 44.2125 32.0438 44.0936C32.044 43.971 32.0441 43.8483 32.0443 43.7219C32.0448 43.3861 32.0446 43.0502 32.0443 42.7144C32.044 42.3608 32.0443 42.0072 32.0444 41.6536C32.0446 41.0585 32.0444 40.4633 32.0439 39.8681C32.0434 39.185 32.0435 38.502 32.0441 37.8189C32.0445 37.2292 32.0446 36.6395 32.0443 36.0498C32.0442 35.6991 32.0441 35.3484 32.0445 34.9977C32.0741 32.1392 32.0741 32.1392 31.7687 29.303C31.7433 29.1569 31.7433 29.1569 31.7173 29.0078C30.7519 23.7257 27.7433 19.2399 23.3716 16.1759C23.0752 15.9667 22.7822 15.753 22.4891 15.5393C21.737 14.9913 20.9741 14.4613 20.2043 13.9387C19.6707 13.5753 19.1478 13.2 18.6294 12.8154C18.0474 12.3849 17.4538 11.9717 16.8597 11.558C16.2121 11.1064 15.5708 10.6467 14.9326 10.1818C14.8652 10.1329 14.7979 10.0839 14.7285 10.0334C14.6703 9.99097 14.6122 9.94853 14.5523 9.9048C14.4873 9.85887 14.4223 9.81294 14.3554 9.76562C14.2776 9.69921 14.1999 9.6328 14.1198 9.56437C13.6708 9.26858 13.1737 9.32368 12.6541 9.33064C12.4868 9.33056 12.4868 9.33056 12.3161 9.33047C11.9483 9.33074 11.5806 9.33378 11.2128 9.33684C10.9575 9.33757 10.7022 9.33813 10.4468 9.33852C9.84401 9.33973 9.24121 9.34293 8.6384 9.34686C7.95186 9.35123 7.26531 9.35337 6.57876 9.35533C5.16705 9.35941 3.75535 9.36628 2.34366 9.37499Z" fill="#E5E5E5" fill-opacity="0.5"/>
<path d="M5.46599 17.9166C5.54095 17.9151 5.61591 17.9135 5.69314 17.9119C5.81324 17.9127 5.81324 17.9127 5.93577 17.9134C6.01882 17.9128 6.10188 17.9122 6.18745 17.9116C6.36278 17.9109 6.53811 17.9112 6.71344 17.9124C6.98165 17.9138 7.24953 17.9105 7.51772 17.9067C7.68824 17.9066 7.85875 17.9068 8.02927 17.9073C8.10934 17.906 8.1894 17.9047 8.2719 17.9034C8.8286 17.9125 8.8286 17.9125 9.12325 18.1972C9.17414 18.2829 9.22502 18.3687 9.27744 18.457C9.34328 18.5601 9.40912 18.6632 9.47695 18.7694C9.58098 18.9377 9.68418 19.1064 9.78575 19.2762C10.3781 20.228 11.2284 21.0086 12.016 21.7972C12.1108 21.8925 12.2055 21.9877 12.3003 22.083C12.5547 22.3386 12.8094 22.594 13.0642 22.8492C13.2239 23.0093 13.3836 23.1694 13.5433 23.3295C14.0447 23.8322 14.5463 24.3347 15.0482 24.837C15.6244 25.4137 16.2 25.991 16.7751 26.5689C17.222 27.0179 17.6695 27.4664 18.1175 27.9145C18.384 28.1811 18.6503 28.448 18.9159 28.7154C19.1658 28.9669 19.4163 29.2176 19.6674 29.4678C19.8019 29.6022 19.9357 29.7373 20.0694 29.8724C21.882 31.6731 23.9133 32.3087 26.4127 32.3414C26.4954 32.3425 26.578 32.3437 26.6632 32.3449C27.0086 32.3497 27.3539 32.3543 27.6993 32.356C27.9541 32.3575 28.2087 32.3614 28.4635 32.3658C28.5803 32.3655 28.5803 32.3655 28.6996 32.3652C29.0315 32.3726 29.2458 32.3822 29.5127 32.5889C29.722 32.8564 29.7366 32.9805 29.7372 33.3165C29.7389 33.4693 29.7389 33.4693 29.7405 33.6252C29.7394 33.792 29.7394 33.792 29.7381 33.9622C29.7392 34.1385 29.7392 34.1385 29.7402 34.3184C29.7416 34.6405 29.7413 34.9624 29.7401 35.2844C29.7391 35.6216 29.74 35.9587 29.7406 36.2958C29.7413 36.8619 29.7404 37.428 29.7385 37.9942C29.7364 38.6485 29.7371 39.3029 29.7392 39.9572C29.741 40.5192 29.7413 41.0812 29.7402 41.6432C29.7396 41.9787 29.7395 42.3143 29.7408 42.6499C29.7422 43.024 29.7403 43.398 29.7381 43.7721C29.7393 43.9389 29.7393 43.9389 29.7405 44.1091C29.7394 44.211 29.7383 44.3128 29.7372 44.4178C29.737 44.5504 29.737 44.5504 29.7368 44.6858C29.6695 45.009 29.5639 45.1205 29.297 45.3125C29.0059 45.3614 29.0059 45.3614 28.6593 45.3614C28.5954 45.362 28.5314 45.3625 28.4656 45.3631C28.2516 45.3644 28.0376 45.3629 27.8236 45.3615C27.6701 45.3618 27.5165 45.3624 27.363 45.3631C26.9456 45.3644 26.5284 45.3633 26.111 45.3617C25.6733 45.3604 25.2355 45.361 24.7977 45.3614C24.0614 45.3616 23.3251 45.3603 22.5888 45.358C21.7406 45.3554 20.8925 45.3553 20.0443 45.3564C19.2262 45.3575 18.4081 45.3569 17.59 45.3555C17.2432 45.3549 16.8963 45.3549 16.5495 45.3554C16.1391 45.3559 15.7288 45.3548 15.3185 45.3528C15.169 45.3522 15.0196 45.3522 14.8701 45.3526C11.9687 45.361 9.54301 44.2849 7.4708 42.279C5.81662 40.6222 4.67261 38.2214 4.67322 35.8599C4.67287 35.7851 4.67251 35.7104 4.67214 35.6333C4.67106 35.3836 4.67068 35.134 4.67031 34.8844C4.6697 34.705 4.66905 34.5256 4.66837 34.3463C4.66632 33.7585 4.6653 33.1706 4.66433 32.5828C4.66393 32.3804 4.66353 32.1779 4.66312 31.9754C4.66126 31.0249 4.65987 30.0743 4.65906 29.1238C4.6581 28.0261 4.65553 26.9285 4.65159 25.8308C4.64865 24.9823 4.6472 24.1338 4.64687 23.2853C4.64664 22.7784 4.64576 22.2716 4.64331 21.7647C4.64104 21.2884 4.64062 20.8122 4.64163 20.3359C4.64168 20.1609 4.64105 19.986 4.63972 19.811C4.638 19.5725 4.63868 19.3342 4.63996 19.0957C4.63889 19.0261 4.63782 18.9566 4.63672 18.885C4.64107 18.5525 4.66638 18.3865 4.87408 18.1212C5.09604 17.9554 5.19319 17.9191 5.46599 17.9166ZM6.2501 19.5312C6.24552 21.5381 6.24208 23.545 6.23998 25.5519C6.23897 26.4839 6.23761 27.4159 6.23536 28.3479C6.2334 29.161 6.23215 29.9741 6.23172 30.7872C6.23147 31.217 6.23088 31.6469 6.22945 32.0767C6.2281 32.4827 6.22772 32.8888 6.22801 33.2949C6.22795 33.4425 6.22757 33.5901 6.22681 33.7377C6.22296 34.5263 6.25193 35.3027 6.33617 36.0873C6.34364 36.1581 6.35112 36.2289 6.35882 36.3019C6.57033 38.0973 7.38728 39.6877 8.59385 41.0156C8.6476 41.0773 8.70135 41.139 8.75673 41.2025C10.2991 42.8706 12.5384 43.6164 14.7462 43.75C15.2 43.7623 15.6534 43.7624 16.1074 43.7611C16.2394 43.761 16.3713 43.761 16.5033 43.7611C16.8577 43.7611 17.2122 43.7606 17.5666 43.7599C17.9384 43.7593 18.3103 43.7592 18.6821 43.7591C19.3845 43.7588 20.0869 43.758 20.7893 43.757C21.7397 43.7557 22.6901 43.7552 23.6404 43.7546C25.1353 43.7537 26.6302 43.7517 28.1251 43.75C28.1251 40.5273 28.1251 37.3047 28.1251 33.9843C26.836 33.9521 25.547 33.9199 24.2188 33.8867C22.2923 33.4334 22.2923 33.4334 21.6981 33.136C21.6362 33.1078 21.5743 33.0797 21.5106 33.0507C20.391 32.5114 19.4813 31.6344 18.6141 30.7643C18.5087 30.6597 18.4033 30.5552 18.2979 30.4507C18.0149 30.1699 17.7329 29.8881 17.4511 29.6062C17.2143 29.3693 16.9771 29.1329 16.7398 28.8965C16.1794 28.338 15.6198 27.7786 15.0606 27.2188C14.4871 26.6446 13.9122 26.0719 13.3365 25.4999C12.8392 25.0056 12.3429 24.5104 11.8473 24.0144C11.5527 23.7196 11.2577 23.4251 10.9617 23.1316C10.6312 22.8036 10.3023 22.4739 9.97415 22.1435C9.92298 22.0923 9.87181 22.0411 9.8191 21.9883C9.30391 21.4706 8.8192 20.9684 8.47277 20.3186C8.43249 20.2493 8.39221 20.1799 8.35071 20.1084C8.29103 20.0055 8.23134 19.9026 8.16985 19.7966C7.89575 19.5164 7.86717 19.4923 7.50408 19.4749C7.3535 19.4787 7.20297 19.4855 7.05265 19.4951C6.93685 19.4991 6.93685 19.4991 6.81872 19.503C6.62907 19.5098 6.43955 19.5202 6.2501 19.5312Z" fill="#E5E5E5" fill-opacity="0.5"/>
<path d="M45.0562 2.613C45.5327 2.97762 45.9627 3.38512 46.3868 3.80862C46.515 3.93514 46.515 3.93514 46.6458 4.06421C48.6768 6.17348 49.2755 8.84067 49.2455 11.6852C49.2077 13.1538 48.8022 14.4189 48.1446 15.7227C48.0935 15.8249 48.0424 15.9271 47.9897 16.0324C46.8988 18.044 45.0098 19.7059 42.8345 20.4346C42.1017 20.6989 41.5319 21.1501 40.9146 21.613C40.1358 22.1967 39.3238 22.7334 38.5172 23.2776C38.3111 23.4173 38.1062 23.5583 37.9017 23.7004C37.7994 23.7707 37.697 23.8411 37.5916 23.9136C37.466 24.0008 37.466 24.0008 37.3379 24.0898C37.0913 24.229 36.9024 24.2889 36.6211 24.3164C36.0876 24.1281 36.0876 24.1281 35.9256 23.8045C35.8339 23.5163 35.7903 23.2497 35.7567 22.9492C35.7441 22.8385 35.7316 22.7277 35.7186 22.6136C35.7062 22.4987 35.6939 22.3839 35.6812 22.2657C35.6616 22.0934 35.6616 22.0934 35.6415 21.9178C35.5889 21.4454 35.5387 20.9836 35.5469 20.5078C35.4301 20.4756 35.3133 20.4434 35.1929 20.4102C34.1713 20.0686 33.2377 19.4424 32.4219 18.75C32.3523 18.6945 32.2827 18.639 32.211 18.5818C30.3723 17.0544 29.2403 14.7488 28.9063 12.4024C28.8198 10.8552 28.7914 9.2913 29.2969 7.81253C29.3173 7.75118 29.3377 7.68982 29.3588 7.62661C29.878 6.0968 30.7067 4.85383 31.836 3.71097C31.8988 3.6411 31.9616 3.57123 32.0263 3.49925C35.2679 -0.0235497 41.3237 -0.101807 45.0562 2.613ZM33.2032 4.68753C33.1415 4.74128 33.0798 4.79503 33.0163 4.85042C31.5501 6.20608 30.6342 8.29308 30.526 10.2661C30.4381 12.9696 31.234 15.1359 33.0872 17.1143C34.0139 17.9947 35.1971 18.7142 36.4191 19.103C36.6036 19.1658 36.6036 19.1658 36.9141 19.336C37.1271 19.8233 37.1607 20.3541 37.2132 20.8802C37.2477 21.3932 37.2477 21.3932 37.4024 21.875C37.7055 21.732 37.9765 21.5634 38.2531 21.3745C38.3417 21.314 38.4304 21.2535 38.5218 21.1912C38.6156 21.1268 38.7095 21.0625 38.8062 20.9961C38.9512 20.8974 38.9512 20.8974 39.0992 20.7966C39.5164 20.5115 39.9321 20.226 40.3355 19.9215C41.0016 19.4191 41.6468 19.0728 42.4279 18.7844C43.3389 18.4364 44.0948 17.9267 44.8243 17.2852C44.8975 17.2212 44.9708 17.1573 45.0463 17.0914C46.1146 16.0943 46.8103 14.8519 47.2657 13.4766C47.2988 13.3826 47.3319 13.2885 47.366 13.1916C48.0056 11.0077 47.5599 8.60266 46.5 6.6398C46.1907 6.10856 45.8124 5.63885 45.4102 5.17581C45.3471 5.10292 45.2841 5.03004 45.2191 4.95494C43.7193 3.34776 41.4926 2.43944 39.3185 2.34073C37.0057 2.36069 34.9206 3.12697 33.2032 4.68753Z" fill="#E5E5E5" fill-opacity="0.5"/>
<path d="M13.045 11.6761C13.4779 11.7543 13.7743 12.0108 14.1113 12.2803C14.2657 12.3977 14.4202 12.5151 14.5748 12.6324C14.6522 12.6921 14.7296 12.7518 14.8094 12.8133C15.1579 13.0788 15.5161 13.3296 15.8752 13.5803C16.0129 13.6772 16.1504 13.7741 16.288 13.871C16.4251 13.9674 16.5621 14.0638 16.6992 14.1601C16.974 14.3533 17.2486 14.5466 17.5232 14.74C17.5916 14.7881 17.66 14.8363 17.7304 14.8859C18.306 15.2923 18.876 15.7062 19.4459 16.1205C19.9743 16.5027 20.5108 16.8712 21.051 17.2363C25.2374 20.08 28.4159 23.8143 29.4495 28.8879C29.5013 29.2541 29.4927 29.393 29.3701 29.7546C29.1992 29.9805 29.1992 29.9805 29.0039 30.0781C28.8655 30.0888 28.7267 30.0936 28.588 30.0954C28.4588 30.0973 28.4588 30.0973 28.3269 30.0992C28.1866 30.1003 28.1866 30.1003 28.0434 30.1014C27.9467 30.1022 27.8501 30.103 27.7505 30.1038C27.5451 30.1051 27.3397 30.1062 27.1343 30.1069C26.8235 30.1086 26.5128 30.1129 26.202 30.1172C23.8243 30.1356 22.6066 29.3252 20.923 27.6756C20.7611 27.5152 20.5996 27.3546 20.4382 27.1937C20.349 27.1051 20.2597 27.0166 20.1678 26.9253C19.8758 26.6353 19.5843 26.3449 19.2928 26.0544C19.1915 25.9534 19.0901 25.8524 18.9887 25.7515C18.5125 25.2771 18.0364 24.8024 17.5607 24.3275C17.0154 23.7832 16.4693 23.2396 15.9225 22.6968C15.4971 22.2743 15.0724 21.8511 14.6483 21.4273C14.3962 21.1754 14.1438 20.9239 13.8906 20.6731C10.8184 17.6295 10.8184 17.6295 10.791 15.3747C10.7983 14.6138 10.8642 13.9618 11.2305 13.2812C11.2753 13.1954 11.3201 13.1095 11.3663 13.0211C12.1351 11.6494 12.1351 11.6494 13.045 11.6761ZM12.8906 13.6719C12.4333 14.5395 12.3577 15.4303 12.5576 16.3898C12.9258 17.4672 13.9683 18.2801 14.7518 19.066C14.8467 19.1615 14.9417 19.2571 15.0366 19.3527C15.3443 19.6624 15.6525 19.9716 15.9607 20.2808C16.0676 20.3881 16.1745 20.4954 16.2814 20.6027C16.7832 21.1064 17.2853 21.6099 17.7876 22.113C18.3649 22.6912 18.9413 23.2702 19.517 23.8499C19.9643 24.3001 20.4123 24.7496 20.8609 25.1985C21.128 25.4658 21.3946 25.7333 21.6605 26.0017C21.9104 26.2539 22.1612 26.5051 22.4127 26.7556C22.5478 26.8905 22.6818 27.0264 22.8158 27.1624C23.9728 28.3098 24.988 28.5303 26.5808 28.5278C26.9003 28.5254 27.2197 28.5214 27.5391 28.5156C27.4259 27.8485 27.2574 27.2375 27.002 26.6113C26.9509 26.4857 26.9509 26.4857 26.8989 26.3576C26.1374 24.5337 25.0854 23.0145 23.7305 21.582C23.6517 21.4969 23.5729 21.4118 23.4917 21.3241C22.3547 20.1363 20.9737 19.2456 19.6297 18.3109C19.1699 17.9904 18.7151 17.6634 18.2617 17.334C17.4047 16.7118 16.5372 16.1051 15.6687 15.4991C15.2851 15.2309 14.9026 14.9612 14.5203 14.6911C14.4544 14.6446 14.3884 14.5981 14.3205 14.5502C14.2579 14.5059 14.1953 14.4617 14.1308 14.4161C14.0709 14.3739 14.011 14.3317 13.9493 14.2883C13.8247 14.1995 13.701 14.1095 13.5779 14.0187C13.267 13.761 13.267 13.761 12.8906 13.6719Z" fill="#E5E5E5" fill-opacity="0.5"/>
<path d="M39.4532 4.68749C40.0646 5.06475 40.4791 5.69155 40.9181 6.24999C41.0001 6.35248 41.0821 6.45497 41.1641 6.55745C42.7805 8.59601 44.0131 10.8111 43.7501 13.4765C43.5278 14.6865 42.7608 15.7582 41.7665 16.4703C40.5311 17.2579 39.1641 17.3835 37.7336 17.1234C36.4702 16.7437 35.4308 15.8463 34.794 14.7037C34.204 13.5292 34.1957 12.0784 34.5216 10.8154C35.1938 8.79882 36.4752 7.10049 37.8358 5.49925C37.8854 5.44062 37.935 5.38198 37.9862 5.32156C38.4286 4.80751 38.76 4.56531 39.4532 4.68749ZM38.9649 6.73827C38.7782 6.94149 38.6052 7.14503 38.4339 7.36083C38.3821 7.42609 38.3303 7.49135 38.2769 7.55859C36.9846 9.22255 35.8809 11.0199 36.0353 13.1836C36.2112 13.9774 36.6623 14.6377 37.3353 15.0947C38.1774 15.5795 39.0666 15.6814 40.0254 15.464C40.8988 15.1467 41.476 14.5963 41.9034 13.7806C42.2676 12.935 42.1868 11.8974 41.9007 11.0412C41.3958 9.78251 40.683 8.67641 39.8439 7.61717C39.7778 7.52893 39.7117 7.44068 39.6436 7.34976C39.5828 7.26882 39.522 7.18788 39.4593 7.10448C39.4061 7.03348 39.3528 6.96248 39.298 6.88933C39.2525 6.83948 39.2071 6.78963 39.1603 6.73827C39.0958 6.73827 39.0314 6.73827 38.9649 6.73827Z" fill="#E5E5E5" fill-opacity="0.5"/>
<path d="M10.255 35.8879C10.3536 35.8868 10.4521 35.8857 10.5537 35.8846C10.6613 35.8854 10.7688 35.8862 10.8796 35.887C10.9934 35.8863 11.1071 35.8856 11.2243 35.8849C11.6008 35.8832 11.9772 35.8843 12.3536 35.8856C12.6149 35.8854 12.8761 35.885 13.1374 35.8845C13.6851 35.8838 14.2328 35.8847 14.7805 35.8866C15.4136 35.8887 16.0466 35.888 16.6797 35.8859C17.2234 35.8841 17.7672 35.8839 18.3109 35.8849C18.6356 35.8855 18.9602 35.8854 19.2849 35.8843C19.6468 35.8833 20.0087 35.8848 20.3706 35.887C20.4782 35.8862 20.5857 35.8854 20.6965 35.8846C20.8444 35.8862 20.8444 35.8862 20.9953 35.8879C21.0808 35.8881 21.1664 35.8882 21.2545 35.8884C21.5606 35.9538 21.6793 36.0898 21.8751 36.3281C21.927 36.5235 21.927 36.5235 21.924 36.7188C21.9255 36.8155 21.9255 36.8155 21.927 36.9141C21.8517 37.1975 21.7074 37.3136 21.4845 37.5C21.2545 37.5492 21.2545 37.5492 20.9953 37.5496C20.8967 37.5507 20.7981 37.5518 20.6965 37.553C20.589 37.5522 20.4814 37.5514 20.3706 37.5506C20.2569 37.5513 20.1431 37.5519 20.026 37.5526C19.6495 37.5544 19.2731 37.5532 18.8966 37.5519C18.6354 37.5522 18.3741 37.5525 18.1129 37.553C17.5651 37.5537 17.0174 37.5528 16.4697 37.5509C15.8366 37.5488 15.2036 37.5495 14.5705 37.5517C14.0268 37.5534 13.4831 37.5537 12.9393 37.5527C12.6147 37.5521 12.29 37.5521 11.9654 37.5533C11.6034 37.5543 11.2416 37.5527 10.8796 37.5506C10.7721 37.5514 10.6645 37.5521 10.5537 37.553C10.4058 37.5513 10.4058 37.5513 10.255 37.5496C10.1694 37.5495 10.0839 37.5493 9.99574 37.5492C9.68967 37.4838 9.57098 37.3477 9.37512 37.1094C9.32324 36.9141 9.32324 36.9141 9.32629 36.7188C9.32478 36.6221 9.32478 36.6221 9.32324 36.5235C9.45066 36.0438 9.7915 35.8887 10.255 35.8879Z" fill="#E5E5E5" fill-opacity="0.5"/>
<path d="M13.0082 39.7932C13.0991 39.7925 13.19 39.7919 13.2836 39.7912C13.584 39.7894 13.8843 39.7906 14.1847 39.7919C14.3934 39.7916 14.6021 39.7913 14.8108 39.7908C15.2482 39.7902 15.6855 39.791 16.1229 39.7928C16.6839 39.7951 17.2447 39.7938 17.8056 39.7915C18.2366 39.79 18.6675 39.7905 19.0984 39.7915C19.3053 39.7918 19.5121 39.7914 19.7189 39.7905C20.0079 39.7895 20.2968 39.7911 20.5858 39.7932C20.6714 39.7924 20.757 39.7916 20.8453 39.7908C21.4247 39.7989 21.4247 39.7989 21.7327 40.03C21.8868 40.2511 21.9281 40.3583 21.924 40.625C21.9255 40.7217 21.9255 40.7217 21.927 40.8203C21.8476 41.1194 21.733 41.2198 21.4845 41.4063C21.1854 41.4653 20.8898 41.4596 20.5858 41.4568C20.4949 41.4575 20.404 41.4582 20.3104 41.4589C20.01 41.4606 19.7097 41.4595 19.4093 41.4582C19.2006 41.4584 18.9919 41.4588 18.7832 41.4593C18.3458 41.4599 17.9084 41.459 17.4711 41.4572C16.9101 41.455 16.3493 41.4563 15.7884 41.4586C15.3574 41.46 14.9265 41.4596 14.4956 41.4585C14.2887 41.4583 14.0819 41.4586 13.8751 41.4595C13.5861 41.4605 13.2972 41.459 13.0082 41.4568C12.9226 41.4576 12.8369 41.4584 12.7487 41.4592C12.1693 41.4511 12.1693 41.4511 11.8613 41.22C11.7072 40.9989 11.6659 40.8917 11.67 40.625C11.6685 40.5283 11.6685 40.5283 11.667 40.4297C11.8491 39.7441 12.4217 39.7878 13.0082 39.7932Z" fill="#E5E5E5" fill-opacity="0.5"/>
<path d="M10.8156 31.9794C10.9181 31.979 11.0207 31.9786 11.1264 31.9782C11.3431 31.978 11.5598 31.9787 11.7765 31.9803C12.1083 31.9824 12.4399 31.9803 12.7717 31.9778C12.9823 31.9781 13.1929 31.9786 13.4034 31.9794C13.5027 31.9786 13.602 31.9778 13.7043 31.977C14.3908 31.9861 14.3908 31.9861 14.7109 32.2176C14.8543 32.4378 14.8968 32.5518 14.8927 32.8125C14.8937 32.877 14.8947 32.9414 14.8958 33.0078C14.8145 33.3138 14.7127 33.4061 14.4532 33.5938C14.1039 33.6539 13.7572 33.6485 13.4034 33.6456C13.2496 33.6462 13.2496 33.6462 13.0926 33.6468C12.8759 33.647 12.6592 33.6463 12.4425 33.6447C12.1107 33.6426 11.7791 33.6447 11.4473 33.6472C11.2367 33.6469 11.0261 33.6464 10.8156 33.6456C10.7163 33.6464 10.617 33.6472 10.5147 33.648C9.82817 33.6389 9.82817 33.6389 9.50806 33.4074C9.36473 33.1872 9.32222 33.0732 9.32629 32.8125C9.32478 32.7158 9.32478 32.7158 9.32324 32.6172C9.51896 31.8804 10.193 31.9744 10.8156 31.9794Z" fill="#E5E5E5" fill-opacity="0.5"/>
</g>
<defs>
<clipPath id="clip0_3_152">
<rect width="50" height="50" fill="white"/>
</clipPath>
</defs>
</svg>
