<svg width="51" height="51" viewBox="0 0 51 51" fill="none" xmlns="http://www.w3.org/2000/svg">
<path d="M42.5 41.9645C42.5 43.4378 41.9829 44.6923 40.9488 45.7279C39.9174 46.7635 38.6637 47.2812 37.1875 47.2812C35.9153 47.2812 34.7919 46.8761 33.8172 46.0657C32.8426 45.2554 32.2377 44.2439 32.0025 43.0312H18.9975C18.7637 44.2439 18.1595 45.2554 17.1849 46.0657C16.2088 46.8761 15.0847 47.2812 13.8125 47.2812C12.3363 47.2812 11.0826 46.7649 10.0513 45.7321C9.01708 44.7008 8.5 43.4477 8.5 41.973C8.5 40.4982 9.01708 39.2438 10.0513 38.2096C11.0854 37.1755 12.3392 36.6577 13.8125 36.6562C15.0847 36.6562 16.2088 37.0614 17.1849 37.8718C18.1595 38.6821 18.7645 39.6936 18.9996 40.9062H24.4375V26.5625H18.9975C18.7637 27.7752 18.1595 28.7867 17.1849 29.597C16.2088 30.4073 15.0847 30.8125 13.8125 30.8125C12.3363 30.8125 11.0826 30.2961 10.0513 29.2634C9.01708 28.232 8.5 26.979 8.5 25.5042C8.5 24.0295 9.01708 22.775 10.0513 21.7409C11.0854 20.7067 12.3392 20.1889 13.8125 20.1875C15.0847 20.1875 16.2088 20.5927 17.1849 21.403C18.1595 22.2133 18.7645 23.2248 18.9996 24.4375H24.4375V10.0512H18.9975C18.7637 11.2639 18.1595 12.2761 17.1849 13.0879C16.2088 13.8982 15.0847 14.3034 13.8125 14.3034C12.3363 14.3034 11.0826 13.787 10.0513 12.7543C9.01708 11.7229 8.5 10.4699 8.5 8.99512C8.5 7.52037 9.01708 6.26521 10.0513 5.22963C11.0854 4.19404 12.3392 3.67696 13.8125 3.67838C15.0847 3.67838 16.2088 4.08354 17.1849 4.89387C18.1595 5.70421 18.7645 6.71571 18.9996 7.92838H26.5625V24.4375H32.0025C32.2363 23.2248 32.8405 22.2133 33.8151 21.403C34.7912 20.5927 35.9153 20.1875 37.1875 20.1875C38.6637 20.1875 39.9174 20.7032 40.9488 21.7345C41.9829 22.7672 42.5 24.021 42.5 25.4958C42.5 26.9705 41.9829 28.225 40.9488 29.2591C39.9146 30.2933 38.6608 30.8111 37.1875 30.8125C35.9153 30.8125 34.7919 30.4073 33.8172 29.597C32.8426 28.7867 32.2377 27.7752 32.0025 26.5625H26.5625V40.9062H32.0025C32.2363 39.6936 32.8405 38.6821 33.8151 37.8718C34.7912 37.0614 35.9153 36.6562 37.1875 36.6562C38.6637 36.6562 39.9174 37.1719 40.9488 38.2033C41.9829 39.236 42.5 40.4898 42.5 41.9645ZM40.375 41.9688C40.375 41.0947 40.0626 40.3445 39.4379 39.7184C38.8117 39.0936 38.0616 38.7812 37.1875 38.7812C36.3134 38.7812 35.5633 39.0936 34.9371 39.7184C34.3124 40.3445 34 41.0947 34 41.9688C34 42.8428 34.3124 43.593 34.9371 44.2191C35.5633 44.8439 36.3134 45.1562 37.1875 45.1562C38.0616 45.1562 38.8117 44.8439 39.4379 44.2191C40.0626 43.593 40.375 42.8428 40.375 41.9688ZM17 41.9688C17 41.0947 16.6876 40.3445 16.0629 39.7184C15.4367 39.0936 14.6866 38.7812 13.8125 38.7812C12.9384 38.7812 12.1883 39.0936 11.5621 39.7184C10.9374 40.3445 10.625 41.0947 10.625 41.9688C10.625 42.8428 10.9374 43.593 11.5621 44.2191C12.1883 44.8439 12.9384 45.1562 13.8125 45.1562C14.6866 45.1562 15.4367 44.8439 16.0629 44.2191C16.6876 43.593 17 42.8428 17 41.9688ZM40.375 25.5C40.375 24.6259 40.0626 23.8758 39.4379 23.2496C38.8117 22.6249 38.0616 22.3125 37.1875 22.3125C36.3134 22.3125 35.5633 22.6249 34.9371 23.2496C34.311 23.8744 33.9986 24.6245 34 25.5C34.0014 26.3755 34.3138 27.1256 34.9371 27.7504C35.5605 28.3751 36.3106 28.6875 37.1875 28.6875C38.0644 28.6875 38.8145 28.3751 39.4379 27.7504C40.0626 27.1242 40.375 26.3741 40.375 25.5ZM17 25.5C17 24.6259 16.6876 23.8758 16.0629 23.2496C15.4367 22.6249 14.6866 22.3125 13.8125 22.3125C12.9384 22.3125 12.1883 22.6249 11.5621 23.2496C10.9374 23.8758 10.625 24.6259 10.625 25.5C10.625 26.3741 10.9374 27.1242 11.5621 27.7504C12.1869 28.3765 12.937 28.6889 13.8125 28.6875C14.688 28.6861 15.4381 28.3737 16.0629 27.7504C16.6876 27.1242 17 26.3741 17 25.5ZM17 8.98875C17 8.11467 16.6876 7.36525 16.0629 6.7405C15.4367 6.11575 14.6866 5.80338 13.8125 5.80338C12.9384 5.80338 12.1883 6.11575 11.5621 6.7405C10.9374 7.36525 10.625 8.11538 10.625 8.99088C10.625 9.86638 10.9374 10.6158 11.5621 11.2391C12.1883 11.8653 12.9384 12.1784 13.8125 12.1784C14.6866 12.1784 15.4367 11.8653 16.0629 11.2391C16.6876 10.6144 17 9.86496 17 8.99088" fill="#E5E5E5" fill-opacity="0.5"/>
</svg>
