<svg width="55" height="55" viewBox="0 0 55 55" fill="none" xmlns="http://www.w3.org/2000/svg">
<path d="M21.7365 3.38292C21.8534 3.38225 21.9702 3.38158 22.0906 3.38089C22.4791 3.37919 22.8675 3.38053 23.256 3.38189C23.5358 3.3813 23.8155 3.38054 24.0953 3.3796C24.7745 3.3777 25.4536 3.3781 26.1327 3.37935C26.685 3.38033 27.2373 3.38045 27.7896 3.37999C27.8684 3.37992 27.9472 3.37986 28.0284 3.37979C28.1885 3.37965 28.3486 3.37951 28.5087 3.37937C30.0078 3.37815 31.5069 3.37955 33.006 3.38186C34.2905 3.38378 35.5749 3.38345 36.8593 3.38147C38.3533 3.37916 39.8473 3.37826 41.3413 3.37958C41.5008 3.37972 41.6603 3.37985 41.8198 3.37999C41.9375 3.38009 41.9375 3.38009 42.0576 3.38019C42.6088 3.38056 43.16 3.37993 43.7112 3.37892C44.4539 3.37759 45.1967 3.37855 45.9394 3.38102C46.2116 3.38159 46.4837 3.38143 46.7559 3.38048C47.1283 3.3793 47.5005 3.38079 47.8729 3.38292C47.9798 3.38196 48.0867 3.38101 48.1969 3.38002C49.3923 3.39326 50.375 3.79315 51.2402 4.61913C52.5132 5.95255 52.4866 7.40409 52.4789 9.14427C52.4792 9.37578 52.4797 9.60729 52.4802 9.83879C52.4808 10.3224 52.4799 10.806 52.4779 11.2896C52.4755 11.9068 52.4769 12.524 52.4794 13.1413C52.481 13.6189 52.4805 14.0964 52.4794 14.574C52.4791 14.8015 52.4794 15.029 52.4804 15.2565C52.4861 16.8897 52.425 18.2023 51.2402 19.4433C50.4221 20.2243 49.4639 20.6325 48.3398 20.7324C48.3774 20.805 48.4149 20.8775 48.4536 20.9523C48.5024 21.0481 48.5513 21.1439 48.6017 21.2427C48.6503 21.3374 48.6989 21.4321 48.749 21.5297C48.9286 21.9184 48.9976 22.2528 49.0002 22.6797C49.0013 22.8109 49.0013 22.8109 49.0025 22.9447C49.0028 23.0398 49.0031 23.1348 49.0034 23.2327C49.0041 23.3336 49.0048 23.4344 49.0055 23.5383C49.0076 23.8721 49.0089 24.2058 49.01 24.5396C49.0104 24.6539 49.0109 24.7681 49.0113 24.8859C49.0135 25.4911 49.0151 26.0963 49.0161 26.7016C49.0173 27.3248 49.021 27.9479 49.0252 28.5711C49.0281 29.0519 49.0289 29.5327 49.0293 30.0135C49.0299 30.2431 49.0311 30.4727 49.0331 30.7022C49.0535 33.1971 49.0535 33.1971 48.3398 34.2676C48.4425 34.2703 48.5451 34.2731 48.6508 34.276C50.1394 34.3413 51.2537 34.6705 52.3115 35.7786C53.4033 37.0744 53.3454 38.4735 53.3383 40.0818C53.3386 40.3133 53.339 40.5448 53.3396 40.7763C53.3402 41.2599 53.3393 41.7435 53.3373 42.2271C53.3348 42.8443 53.3362 43.4615 53.3388 44.0788C53.3404 44.5564 53.3399 45.0339 53.3388 45.5115C53.3385 45.739 53.3388 45.9665 53.3398 46.194C53.3455 47.8272 53.2844 49.1398 52.0996 50.3808C50.8886 51.5369 49.5871 51.6252 47.9927 51.6113C47.7968 51.6111 47.6008 51.6112 47.4049 51.6115C46.876 51.6116 46.3472 51.6091 45.8184 51.6061C45.2646 51.6034 44.7108 51.6031 44.1569 51.6026C43.1096 51.6013 42.0623 51.5978 41.015 51.5934C39.822 51.5886 38.6291 51.5863 37.4361 51.5841C34.9835 51.5796 32.5308 51.572 30.0781 51.5625C30.0781 50.9953 30.0781 50.4281 30.0781 49.8437C31.3189 49.8437 32.5596 49.8437 33.8379 49.8437C33.9088 49.631 33.9797 49.4183 34.0527 49.1992C34.1421 49.0041 34.2353 48.8108 34.3322 48.6193C34.3848 48.5147 34.4374 48.4102 34.4917 48.3025C34.5462 48.1952 34.6008 48.0878 34.657 47.9773C34.7124 47.8675 34.7678 47.7577 34.8248 47.6445C34.961 47.3748 35.0975 47.1053 35.2344 46.8359C35.6629 46.9704 36.0569 47.1277 36.4563 47.3327C36.5502 47.3807 36.6441 47.4286 36.7408 47.4779C36.8109 47.5142 36.8809 47.5505 36.9531 47.5879C36.7943 47.9236 36.6354 48.2593 36.4764 48.595C36.4312 48.6905 36.386 48.786 36.3394 48.8845C36.2962 48.9759 36.2529 49.0673 36.2083 49.1614C36.1684 49.2458 36.1284 49.3302 36.0873 49.4171C36.0192 49.56 35.9497 49.7022 35.8789 49.8437C36.3398 49.8437 36.8006 49.8437 37.2754 49.8437C37.3463 49.631 37.4172 49.4183 37.4902 49.1992C37.5796 49.0041 37.6728 48.8108 37.7697 48.6193C37.8223 48.5147 37.8749 48.4102 37.9292 48.3025C37.9837 48.1952 38.0383 48.0878 38.0945 47.9773C38.1499 47.8675 38.2053 47.7577 38.2623 47.6445C38.3985 47.3748 38.535 47.1053 38.6719 46.8359C39.1004 46.9704 39.4944 47.1277 39.8938 47.3327C39.9877 47.3807 40.0816 47.4286 40.1783 47.4779C40.2484 47.5142 40.3184 47.5505 40.3906 47.5879C40.2318 47.9236 40.0729 48.2593 39.9139 48.595C39.8687 48.6905 39.8235 48.786 39.7769 48.8845C39.7337 48.9759 39.6904 49.0673 39.6458 49.1614C39.6059 49.2458 39.5659 49.3302 39.5248 49.4171C39.4567 49.56 39.3872 49.7022 39.3164 49.8437C39.7773 49.8437 40.2381 49.8437 40.7129 49.8437C40.7838 49.631 40.8547 49.4183 40.9277 49.1992C41.0171 49.0041 41.1103 48.8108 41.2072 48.6193C41.2598 48.5147 41.3124 48.4102 41.3667 48.3025C41.4212 48.1952 41.4758 48.0878 41.532 47.9773C41.5874 47.8675 41.6428 47.7577 41.6998 47.6445C41.836 47.3748 41.9725 47.1053 42.1094 46.8359C42.5379 46.9704 42.9319 47.1277 43.3313 47.3327C43.4252 47.3807 43.5191 47.4286 43.6158 47.4779C43.6859 47.5142 43.7559 47.5505 43.8281 47.5879C43.6693 47.9236 43.5104 48.2593 43.3514 48.595C43.3062 48.6905 43.261 48.786 43.2144 48.8845C43.1712 48.9759 43.1279 49.0673 43.0833 49.1614C43.0434 49.2458 43.0034 49.3302 42.9623 49.4171C42.8942 49.56 42.8247 49.7022 42.7539 49.8437C43.2148 49.8437 43.6756 49.8437 44.1504 49.8437C44.2213 49.631 44.2922 49.4183 44.3652 49.1992C44.4546 49.0041 44.5478 48.8108 44.6447 48.6193C44.6973 48.5147 44.7499 48.4102 44.8042 48.3025C44.8587 48.1952 44.9133 48.0878 44.9695 47.9773C45.0249 47.8675 45.0803 47.7577 45.1373 47.6445C45.2735 47.3748 45.41 47.1053 45.5469 46.8359C45.9754 46.9704 46.3694 47.1277 46.7688 47.3327C46.8627 47.3807 46.9566 47.4286 47.0533 47.4779C47.1234 47.5142 47.1934 47.5505 47.2656 47.5879C47.1068 47.9236 46.9479 48.2593 46.7889 48.595C46.7437 48.6905 46.6985 48.786 46.6519 48.8845C46.6087 48.9759 46.5654 49.0673 46.5208 49.1614C46.4809 49.2458 46.4409 49.3302 46.3998 49.4171C46.3317 49.56 46.2622 49.7022 46.1914 49.8437C46.6523 49.8437 47.1131 49.8437 47.5879 49.8437C47.6588 49.631 47.7297 49.4183 47.8027 49.1992C47.8921 49.0041 47.9853 48.8108 48.0822 48.6193C48.1348 48.5147 48.1874 48.4102 48.2417 48.3025C48.2962 48.1952 48.3508 48.0878 48.407 47.9773C48.4624 47.8675 48.5178 47.7577 48.5748 47.6445C48.711 47.3748 48.8475 47.1053 48.9844 46.8359C49.5961 47.0279 50.1336 47.2954 50.7031 47.5879C50.3841 48.2614 50.065 48.9349 49.7363 49.6289C50.7945 48.9706 50.7945 48.9706 51.3477 47.9101C51.4777 47.1299 51.5132 46.3363 51.5625 45.5469C46.4578 45.5469 41.3531 45.5469 36.0938 45.5469C36.0938 44.9797 36.0938 44.4125 36.0938 43.8281C41.1984 43.8281 46.3031 43.8281 51.5625 43.8281C51.5625 43.2609 51.5625 42.6937 51.5625 42.1094C47.025 42.1094 42.4875 42.1094 37.8125 42.1094C37.8125 41.5422 37.8125 40.975 37.8125 40.3906C42.35 40.3906 46.8875 40.3906 51.5625 40.3906C51.5532 38.4792 51.5532 38.4792 50.6545 36.9095C50.3606 36.6542 50.0866 36.4837 49.7363 36.3086C50.0554 36.9821 50.3744 37.6556 50.7031 38.3496C50.4594 38.4737 50.2157 38.5977 49.9646 38.7256C49.888 38.7648 49.8115 38.8041 49.7326 38.8445C49.2231 39.1015 49.2231 39.1015 48.9844 39.1015C48.785 38.708 48.5861 38.3142 48.3877 37.9201C48.3202 37.786 48.2524 37.652 48.1845 37.5181C48.0871 37.3258 47.9902 37.1331 47.8934 36.9405C47.8349 36.8246 47.7764 36.7088 47.7161 36.5894C47.5879 36.3086 47.5879 36.3086 47.5879 36.0937C47.1271 36.0937 46.6662 36.0937 46.1914 36.0937C46.7232 37.1572 46.7232 37.1572 47.2656 38.2422C46.9337 38.4911 46.6515 38.6712 46.2854 38.8531C46.1921 38.9001 46.0987 38.947 46.0026 38.9954C45.7617 39.1015 45.7617 39.1015 45.5469 39.1015C45.3475 38.708 45.1486 38.3142 44.9502 37.9201C44.8827 37.786 44.8149 37.652 44.747 37.5181C44.6496 37.3258 44.5527 37.1331 44.4559 36.9405C44.3974 36.8246 44.3389 36.7088 44.2786 36.5894C44.1504 36.3086 44.1504 36.3086 44.1504 36.0937C43.6896 36.0937 43.2287 36.0937 42.7539 36.0937C43.1084 36.8027 43.4629 37.5117 43.8281 38.2422C43.4962 38.4911 43.214 38.6712 42.8479 38.8531C42.7546 38.9001 42.6612 38.947 42.5651 38.9954C42.3242 39.1015 42.3242 39.1015 42.1094 39.1015C41.91 38.708 41.7111 38.3142 41.5127 37.9201C41.4452 37.786 41.3774 37.652 41.3095 37.5181C41.2121 37.3258 41.1152 37.1331 41.0184 36.9405C40.9599 36.8246 40.9014 36.7088 40.8411 36.5894C40.7129 36.3086 40.7129 36.3086 40.7129 36.0937C40.323 36.0937 39.933 36.0937 39.5313 36.0937C39.5313 35.5265 39.5313 34.9594 39.5313 34.375C39.6376 34.375 39.744 34.375 39.8535 34.375C39.898 34.2334 39.898 34.2334 39.9435 34.089C40.0583 33.7595 40.1905 33.4615 40.3478 33.1505C40.4004 33.046 40.4531 32.9414 40.5073 32.8337C40.5618 32.7264 40.6164 32.6191 40.6726 32.5085C40.728 32.3987 40.7834 32.2889 40.8405 32.1758C40.9766 31.906 41.1131 31.6365 41.25 31.3672C41.6785 31.5016 42.0726 31.6589 42.4719 31.864C42.5658 31.9119 42.6597 31.9598 42.7564 32.0092C42.8265 32.0455 42.8966 32.0817 42.9688 32.1191C42.8099 32.4548 42.651 32.7905 42.4921 33.1262C42.4469 33.2218 42.4016 33.3173 42.3551 33.4157C42.3118 33.5071 42.2685 33.5985 42.2239 33.6927C42.184 33.7771 42.1441 33.8615 42.1029 33.9484C42.0348 34.0912 41.9653 34.2334 41.8945 34.375C42.3554 34.375 42.8162 34.375 43.291 34.375C43.3619 34.1623 43.4328 33.9496 43.5059 33.7305C43.5952 33.5354 43.6885 33.342 43.7853 33.1505C43.8379 33.046 43.8906 32.9414 43.9448 32.8337C43.9993 32.7264 44.0539 32.6191 44.1101 32.5085C44.1655 32.3987 44.2209 32.2889 44.278 32.1758C44.4141 31.906 44.5506 31.6365 44.6875 31.3672C45.2993 31.5591 45.8367 31.8266 46.4063 32.1191C46.0872 32.7927 45.7682 33.4662 45.4395 34.1601C46.4976 33.5018 46.4976 33.5018 47.0508 32.4414C47.1808 31.6611 47.2163 30.8676 47.2656 30.0781C44.7133 30.0781 42.1609 30.0781 39.5313 30.0781C39.5313 29.5109 39.5313 28.9437 39.5313 28.3594C42.0836 28.3594 44.6359 28.3594 47.2656 28.3594C47.2656 27.7922 47.2656 27.225 47.2656 26.6406C44.1461 26.6406 41.0266 26.6406 37.8125 26.6406C37.8125 26.0734 37.8125 25.5062 37.8125 24.9219C40.932 24.9219 44.0516 24.9219 47.2656 24.9219C47.2563 23.0104 47.2563 23.0104 46.3576 21.4407C46.0637 21.1855 45.7897 21.015 45.4395 20.8398C45.7585 21.5134 46.0775 22.1869 46.4063 22.8808C46.0407 23.067 46.0407 23.067 45.6677 23.2568C45.5912 23.2961 45.5146 23.3353 45.4357 23.3758C44.9262 23.6328 44.9262 23.6328 44.6875 23.6328C44.4881 23.2392 44.2892 22.8454 44.0909 22.4513C44.0233 22.3172 43.9556 22.1832 43.8877 22.0493C43.7902 21.857 43.6933 21.6644 43.5965 21.4718C43.538 21.3559 43.4795 21.24 43.4192 21.1206C43.291 20.8398 43.291 20.8398 43.291 20.625C42.8302 20.625 42.3693 20.625 41.8945 20.625C42.249 21.334 42.6035 22.043 42.9688 22.7734C42.6368 23.0224 42.3546 23.2024 41.9885 23.3844C41.8952 23.4313 41.8019 23.4783 41.7057 23.5266C41.4648 23.6328 41.4648 23.6328 41.25 23.6328C41.0506 23.2392 40.8517 22.8454 40.6534 22.4513C40.5858 22.3172 40.5181 22.1832 40.4502 22.0493C40.3527 21.857 40.2558 21.6644 40.159 21.4718C40.1005 21.3559 40.042 21.24 39.9817 21.1206C39.8535 20.8398 39.8535 20.8398 39.8535 20.625C39.3927 20.625 38.9318 20.625 38.457 20.625C38.8115 21.334 39.166 22.043 39.5313 22.7734C39.1993 23.0224 38.9171 23.2024 38.551 23.3844C38.4577 23.4313 38.3644 23.4783 38.2682 23.5266C38.0273 23.6328 38.0273 23.6328 37.8125 23.6328C37.6131 23.2392 37.4142 22.8454 37.2159 22.4513C37.1483 22.3172 37.0806 22.1832 37.0127 22.0493C36.9152 21.857 36.8183 21.6644 36.7215 21.4718C36.663 21.3559 36.6045 21.24 36.5442 21.1206C36.416 20.8398 36.416 20.8398 36.416 20.625C35.7425 20.625 35.069 20.625 34.375 20.625C34.375 20.0578 34.375 19.4906 34.375 18.9062C35.0485 18.9062 35.7221 18.9062 36.416 18.9062C36.5224 18.5872 36.5224 18.5872 36.6309 18.2617C36.7202 18.0666 36.8135 17.8733 36.9103 17.6818C36.9893 17.525 36.9893 17.525 37.0698 17.365C37.1243 17.2577 37.1789 17.1503 37.2351 17.0398C37.2905 16.93 37.3459 16.8202 37.403 16.707C37.5391 16.4373 37.6756 16.1678 37.8125 15.8984C38.241 16.0329 38.6351 16.1902 39.0344 16.3952C39.1283 16.4432 39.2222 16.4911 39.3189 16.5404C39.389 16.5767 39.4591 16.613 39.5313 16.6504C39.3724 16.9861 39.2135 17.3218 39.0546 17.6575C39.0094 17.753 38.9641 17.8486 38.9176 17.947C38.8743 18.0384 38.831 18.1298 38.7864 18.2239C38.7465 18.3083 38.7066 18.3927 38.6654 18.4796C38.5973 18.6225 38.5278 18.7647 38.457 18.9062C38.9179 18.9062 39.3787 18.9062 39.8535 18.9062C39.9599 18.5872 39.9599 18.5872 40.0684 18.2617C40.1577 18.0666 40.251 17.8733 40.3478 17.6818C40.4268 17.525 40.4268 17.525 40.5073 17.365C40.5618 17.2577 40.6164 17.1503 40.6726 17.0398C40.728 16.93 40.7834 16.8202 40.8405 16.707C40.9766 16.4373 41.1131 16.1678 41.25 15.8984C41.6785 16.0329 42.0726 16.1902 42.4719 16.3952C42.5658 16.4432 42.6597 16.4911 42.7564 16.5404C42.8265 16.5767 42.8966 16.613 42.9688 16.6504C42.8099 16.9861 42.651 17.3218 42.4921 17.6575C42.4469 17.753 42.4016 17.8486 42.3551 17.947C42.3118 18.0384 42.2685 18.1298 42.2239 18.2239C42.184 18.3083 42.1441 18.3927 42.1029 18.4796C42.0348 18.6225 41.9653 18.7647 41.8945 18.9062C42.3554 18.9062 42.8162 18.9062 43.291 18.9062C43.3974 18.5872 43.3974 18.5872 43.5059 18.2617C43.5952 18.0666 43.6885 17.8733 43.7853 17.6818C43.8643 17.525 43.8643 17.525 43.9448 17.365C43.9993 17.2577 44.0539 17.1503 44.1101 17.0398C44.1655 16.93 44.2209 16.8202 44.278 16.707C44.4141 16.4373 44.5506 16.1678 44.6875 15.8984C45.116 16.0329 45.5101 16.1902 45.9094 16.3952C46.0033 16.4432 46.0972 16.4911 46.1939 16.5404C46.264 16.5767 46.3341 16.613 46.4063 16.6504C46.2474 16.9861 46.0885 17.3218 45.9296 17.6575C45.8844 17.753 45.8391 17.8486 45.7926 17.947C45.7493 18.0384 45.706 18.1298 45.6614 18.2239C45.6215 18.3083 45.5816 18.3927 45.5404 18.4796C45.4723 18.6225 45.4028 18.7647 45.332 18.9062C45.7929 18.9062 46.2537 18.9062 46.7285 18.9062C46.7994 18.6935 46.8703 18.4808 46.9434 18.2617C47.0327 18.0666 47.126 17.8733 47.2228 17.6818C47.2754 17.5772 47.3281 17.4727 47.3823 17.365C47.4368 17.2577 47.4914 17.1503 47.5476 17.0398C47.603 16.93 47.6584 16.8202 47.7155 16.707C47.8516 16.4373 47.9881 16.1678 48.125 15.8984C48.7368 16.0904 49.2742 16.3579 49.8438 16.6504C49.5247 17.3239 49.2057 17.9974 48.877 18.6914C49.9351 18.0331 49.9351 18.0331 50.4883 16.9726C50.6183 16.1924 50.6538 15.3988 50.7031 14.6094C41.3445 14.6094 31.9859 14.6094 22.3438 14.6094C22.3438 14.0422 22.3438 13.475 22.3438 12.8906C31.7023 12.8906 41.0609 12.8906 50.7031 12.8906C50.7031 12.3234 50.7031 11.7562 50.7031 11.1719C40.2102 11.1719 29.7172 11.1719 18.9063 11.1719C18.9063 12.0226 18.9063 12.8734 18.9063 13.75C18.3391 13.75 17.7719 13.75 17.1875 13.75C17.1778 12.86 17.1699 11.9701 17.1652 11.08C17.163 10.6666 17.16 10.2533 17.1551 9.83992C17.1504 9.44011 17.1478 9.04035 17.1467 8.64052C17.146 8.48888 17.1444 8.33724 17.1421 8.18562C17.121 6.76413 17.3695 5.66623 18.3691 4.61913C19.3426 3.68985 20.4113 3.37104 21.7365 3.38292ZM21.2695 5.37108C21.5886 6.00917 21.9076 6.64725 22.2363 7.30467C21.7046 7.58827 21.1729 7.87186 20.625 8.16405C20.5541 7.95135 20.4832 7.73866 20.4102 7.51952C20.285 7.27094 20.1551 7.02474 20.0208 6.78099C19.9529 6.6572 19.8851 6.5334 19.8151 6.40585C19.7634 6.31252 19.7116 6.21919 19.6582 6.12303C19.1202 6.64027 19.0309 6.98636 18.9063 7.73436C18.9063 8.30155 18.9063 8.86874 18.9063 9.45311C29.3992 9.45311 39.8922 9.45311 50.7031 9.45311C50.7909 7.64485 50.7909 7.64485 50.0586 6.12303C49.6925 5.75952 49.3955 5.46775 48.877 5.37108C49.0218 5.83941 49.2045 6.26412 49.4275 6.70043C49.5294 6.89983 49.6313 7.09923 49.7363 7.30467C49.2046 7.58827 48.6729 7.87186 48.125 8.16405C48.0541 7.95135 47.9832 7.73866 47.9102 7.51952C47.8208 7.32442 47.7276 7.13108 47.6307 6.93961C47.5781 6.83506 47.5255 6.73051 47.4712 6.6228C47.4167 6.51548 47.3621 6.40816 47.3059 6.29759C47.2505 6.18778 47.1951 6.07797 47.1381 5.96484C47.0019 5.69511 46.8653 5.42564 46.7285 5.15624C46.2677 5.15624 45.8068 5.15624 45.332 5.15624C45.5078 5.6921 45.5078 5.6921 45.7324 6.19269C45.7623 6.25215 45.7923 6.3116 45.8232 6.37286C45.8606 6.44551 45.8979 6.51816 45.9363 6.593C46.0559 6.82785 46.1756 7.06271 46.2988 7.30467C45.7671 7.58827 45.2354 7.87186 44.6875 8.16405C44.5812 7.84501 44.5812 7.84501 44.4727 7.51952C44.3833 7.32442 44.2901 7.13108 44.1932 6.93961C44.1406 6.83506 44.088 6.73051 44.0337 6.6228C43.9792 6.51548 43.9246 6.40816 43.8684 6.29759C43.813 6.18778 43.7576 6.07797 43.7006 5.96484C43.5644 5.69511 43.4278 5.42564 43.291 5.15624C42.8302 5.15624 42.3693 5.15624 41.8945 5.15624C42.0703 5.6921 42.0703 5.6921 42.2949 6.19269C42.3248 6.25215 42.3548 6.3116 42.3857 6.37286C42.4231 6.44551 42.4604 6.51816 42.4988 6.593C42.6184 6.82785 42.7381 7.06271 42.8613 7.30467C42.3296 7.58827 41.7979 7.87186 41.25 8.16405C41.1437 7.84501 41.1437 7.84501 41.0352 7.51952C40.9458 7.32442 40.8526 7.13108 40.7557 6.93961C40.7031 6.83506 40.6505 6.73051 40.5962 6.6228C40.5417 6.51548 40.4871 6.40816 40.4309 6.29759C40.3755 6.18778 40.3201 6.07797 40.2631 5.96484C40.1269 5.69511 39.9903 5.42564 39.8535 5.15624C39.3927 5.15624 38.9318 5.15624 38.457 5.15624C38.6328 5.6921 38.6328 5.6921 38.8574 6.19269C38.8873 6.25215 38.9173 6.3116 38.9482 6.37286C38.9856 6.44551 39.0229 6.51816 39.0613 6.593C39.1809 6.82785 39.3006 7.06271 39.4238 7.30467C38.8921 7.58827 38.3604 7.87186 37.8125 8.16405C37.7062 7.84501 37.7062 7.84501 37.5977 7.51952C37.5083 7.32442 37.4151 7.13108 37.3182 6.93961C37.2656 6.83506 37.213 6.73051 37.1587 6.6228C37.1042 6.51548 37.0496 6.40816 36.9934 6.29759C36.938 6.18778 36.8826 6.07797 36.8256 5.96484C36.6894 5.69511 36.5528 5.42564 36.416 5.15624C35.9552 5.15624 35.4943 5.15624 35.0195 5.15624C35.1953 5.6921 35.1953 5.6921 35.4199 6.19269C35.4498 6.25215 35.4798 6.3116 35.5107 6.37286C35.5481 6.44551 35.5854 6.51816 35.6238 6.593C35.7434 6.82785 35.8631 7.06271 35.9863 7.30467C35.4546 7.58827 34.9229 7.87186 34.375 8.16405C34.2687 7.84501 34.2687 7.84501 34.1602 7.51952C34.0708 7.32442 33.9776 7.13108 33.8807 6.93961C33.8281 6.83506 33.7755 6.73051 33.7212 6.6228C33.6667 6.51548 33.6121 6.40816 33.5559 6.29759C33.5005 6.18778 33.4451 6.07797 33.3881 5.96484C33.2519 5.69511 33.1153 5.42564 32.9785 5.15624C32.5177 5.15624 32.0568 5.15624 31.582 5.15624C31.7578 5.6921 31.7578 5.6921 31.9824 6.19269C32.0123 6.25215 32.0423 6.3116 32.0733 6.37286C32.1292 6.48183 32.1292 6.48183 32.1863 6.593C32.3059 6.82785 32.4256 7.06271 32.5488 7.30467C31.7512 7.73006 31.7512 7.73006 30.9375 8.16405C30.8312 7.84501 30.8312 7.84501 30.7227 7.51952C30.6333 7.32442 30.5401 7.13108 30.4432 6.93961C30.3906 6.83506 30.338 6.73051 30.2837 6.6228C30.2292 6.51548 30.1746 6.40816 30.1184 6.29759C30.063 6.18778 30.0076 6.07797 29.9506 5.96484C29.8144 5.69511 29.6778 5.42564 29.541 5.15624C29.0802 5.15624 28.6193 5.15624 28.1445 5.15624C28.3203 5.6921 28.3203 5.6921 28.5449 6.19269C28.5748 6.25215 28.6048 6.3116 28.6357 6.37286C28.6917 6.48183 28.6917 6.48183 28.7488 6.593C28.8684 6.82785 28.9881 7.06271 29.1113 7.30467C28.3137 7.73006 28.3137 7.73006 27.5 8.16405C27.3937 7.84501 27.3937 7.84501 27.2852 7.51952C27.1958 7.32442 27.1026 7.13108 27.0057 6.93961C26.9531 6.83506 26.9005 6.73051 26.8462 6.6228C26.7917 6.51548 26.7371 6.40816 26.6809 6.29759C26.6255 6.18778 26.5701 6.07797 26.5131 5.96484C26.3769 5.69511 26.2403 5.42564 26.1035 5.15624C25.6427 5.15624 25.1818 5.15624 24.707 5.15624C24.8828 5.6921 24.8828 5.6921 25.1074 6.19269C25.1523 6.28187 25.1523 6.28187 25.1982 6.37286C25.2356 6.44551 25.2729 6.51816 25.3113 6.593C25.4309 6.82785 25.5506 7.06271 25.6738 7.30467C24.8762 7.73006 24.8762 7.73006 24.0625 8.16405C23.9916 7.95135 23.9207 7.73866 23.8477 7.51952C23.7583 7.32442 23.6651 7.13108 23.5682 6.93961C23.4893 6.78279 23.4893 6.78279 23.4087 6.6228C23.3542 6.51548 23.2996 6.40816 23.2434 6.29759C23.188 6.18778 23.1326 6.07797 23.0756 5.96484C22.9394 5.6951 22.8029 5.42558 22.666 5.15624C22.4736 5.15044 22.2811 5.14627 22.0886 5.14281C21.9814 5.14032 21.8743 5.13782 21.7638 5.13525C21.4669 5.127 21.4669 5.127 21.2695 5.37108Z" fill="#E5E5E5" fill-opacity="0.5"/>
<path d="M18.6902 15.4469C18.7693 15.4462 18.8484 15.4454 18.9299 15.4446C22.2326 15.4202 22.2326 15.4202 23.7403 15.791C23.8282 15.8118 23.9161 15.8326 24.0067 15.854C28.8158 17.0185 32.819 20.0774 35.3934 24.2753C37.069 27.0999 37.8617 30.2081 37.8461 33.4821C37.8458 33.6098 37.8458 33.6098 37.8455 33.7401C37.8406 35.0153 37.7895 36.2455 37.4903 37.4903C37.473 37.5672 37.4557 37.6441 37.4379 37.7233C36.8598 40.2486 35.6835 42.6771 34.0528 44.6875C34.0059 44.7453 33.9591 44.803 33.9108 44.8625C31.4124 47.9238 28.0969 50.1355 24.2505 51.1127C24.1682 51.1336 24.0858 51.1546 24.001 51.1761C22.604 51.51 21.2286 51.6029 19.7992 51.5961C19.6715 51.5958 19.6715 51.5958 19.5413 51.5955C18.2691 51.5906 17.0312 51.5503 15.791 51.2402C15.7147 51.2212 15.6384 51.2022 15.5598 51.1827C15.0209 51.0436 14.4923 50.8803 13.9649 50.7031C13.8933 50.6795 13.8218 50.6558 13.7481 50.6314C11.2653 49.7974 9.12192 48.3797 7.19728 46.6211C7.10921 46.5408 7.02115 46.4605 6.93041 46.3777C3.90426 43.4804 1.81527 39.0519 1.68767 34.8589C1.67908 34.4313 1.67749 34.0038 1.67849 33.5761C1.67851 33.4861 1.67853 33.3961 1.67855 33.3035C1.68217 31.8663 1.78482 30.5072 2.14846 29.1113C2.16743 29.0326 2.1864 28.9539 2.20594 28.8727C3.32762 24.25 6.52205 20.3351 10.5328 17.8841C12.9581 16.45 15.8565 15.4651 18.6902 15.4469ZM16.543 17.5098C16.3744 17.847 16.5389 18.1473 16.6437 18.49C16.7168 18.7337 16.7899 18.9774 16.8653 19.2285C16.2626 19.3703 15.66 19.5121 15.0391 19.6582C14.9859 19.2328 14.9859 19.2328 14.9317 18.7988C14.8982 18.6545 14.8617 18.5106 14.8175 18.3692C14.7843 18.2628 14.7511 18.1565 14.7168 18.0469C13.5467 18.4375 13.5467 18.4375 12.461 19.0137C12.5075 19.0953 12.554 19.1768 12.6019 19.2608C12.6618 19.3676 12.7216 19.4744 12.7832 19.5844C12.843 19.6903 12.9029 19.7962 12.9645 19.9054C13.1055 20.1953 13.1055 20.1953 13.1055 20.5176C12.3611 20.943 12.3611 20.943 11.6016 21.377C11.4952 21.0579 11.4952 21.0579 11.3867 20.7324C11.2771 20.5087 11.2771 20.5087 11.1585 20.3162C11.092 20.2054 11.0255 20.0946 10.957 19.9805C10.4552 20.1449 10.0953 20.4217 9.68813 20.7459C9.62395 20.7961 9.55976 20.8464 9.49364 20.8982C9.33646 21.0214 9.1799 21.1454 9.02346 21.2695C9.17475 21.6149 9.35683 21.8412 9.6277 22.1021C9.69556 22.168 9.76341 22.2339 9.83332 22.3018C9.88511 22.3511 9.93689 22.4004 9.99025 22.4512C9.83157 22.822 9.62094 23.0581 9.33229 23.3374C9.25447 23.4133 9.17665 23.4892 9.09647 23.5674C9.03693 23.6244 8.97738 23.6815 8.91603 23.7403C8.57065 23.589 8.34435 23.4069 8.08351 23.136C8.0176 23.0682 7.95169 23.0003 7.88378 22.9304C7.80983 22.8527 7.80983 22.8527 7.73439 22.7735C7.2419 22.9392 7.02293 23.3317 6.74074 23.7403C6.69144 23.8092 6.64215 23.8782 6.59136 23.9492C6.32204 24.2949 6.32204 24.2949 6.23049 24.707C6.42265 24.815 6.61518 24.9223 6.80788 25.0293C6.91506 25.0891 7.02224 25.149 7.13266 25.2106C7.39193 25.3677 7.39193 25.3677 7.62697 25.3516C7.34338 25.8479 7.05978 26.3442 6.7676 26.8555C6.31742 26.7655 6.09291 26.6936 5.71352 26.4728C5.62863 26.4239 5.54375 26.375 5.45629 26.3247C5.36095 26.2684 5.36095 26.2684 5.26369 26.211C5.14201 26.4455 5.02132 26.6806 4.90114 26.9159C4.85004 27.0141 4.85004 27.0141 4.79792 27.1142C4.57263 27.5577 4.41978 27.9846 4.29689 28.4668C4.48468 28.5212 4.67272 28.5748 4.86086 28.6279C4.96554 28.6579 5.07023 28.6878 5.17809 28.7186C5.49682 28.8054 5.49682 28.8054 5.90822 28.7891C5.76642 29.3917 5.62463 29.9944 5.47853 30.6153C4.9468 30.4735 4.41506 30.3317 3.86721 30.1856C3.62148 31.0456 3.53133 31.7718 3.54494 32.6563C4.07668 32.6563 4.60842 32.6563 5.15627 32.6563C5.15627 33.2235 5.15627 33.7906 5.15627 34.375C4.62453 34.375 4.09279 34.375 3.54494 34.375C3.51791 35.1725 3.57219 35.9601 3.75978 36.7383C4.09698 36.9069 4.39725 36.7424 4.74001 36.6376C4.98372 36.5645 5.22744 36.4914 5.47853 36.416C5.62033 37.0187 5.76213 37.6213 5.90822 38.2422C5.62463 38.2777 5.34103 38.3131 5.04885 38.3496C4.90447 38.383 4.76061 38.4196 4.61916 38.4638C4.51281 38.497 4.40646 38.5302 4.29689 38.5645C4.6875 39.7346 4.6875 39.7346 5.26369 40.8203C5.34525 40.7738 5.42681 40.7273 5.51084 40.6793C5.61761 40.6195 5.72437 40.5597 5.83437 40.4981C5.9403 40.4382 6.04623 40.3784 6.15538 40.3168C6.44533 40.1758 6.44533 40.1758 6.7676 40.1758C7.19299 40.9202 7.19299 40.9202 7.62697 41.6797C7.30793 41.7861 7.30793 41.7861 6.98244 41.8945C6.75867 42.0042 6.75867 42.0042 6.56618 42.1228C6.4554 42.1893 6.34462 42.2558 6.23049 42.3242C6.39494 42.8261 6.67173 43.1859 6.99587 43.5932C7.07127 43.6894 7.07127 43.6894 7.14819 43.7876C7.27141 43.9448 7.3954 44.1014 7.51955 44.2578C7.86494 44.1065 8.09123 43.9245 8.35207 43.6536C8.41798 43.5857 8.4839 43.5179 8.55181 43.448C8.62575 43.3703 8.62575 43.3703 8.70119 43.291C9.07201 43.4497 9.30808 43.6603 9.58742 43.949C9.6633 44.0268 9.73919 44.1046 9.81737 44.1848C9.87442 44.2444 9.93147 44.3039 9.99025 44.3653C9.83895 44.7106 9.65687 44.9369 9.386 45.1978C9.28423 45.2966 9.28423 45.2966 9.18039 45.3975C9.1286 45.4468 9.07681 45.4961 9.02346 45.5469C9.18915 46.0394 9.58173 46.2584 9.99025 46.5405C10.0592 46.5898 10.1282 46.6391 10.1992 46.6899C10.5449 46.9592 10.5449 46.9592 10.957 47.0508C11.065 46.8586 11.1723 46.6661 11.2793 46.4734C11.3391 46.3662 11.399 46.259 11.4606 46.1486C11.6177 45.8894 11.6177 45.8894 11.6016 45.6543C12.0979 45.9379 12.5942 46.2215 13.1055 46.5137C13.0155 46.9639 12.9436 47.1884 12.7228 47.5678C12.6739 47.6526 12.625 47.7375 12.5747 47.825C12.5371 47.8885 12.4996 47.9521 12.461 48.0176C12.6955 48.1393 12.9306 48.26 13.1659 48.3801C13.2313 48.4142 13.2968 48.4483 13.3642 48.4834C13.8077 48.7087 14.2346 48.8615 14.7168 48.9844C14.7712 48.7966 14.8248 48.6086 14.8779 48.4204C14.9228 48.2634 14.9228 48.2634 14.9686 48.1032C15.0554 47.7845 15.0554 47.7845 15.0391 47.3731C15.6417 47.5149 16.2444 47.6567 16.8653 47.8028C16.7235 48.3345 16.5817 48.8662 16.4356 49.4141C17.2956 49.6598 18.0218 49.75 18.9063 49.7363C18.9063 49.2046 18.9063 48.6729 18.9063 48.125C19.4735 48.125 20.0406 48.125 20.625 48.125C20.625 48.6568 20.625 49.1885 20.625 49.7363C21.4225 49.7634 22.2101 49.7091 22.9883 49.5215C23.1569 49.1843 22.9924 48.884 22.8876 48.5413C22.8145 48.2976 22.7414 48.0539 22.666 47.8028C23.2687 47.661 23.8713 47.5192 24.4922 47.3731C24.5277 47.6567 24.5631 47.9403 24.5996 48.2324C24.633 48.3768 24.6696 48.5207 24.7138 48.6621C24.747 48.7685 24.7802 48.8748 24.8145 48.9844C25.9846 48.5938 25.9846 48.5938 27.0703 48.0176C27.0238 47.936 26.9773 47.8545 26.9293 47.7704C26.8695 47.6637 26.8097 47.5569 26.7481 47.4469C26.6882 47.341 26.6284 47.2351 26.5668 47.1259C26.4258 46.836 26.4258 46.836 26.4258 46.5137C27.1702 46.0883 27.1702 46.0883 27.9297 45.6543C28.0006 45.867 28.0715 46.0797 28.1446 46.2988C28.2542 46.5226 28.2542 46.5226 28.3728 46.7151C28.4393 46.8259 28.5058 46.9367 28.5742 47.0508C29.0761 46.8863 29.4359 46.6096 29.8432 46.2854C29.9073 46.2352 29.9715 46.1849 30.0377 46.1331C30.1948 46.0099 30.3514 45.8859 30.5078 45.7617C30.3565 45.4163 30.1745 45.1901 29.9036 44.9292C29.8357 44.8633 29.7679 44.7974 29.698 44.7295C29.6462 44.6802 29.5944 44.6309 29.541 44.5801C29.6997 44.2093 29.9103 43.9732 30.199 43.6939C30.2768 43.618 30.3546 43.5421 30.4348 43.4639C30.5241 43.3783 30.5241 43.3783 30.6153 43.291C30.9606 43.4423 31.1869 43.6244 31.4478 43.8953C31.5137 43.9631 31.5796 44.031 31.6475 44.1009C31.6968 44.1527 31.7461 44.2045 31.7969 44.2578C32.2894 44.0921 32.5084 43.6996 32.7905 43.291C32.8398 43.2221 32.8891 43.1531 32.9399 43.0821C33.2092 42.7364 33.2092 42.7364 33.3008 42.3242C33.0911 42.1863 32.875 42.0579 32.6563 41.9348C32.4768 41.8331 32.4768 41.8331 32.2937 41.7292C32.2007 41.6774 32.1076 41.6256 32.0117 41.5723C32.057 41.4895 32.1023 41.4067 32.149 41.3214C32.2078 41.2136 32.2667 41.1059 32.3273 40.9949C32.3859 40.8877 32.4444 40.7805 32.5048 40.6701C32.5934 40.5066 32.6805 40.3422 32.7637 40.1758C33.1676 40.2382 33.4652 40.3533 33.8178 40.5585C33.9027 40.6074 33.9875 40.6562 34.075 40.7066C34.1385 40.7441 34.2021 40.7817 34.2676 40.8203C34.3893 40.5857 34.51 40.3507 34.6301 40.1154C34.6642 40.0499 34.6983 39.9845 34.7334 39.9171C34.9587 39.4736 35.1115 39.0467 35.2344 38.5645C35.0466 38.5101 34.8586 38.4565 34.6704 38.4033C34.5134 38.3585 34.5134 38.3585 34.3532 38.3127C34.0345 38.2258 34.0345 38.2258 33.6231 38.2422C33.7649 37.6396 33.9067 37.0369 34.0528 36.416C34.5845 36.5578 35.1162 36.6996 35.6641 36.8457C35.9098 35.9857 36 35.2595 35.9863 34.375C35.4546 34.375 34.9229 34.375 34.375 34.375C34.375 33.8078 34.375 33.2406 34.375 32.6563C34.9068 32.6563 35.4385 32.6563 35.9863 32.6563C36.0134 31.8588 35.9591 31.0711 35.7715 30.293C35.4343 30.1244 35.134 30.2889 34.7913 30.3937C34.5476 30.4668 34.3039 30.5399 34.0528 30.6153C33.8401 29.7113 33.8401 29.7113 33.6231 28.7891C33.9067 28.7536 34.1903 28.7182 34.4824 28.6817C34.6268 28.6482 34.7707 28.6117 34.9121 28.5675C35.0716 28.5177 35.0716 28.5177 35.2344 28.4668C34.8438 27.2967 34.8438 27.2967 34.2676 26.211C34.186 26.2575 34.1045 26.304 34.0204 26.3519C33.9137 26.4118 33.8069 26.4716 33.6969 26.5332C33.591 26.593 33.4851 26.6529 33.3759 26.7145C33.086 26.8555 33.086 26.8555 32.7637 26.8555C32.5677 26.5735 32.5677 26.5735 32.3676 26.211C32.3007 26.0913 32.2338 25.9717 32.1649 25.8484C32.0891 25.7088 32.0891 25.7088 32.0117 25.5664C32.2591 25.2934 32.5137 25.1291 32.8375 24.9555C32.9244 24.9085 33.0112 24.8616 33.1006 24.8132C33.1997 24.7607 33.1997 24.7607 33.3008 24.707C33.1363 24.2052 32.8596 23.8453 32.5354 23.4381C32.4852 23.3739 32.4349 23.3098 32.3831 23.2436C32.2599 23.0865 32.1359 22.9299 32.0117 22.7735C31.6663 22.9248 31.4401 23.1068 31.1792 23.3777C31.0803 23.4795 31.0803 23.4795 30.9795 23.5833C30.9302 23.6351 30.8809 23.6869 30.8301 23.7403C30.4593 23.5816 30.2232 23.3709 29.9439 23.0823C29.868 23.0045 29.7921 22.9266 29.7139 22.8465C29.6283 22.7572 29.6283 22.7572 29.541 22.666C29.6923 22.3206 29.8744 22.0944 30.1453 21.8335C30.2131 21.7676 30.281 21.7017 30.3509 21.6338C30.4027 21.5845 30.4545 21.5352 30.5078 21.4844C30.3421 20.9919 29.9496 20.7729 29.541 20.4907C29.4721 20.4414 29.4031 20.3921 29.3321 20.3414C28.9864 20.072 28.9864 20.072 28.5742 19.9805C28.4663 20.1726 28.359 20.3652 28.252 20.5579C28.1922 20.6651 28.1323 20.7722 28.0707 20.8827C27.9136 21.1419 27.9136 21.1419 27.9297 21.377C27.4334 21.0934 26.9371 20.8098 26.4258 20.5176C26.5158 20.0674 26.5877 19.8429 26.8085 19.4635C26.8574 19.3786 26.9063 19.2938 26.9566 19.2063C27.0129 19.111 27.0129 19.111 27.0703 19.0137C26.8357 18.892 26.6007 18.7713 26.3654 18.6511C26.2999 18.6171 26.2345 18.583 26.1671 18.5479C25.7236 18.3226 25.2967 18.1698 24.8145 18.0469C24.7601 18.2347 24.7065 18.4227 24.6533 18.6109C24.6234 18.7155 24.5935 18.8202 24.5627 18.9281C24.4758 19.2468 24.4758 19.2468 24.4922 19.6582C23.8896 19.5164 23.2869 19.3746 22.666 19.2285C22.8787 18.4309 22.8787 18.4309 23.0957 17.6172C22.2357 17.3715 21.5095 17.2813 20.625 17.2949C20.625 17.8267 20.625 18.3584 20.625 18.9063C20.0578 18.9063 19.4906 18.9063 18.9063 18.9063C18.9063 18.3745 18.9063 17.8428 18.9063 17.2949C18.1088 17.2679 17.3211 17.3222 16.543 17.5098Z" fill="#E5E5E5" fill-opacity="0.5"/>
<path d="M22.8809 24.4922C23.0479 24.5487 23.0479 24.5487 23.2183 24.6063C25.7263 25.5518 27.5016 27.4581 28.5913 29.8647C29.4685 31.9364 29.5951 34.6194 28.7891 36.7383C27.7037 39.3777 25.8365 41.3265 23.2032 42.4317C20.7392 43.3319 18.0439 43.2095 15.6547 42.1455C13.3245 41.0054 11.5917 39.0885 10.7422 36.6309C10.7 36.5105 10.6578 36.3902 10.6142 36.2662C9.91236 33.9307 10.1417 31.325 11.2651 29.1691C12.5598 26.7946 14.5191 25.1539 17.0935 24.3378C18.9308 23.8057 21.0777 23.8607 22.8809 24.4922ZM18.7989 25.8887C18.8144 25.9518 18.8299 26.015 18.8459 26.08C19.1872 27.7297 19.2509 29.758 18.6914 31.3672C18.5192 31.5794 18.3981 31.675 18.1543 31.7969C16.5942 31.8081 15.1606 31.3596 13.75 30.7227C13.6528 30.6799 13.5556 30.6371 13.4555 30.593C13.2309 30.494 13.0069 30.3941 12.7832 30.293C12.419 31.1254 12.419 31.1254 12.2461 32.0117C12.4376 32.2032 12.7059 32.1746 12.9632 32.2103C14.0439 32.3637 15.0101 32.642 16.0059 33.086C16.074 33.1159 16.1422 33.1459 16.2124 33.1767C17.3375 33.684 17.3375 33.684 17.5576 34.2059C17.618 34.5948 17.6155 34.7498 17.4561 35.1001C17.3938 35.2372 17.3938 35.2372 17.3302 35.3771C17.2596 35.5191 17.2596 35.5191 17.1875 35.6641C17.1405 35.761 17.0934 35.8579 17.0449 35.9578C16.6713 36.6845 16.2138 37.3007 15.6836 37.9199C15.6141 38.0026 15.5446 38.0853 15.473 38.1705C15.1955 38.4954 14.9673 38.7556 14.6094 38.9942C14.7699 39.4063 15 39.5809 15.3614 39.8267C15.5043 39.9255 15.5043 39.9255 15.6501 40.0264C15.8809 40.1943 15.8809 40.1943 16.1133 40.1758C16.1629 40.0679 16.2125 39.9601 16.2635 39.8489C16.9241 38.4494 17.7383 37.2366 18.9063 36.2012C18.9981 36.1102 18.9981 36.1102 19.0918 36.0174C19.4542 35.8119 19.7951 35.8007 20.1954 35.8789C21.726 36.8556 22.6823 38.5749 23.418 40.1758C23.8301 40.0309 24.1326 39.8452 24.4721 39.5716C24.557 39.5037 24.6419 39.4358 24.7293 39.3659C24.7929 39.3141 24.8564 39.2624 24.9219 39.209C24.8371 38.8582 24.8371 38.8582 24.4989 38.6316C23.6117 37.8895 22.9879 36.9009 22.4445 35.8924C22.4035 35.817 22.3624 35.7417 22.3201 35.6642C22.0499 35.1426 21.8359 34.6342 21.9636 34.0355C22.2325 33.7142 22.579 33.5507 22.948 33.3612C23.0295 33.319 23.111 33.2767 23.1949 33.2332C24.4716 32.5915 25.7595 32.2676 27.1778 32.1192C27.3141 31.7101 27.2291 31.5487 27.0905 31.1456C27.0521 31.0314 27.0138 30.9172 26.9743 30.7995C26.8735 30.498 26.8735 30.498 26.6407 30.293C26.552 30.341 26.4634 30.3891 26.3721 30.4386C24.9624 31.1765 22.7421 32.2222 21.1332 31.7209C20.8825 31.5336 20.8455 31.3786 20.766 31.0785C20.7412 30.9895 20.7165 30.9004 20.6909 30.8087C20.5218 30.0363 20.497 29.2878 20.4975 28.5004C20.4974 28.386 20.4973 28.2716 20.4973 28.1538C20.5025 27.3783 20.5468 26.6446 20.7325 25.8887C20.0607 25.7992 19.4683 25.7771 18.7989 25.8887ZM22.4512 26.3184C22.2699 27.0769 22.2057 27.7889 22.2162 28.5675C22.2163 28.6676 22.2164 28.7676 22.2164 28.8707C22.2178 29.4296 22.2178 29.4296 22.3438 29.9707C23.5391 29.8102 24.6504 29.4317 25.6739 28.7891C25.1106 27.5253 23.6694 26.8135 22.4512 26.3184ZM14.3186 28.0892C14.1071 28.3212 13.9739 28.501 13.8575 28.7891C15.4389 29.6542 15.4389 29.6542 17.1875 29.9707C17.3428 29.5048 17.3148 29.0556 17.3151 28.5675C17.3171 28.4218 17.3171 28.4218 17.3191 28.2732C17.3205 27.5976 17.2371 26.9752 17.0801 26.3184C16.1383 26.3184 14.9534 27.4895 14.3186 28.0892ZM12.1387 33.8379C12.0293 35.1784 12.5723 36.451 13.2129 37.5977C13.6459 37.5977 13.7274 37.4553 14.032 37.1546C15.0642 36.1032 15.0642 36.1032 15.5762 34.8047C14.5105 34.3316 13.328 33.8379 12.1387 33.8379ZM23.9551 34.8047C24.402 35.9979 25.191 36.852 26.1036 37.7051C26.8965 37.0231 27.2268 35.6936 27.3926 34.6973C27.413 34.4042 27.4096 34.1319 27.3926 33.8379C26.2034 33.8379 25.0208 34.3316 23.9551 34.8047ZM19.3226 38.3161C18.603 39.0552 18.1124 39.98 17.7246 40.9278C18.4169 41.1335 19.0456 41.1753 19.7657 41.1695C19.9181 41.1707 19.9181 41.1707 20.0737 41.172C20.6882 41.1703 21.2174 41.1029 21.8067 40.9278C21.2985 39.8418 20.7709 38.8502 19.8731 38.0274C19.585 38.0274 19.5286 38.1181 19.3226 38.3161Z" fill="#E5E5E5" fill-opacity="0.5"/>
<path d="M30.8301 33.5156C31.4327 33.5156 32.0354 33.5156 32.6563 33.5156C32.7917 36.9005 31.482 39.9566 29.2188 42.4316C29.1418 42.5175 29.0648 42.6033 28.9855 42.6918C28.1115 43.6183 26.8752 44.6535 25.6738 45.1172C25.532 45.1172 25.3902 45.1172 25.2442 45.1172C25.1332 44.8918 25.0238 44.6656 24.9152 44.4391C24.8541 44.3132 24.793 44.1873 24.7301 44.0577C24.5996 43.7207 24.5996 43.7207 24.707 43.3984C24.9655 43.2289 24.9655 43.2289 25.2979 43.0493C25.9004 42.7095 26.4321 42.3363 26.9629 41.8945C27.0682 41.8127 27.0682 41.8127 27.1756 41.7292C29.1713 40.112 30.4715 37.3294 30.7456 34.8083C30.785 34.3775 30.808 33.9478 30.8301 33.5156Z" fill="#E5E5E5" fill-opacity="0.5"/>
<path d="M14.2871 21.9141C14.3981 22.1395 14.5074 22.3657 14.6161 22.5922C14.6772 22.718 14.7382 22.8439 14.8012 22.9736C14.9317 23.3105 14.9317 23.3105 14.8242 23.6328C14.5658 23.8023 14.5658 23.8023 14.2334 23.9819C13.6307 24.3219 13.0999 24.6956 12.5684 25.1367C12.5007 25.1875 12.433 25.2384 12.3632 25.2907C10.4297 26.8192 9.11689 29.5993 8.80861 32.0117C8.76338 32.513 8.73075 33.013 8.70119 33.5156C8.09855 33.5156 7.49592 33.5156 6.87502 33.5156C6.73804 30.091 8.0848 27.0299 10.3646 24.5207C11.2743 23.5679 12.899 21.9141 14.2871 21.9141Z" fill="#E5E5E5" fill-opacity="0.5"/>
<path d="M9.88281 38.457C10.0523 38.7155 10.0523 38.7155 10.2319 39.0479C10.5718 39.6504 10.9449 40.1821 11.3867 40.7129C11.4413 40.7831 11.4958 40.8533 11.552 40.9256C13.1693 42.9213 15.9518 44.2215 18.473 44.4956C18.9038 44.535 19.3334 44.558 19.7656 44.5801C19.7656 45.1827 19.7656 45.7854 19.7656 46.4063C16.3807 46.5417 13.3247 45.232 10.8496 42.9688C10.7638 42.8918 10.6779 42.8148 10.5894 42.7354C9.69724 41.8939 8.55755 40.6068 8.16406 39.4238C8.16658 39.2056 8.16658 39.2056 8.27148 38.9941C8.55263 38.8074 8.55263 38.8074 8.90259 38.6383C9.01752 38.5811 9.13245 38.5239 9.25087 38.465C9.56055 38.3496 9.56055 38.3496 9.88281 38.457Z" fill="#E5E5E5" fill-opacity="0.5"/>
<path d="M19.7656 20.625C22.8321 20.4577 25.8648 21.6022 28.1865 23.5942C29.3924 24.6846 30.7672 26.0528 31.3672 27.6074C31.3672 27.7492 31.3672 27.891 31.3672 28.0371C31.1418 28.1481 30.9156 28.2574 30.6891 28.3661C30.5632 28.4272 30.4373 28.4882 30.3076 28.5511C29.9707 28.6816 29.9707 28.6816 29.6484 28.5742C29.4789 28.3157 29.4789 28.3157 29.2993 27.9834C28.9595 27.3809 28.5863 26.8491 28.1445 26.3184C28.09 26.2482 28.0354 26.178 27.9792 26.1056C26.3804 24.1327 23.7348 22.9337 21.2695 22.5586C20.8916 22.5218 20.5153 22.493 20.1361 22.4738C19.873 22.4512 19.873 22.4512 19.7656 22.3438C19.7578 22.0541 19.7557 21.7672 19.7589 21.4777C19.7594 21.3962 19.7599 21.3147 19.7604 21.2307C19.7616 21.0288 19.7636 20.8269 19.7656 20.625Z" fill="#E5E5E5" fill-opacity="0.5"/>
<path d="M20.1953 32.6562C20.4639 32.8174 20.4639 32.8174 20.625 33.0859C20.71 33.5179 20.6917 33.834 20.4639 34.2139C20.084 34.4417 19.7679 34.46 19.3359 34.375C19.0674 34.2139 19.0674 34.2139 18.9062 33.9453C18.8213 33.5134 18.8395 33.1972 19.0674 32.8174C19.4472 32.5895 19.7634 32.5713 20.1953 32.6562Z" fill="#E5E5E5" fill-opacity="0.5"/>
</svg>
